<?xml version="1.0" encoding="UTF-8"?>
<svg id="Laag_1" xmlns="http://www.w3.org/2000/svg" version="1.1" viewBox="0 0 394.37 506.35">
  <!-- Generator: Adobe Illustrator 30.6.0, SVG Export Plug-In . SVG Version: 2.1.4 Build 75)  -->
  <defs>
    <style>
      .st0 {
        fill: #fff9e8;
      }
    </style>
  </defs>
  <path class="st0" d="M124.99,38.27c-1.92,1.62-3.21-1.27-4.34-2.16-6.11-4.83-12.7-5.88-20.52-5.29-10.26.77-20.63-.11-30.95.07-3.42.06-3.89-1.49-4.03-4.01-.07-1.35-.42-2.69-.64-4.03-.2,1.39-.57,2.78-.57,4.17.01,3.76-3.35,3.48-5.49,3.79-3.34.48-3.98,1.94-3.97,4.88.11,30.14.23,60.29-.04,90.43-.05,5.67-1.63,11.25,4.09,15.37.52.37.46,1.72,1.51,1.37.36-.12.3-1.35.47-2.06.71-2.98-1.59-8.33,1.9-8.41,2.86-.06,1.01,5.52,1.39,8.58.3,2.34.66,4.67.99,7,.34-2.37,1.33-4.86.88-7.08-1.75-8.71,2.13-10.66,10.31-9.15,5.62,1.03,4.42-6.24,8.59-7.49.76-.23.96-3.81,2.21-.51,5.49,14.51,10.7,29.11,16.05,43.67.3.81.78,1.7-.36,1.93-.66.13-1.77-.35-2.2-.89-4.2-5.28-9.76-7.79-16.58-7.1-3.85.39-3.48-2.77-4.88-4.44-1.31,1.25.38,4.6-3.03,4.24-2.04-.22-5.02.96-5.53-2.57-.06-.45-.58-.84-.89-1.26-1.02,9.59-7.88,2.15-11.6,2.98-3.13.7-3.19.81-3.19,3.35-.01,23.42.03,46.83-.4,70.24-.1,5.29,4.46,7.19,6.44,10.88.36.67,2.17.63,1.96,1.93-.21,1.26-1.5,1.33-2.55,1.33-13.95.02-27.89.03-41.84-.06-.91,0-1.82-.79-2.73-1.21.75-1.21,1.19-3.05,2.28-3.52,6.16-2.64,5.83-7.88,5.84-12.88.05-23.46-.11-46.93,0-70.39.02-4.8-4.11-6.53-6.7-9.14-3.44-3.47-5.11-5.51.28-8.73,4.68-2.79,6.5-7.15,6.43-12.91-.34-29.17-.15-58.35-.17-87.53,0-6.31-.69-12.68-.07-18.93.8-8.02-.21-14.87-8.02-19.43-.76-.44-1.71-1.91-1.47-2.33.66-1.17,1.8.05,2.76.04,14.89-.12,29.78-.38,44.67-.26,2.54.02,6.21-1.37,7.62,2.54.28.78.45,1.53,1.44.25,3.77-4.84,9.46-3.5,14.24-3.03,7.09.69,14.12.66,21.19.53,3.51-.07,5.92.03,7.4,4.34,3.25,9.42,7.73,18.44,11.5,27.69.65,1.6,1.15,4.47.29,5.19ZM25.7,153.93c-.02.66.47,1.34.72,2.01.27-.92.54-1.84.77-2.64-.34-1.3-.62-2.4-.91-3.49-.21,1.37-.54,2.74-.59,4.12ZM27.26,193.03c-.2-.28-.35-.73-.6-.79-.25-.06-.6.27-.91.42.26.38.51.76.77,1.14.24-.25.48-.51.74-.77ZM26.21,165.51c-.16.27-.35.53-.45.82-.04.1.17.28.27.42.24-.17.49-.35.76-.54-.2-.25-.39-.47-.57-.7ZM25.96,135.95c.72.65.87-.16.93-.63.06-.52-.05-1.06-.09-1.74-.43.33-.89.51-.93.75-.1.54-.21,1.35.09,1.62ZM25.83,109.78c0,.73.24,1.46.37,2.19.34-.36.92-.69.95-1.07.07-.75-.17-1.53-.4-3.11-.55,1.14-.92,1.57-.92,1.99ZM27.53,175.97c-.2-.5-.59-.92-.91-1.38-.24.26-.71.53-.69.76.06.49.36.95.61,1.53.48-.43,1.03-.78.98-.91ZM26.67,75.82c-.1.08-.09.28-.13.43.14.03.29.06.43.1.04-.15.08-.3.12-.45-.15-.03-.36-.14-.43-.08h0ZM29.88,169.19c-.03.52.74,1.5,1.23,1.55,1.07.11,1.03-.9,1.08-2.07-.25-.31-.69-.87-1.14-1.42-.42.65-1.14,1.28-1.18,1.94ZM32.82,125.01c-1.77-3.39.87-7.27-1.71-10.5-1.8,3.38.22,7.12-1.07,10.55-.06.16.03.42.14.58,1.93,2.88-1.8,6.36,1.06,9.13,2.92-2.96-.5-6.69,1.57-9.76ZM31.3,140.12c-1.65-.05-.26,1.97-.82,3.31.8.79-1.82,2.76.77,3.06,1.43.16.95-1.88,1.05-2.94.12-1.25.86-3.36-1-3.42ZM30.41,90.05c.1,1.88-.45,3.88,1.14,5.49.28-1.55.97-3.16.74-4.64-.25-1.59.6-4.3-1.44-4.52-1.34-.14-.41,2.34-.43,3.67ZM31.6,178.05c-1.92,2.52-.69,5.41-1.03,8.12-.35,2.71-1.13,5.47.86,7.95.3-2.56.6-5.13.72-6.1.04-4.41.81-7.25-.54-9.97ZM31.05,103.14c-.31,0-.93,1.65-.89,2.52.04,1.04-.22,2.46,1.38,2.93.26-.91.52-1.83.83-2.9-1.11-.66,1-2.52-1.32-2.54ZM30.56,77.9c.04.64.61,1.34,1.2.64.45-.54.43-1.54.39-2.32-.02-.44-.52-.86-1.36-2.14-.13,1.92-.29,2.88-.23,3.82ZM32,216.51c.06-.49-.25-1.03-.54-2-.46.92-.87,1.39-.89,1.88-.01.47.39.95.62,1.43.28-.43.75-.85.81-1.31ZM31.88,223.18c-.34-.09-.65-.22-.97-.25-.07,0-.3.41-.24.49.21.29.51.52.77.77.14-.34.29-.68.44-1.02ZM31.07,153.67c.29-.13.57-.25.99-.43-.18-.52-.37-1.06-.56-1.59-.21.3-.53.57-.59.9-.07.35.1.75.16,1.13ZM31.14,200.31c-.08.73-.29,1.47-.21,2.19.11,1.1.43,2.19.65,3.28.11-.96.22-1.92.3-2.7-.29-1.05.78-2.21-.74-2.76ZM31.73,242.96c-.02-.33-.1-.66-.16-.99-.17.08-.44.16-.43.21.03.33.12.65.19.98.14-.07.41-.14.41-.2ZM35.98,197.49c.12.04.72-.62.65-.84-.15-.49-.49-1.15-.9-1.26-.41-.11-1,.35-1.95.74,1.32.85,1.72,1.21,2.2,1.36ZM37.16,181.37c-1.1-2.78,1.75-7.27-1.45-7.8-1.88-.31-.1,4.8-.32,7.46-.02.2-.03.42.04.6.89,2.34-2.93,6.65.46,6.68,3.44.03-.16-4.66,1.27-6.94ZM36.93,204.05c-.08-.76.04-1.73-1.13-1.62-.3.03-.83.96-.73,1.36.65,2.55-2.01,5.5.93,7.75,1.21-2.39,1.2-4.92.93-7.49ZM37.35,117.39c-.14-1.73.95-4.59-1.46-4.89-1.45-.18-.59,2.73-1.09,4.19-.09,1.34-.79,3.31.92,3.64,2.29.45,1.7-1.92,1.62-2.94ZM37.03,131.49c-.24-.73-.61-2.4-.81-2.38-1.74.17-1.04,1.78-1.41,2.76-.37.99-.02,2.26,1.23,2.21,1.66-.07.49-1.57.99-2.58ZM34.98,90.86c.05.91.28,1.8.43,2.68,1.65-.17,1.63-1.12,1.59-1.86-.04-.76-.2-1.92-.69-2.15-1.16-.55-1.38.49-1.33,1.33ZM35.72,225.12c-.67.99-1.12,2.01-.2,3.07.11.12.85,0,.98-.2.78-1.21,0-2.05-.78-2.87ZM35.01,79.89c.05.49.43,1.29.77,1.35,1.2.2,1.18-.76,1.03-1.48-.1-.46-.56-.85-1.09-1.58-.35.8-.75,1.28-.71,1.72ZM37.02,146.14c-.07-.47-.59-.88-1.13-1.62-.39.72-.82,1.16-.79,1.57.03.52.35,1.34.72,1.45,1.19.34,1.31-.65,1.21-1.39ZM36.28,100.21c.27-.45.53-.9.85-1.43-.45-.49-.81-.88-1.17-1.27-.29.59-.73,1.17-.8,1.79-.03.26.72.61,1.11.91ZM36.95,218.73c0-.19-.8-.59-.86-.53-2.1,1.96.3,4.19-.37,6.27-.04.12-.02.27,0,.41,1.67-1.8,1.24-4.03,1.23-6.15ZM37.05,140.23c-.34-.4-.66-.79-.99-1.18-.27.24-.81.56-.77.72.13.47.5.88.78,1.31.27-.24.54-.47.98-.85ZM36.21,236.46c-.16-.07-.34-.21-.46-.17-.11.04-.15.27-.22.42.16.07.35.22.46.18.11-.04.15-.27.22-.42ZM36.01,211.74c-.48.85-.83,1.71.24,2.44.09.06.46-.06.52-.17.51-1,.51-1.86-.76-2.27ZM35.99,105.71c-.13.12-.37.26-.35.36.02.14.23.25.46.48-.05-.35-.08-.6-.11-.84ZM35.65,8.53c.15.11.3.23.44.35.18-.09.44-.14.5-.27.06-.14-.08-.36-.14-.54-.27.15-.54.31-.81.46ZM36.3,74.18c-.19.24-.39.47-.58.71.15.1.4.31.43.29.22-.19.41-.42.57-.66.01-.02-.26-.21-.42-.34ZM36.77,23.77v-1.05c-.31.08-.64.13-.91.27-.08.04-.08.48,0,.52.28.14.61.18.92.26ZM36.59,156.85c-.13.03-.33.03-.36.11-.08.15-.07.34-.09.52.18-.03.44-.01.52-.12.08-.1-.03-.33-.06-.51ZM41.77,122.12c-.74-2.84,1.03-6.04-1.41-8.59-.35,2.94-.7,5.88-1.06,8.85,1.14,3.49-1.46,7.65,2.26,10.66.66-3.63,1.13-7.31.2-10.92ZM39.61,188.78c.38.64,1.14,1.56,1.66,1.52,1.17-.09.88-1.16.59-1.89-.27-.66-.76-1.24-1.11-1.78-1.45.56-1.6,1.37-1.13,2.15ZM40.85,77.4c1.35.17,1.03-1.34,1.19-2.3-.78-1.01.08-2.84-1.8-3.37-.26.91-.69,1.82-.74,2.74-.06,1.15-.05,2.75,1.35,2.93ZM40.82,178.91c.32-2.14,1.09-4.32.85-6.39-.28-2.39,1.93-5.7-1.46-6.82-.66-.22.03,4.41-.51,6.91.67,1.96-1.47,4.48,1.12,6.3ZM41,213.03c-1.22-.18-1.52.68-1.43,1.49.14,1.18.57,2.33.88,3.49.51-.6,1.2-1.12,1.49-1.8.52-1.2.46-2.41-.94-3.17ZM40.37,198.84c-.2,1.35-.4,2.69-.59,4.05-.13,1.52-.64,3.13,1.16,4.17.38-.89,1.18-1.84,1.05-2.66-.3-1.89-1.06-3.71-1.62-5.56ZM39.69,87.56c-.04.98-.08,2.14,1.42,2.09.24,0,.45-.93.72-1.52-.81-.68-.1-2.19-1.66-2.17-.17,0-.45,1.04-.47,1.61ZM39.7,153.64c.02.69.35,1.36,1.03,3.77.42-2.42.65-3.09.62-3.76-.02-.53-.27-1.44-.55-1.49-1.19-.22-1.12.8-1.1,1.47ZM41.18,239.54c-.07-.43-.44-.83-1.05-1.86-.18,1.49-.37,2.26-.3,3,.02.22.79.38,1.21.57.06-.57.23-1.16.14-1.71ZM39.92,103.87c-.12.41.35.97.56,1.46.48-.32,1.14-.54,1.36-.98.18-.36-.18-.96-.39-1.78-.73.58-1.42.87-1.54,1.3ZM40.83,82.72c.27-.21.55-.41.82-.62-.3-.39-.48-.84-.71-.86-.29-.03-.62.28-.93.45.27.35.55.69.82,1.03ZM41.07,135.34c-.32-.05-.64-.1-.96-.15.09.68.18,1.36.28,2.07.23-.64.45-1.28.68-1.92ZM40.24,140.71c.19-.01.37-.03.56-.04-.13-1.03-.26-2.06-.39-3.09-.05,1.04-.11,2.09-.17,3.13ZM40.28,61.44l.34-.14-.26-.3-.08.44ZM45.49,191.03c1.45-3.25,1.09-6.67.96-10.06,0-.2.01-.42-.06-.61-1.1-2.68,2.64-7.02-.84-7.7-1.78-.35-.07,5.38-.77,7.6-.48,4.07-.52,7.47.71,10.77ZM46.26,227.59c-.44-1.2,1-4.05-.98-6.4-.28,2.69-.89,5.4-.75,8.07.13,2.41-.65,5.11,1.41,7.21,1.19-2.44.79-4.99.31-8.88ZM45.7,134.07c1.45-2.06.3-4.32.57-6.48-.55-2.92,1.05-6.01-.84-8.82-1.48,2.92-.53,6.03-.65,9.04-.08,2.07-.95,4.39.91,6.25ZM45.75,87.93c.26-1.35.52-2.7.78-4.03-.39-1.41-.76-2.7-1.12-4-.27,1.71-.7,3.41-.75,5.13-.02.98-.6,2.4,1.08,2.9ZM47.15,143.9c-.5-1.65-.9-2.97-1.3-4.28-1.78,1.3-1.18,3.17-1.15,4.83.02,1.35.43,2.69.66,4.03.62-1.58,1.23-3.16,1.78-4.58ZM45.57,97.75c-.29.91-.83,1.83-.81,2.74.05,1.57.45,3.13.7,4.69.36-1.1.72-2.2,1.15-3.49-.34-1.26-.69-2.6-1.04-3.94ZM44.84,45.49c.1.16.16.39.31.46.13.06.35-.07.55-.12v-.56c-.29.07-.57.15-.86.22ZM45.51,156.92c-.22.92-.62,1.84-.61,2.76,0,1.55.27,3.11.42,4.66.52-1.46,1.04-2.91,1.46-4.09.13-1.55.3-2.76-1.27-3.33ZM46.12,241.81c-.05-.48-.08-1.33-.98-.73-.22.15-.22.76-.14,1.12.06.3.39.54.68.9.21-.58.47-.95.44-1.29ZM45.07,26.08c-.02.29.25.6.41.94.23-.26.59-.49.6-.73.01-.29-.27-.59-.42-.89-.21.23-.57.44-.59.68ZM47.44,205.94c-.19-.34-.47-.83-.75-1.32-.42.58-1.01,1.12-1.19,1.77-.11.38.37,1.28.69,1.33,1.23.19,1.11-.81,1.24-1.78ZM51.87,148.72c-1.99-2.33,1.83-6.53-1.94-7.69-1.09-.33.53,4.9-.73,7.41-.08.16.02.39.04.59.21,2.66-1.16,5.56,1.24,7.91,2.07-2.44.49-5.39,1.39-8.23ZM51.25,186.08c-.25-1.92-.51-3.84-.76-5.76-1.82,2.48-1.38,5.36-1.33,8.09.02,1.35.31,4.28,1.42,3.72,2.34-1.18.33-3.96.67-6.04ZM49.33,23.54c.28.2.63.61.84.55.29-.08.48-.51.72-.79-.3-.22-.68-.64-.82-.58-.31.14-.5.53-.73.82ZM51.15,134.01c.19-.87.71-2.24-.79-2.37-.96-.08-1.03,1.02-.93,1.33.34,1.47.58,3.22.76,3.21,1.57-.04.78-1.38.95-2.17ZM50.15,219.8c.26-.23.52-.46.8-.7-.15-.36-.2-.92-.46-1.04-.84-.39-1.11.21-1.03.85.04.32.45.59.69.89ZM51.53,94.82c-.26-1.43-.59-3.19-.91-4.95-1.37,2.16-.81,4.57-.93,6.88-.05,1.03-.86,3.15.8,2.77,1.79-.41.43-2.85,1.04-4.69ZM51.11,224.26c-.13-.45-.56-.82-.86-1.23-.23.28-.45.57-.78.98.37.39.74.79,1.11,1.19.2-.32.61-.7.53-.94ZM51.18,57.18c-.18-.43-.37-.87-.56-1.3-.27.19-.53.38-.8.57.14.34.19.77.44.95.15.11.6-.14.92-.23ZM49.88,127.26c.16.26.42.47.67.73.15-.33.27-.62.4-.9-.28-.09-.55-.22-.83-.26-.06-.01-.28.35-.24.43ZM49.88,116.3c-.03.61.51,1.2.97.53.36-.52.11-1.45.04-2.19-.02-.22-.32-.41-.57-.71-.17.87-.41,1.61-.44,2.36ZM50.21,174.46c.32-.3.77-.56.9-.93.08-.23-.32-.62-.52-.97-.24.3-.59.55-.64.85-.06.33.17.7.26,1.05ZM49.97,9.31c-.02.56.15,1.12.25,1.68.24-.31.63-.6.68-.94.07-.51-.1-1.04-.2-1.8-.37.51-.72.78-.73,1.06ZM50.18,107.5c.28-.1.81-.2.81-.3-.01-.35-.19-.7-.32-1.12-.25.31-.5.56-.65.86-.06.13.11.37.17.55ZM50.89,240.66c-.26.37-.4.56-.53.75.16.03.31.05.47.08.01-.19.03-.38.06-.83ZM54.6,149.03c.06.45.64.84,1.25,1.56.22-.89.46-1.42.43-1.93-.01-.27-.48-.51-.75-.77-.33.38-.97.8-.93,1.14ZM55.85,21.68c-.04-.38-.09-.76-.13-1.15-.31.11-.82.14-.9.34-.13.31.03.72.07,1.09.31-.09.62-.19.95-.29ZM55.31,142.78c.24.03.49.05.73.08-.03-.16,0-.37-.1-.47-.09-.09-.31-.05-.47-.07-.05.16-.11.31-.16.46ZM58.72,148.46c.22.63.9,1.11,1.38,1.66.27-.44.55-.87.93-1.49-.44-.68-.76-1.75-1.23-1.82-1.1-.16-1.34.88-1.08,1.65ZM60.5,24.34c.03-.31-.29-.67-.45-1-.36.31-.98.59-1.02.94-.06.46.33.98.73,1.97.39-.96.69-1.42.74-1.91ZM60.82,154.66c.02-.34-.02-.69-.04-1.05-.22.04-.57.07-.57.11-.02.34.03.68.07,1.02.19-.03.54-.05.55-.09ZM64.21,9.09c-.07-.01-.5,1-.43,1.49.26,1.63.68,3.24,1.04,4.85.1-1.18.19-2.37.3-3.57-.34-.94,1.26-2.44-.91-2.78ZM68.09,148.58c.04.88.94,1.46,1.7,1,.44-.27.5-1.33.47-2.03-.02-.36-.6-.7-1.25-1.38-.43,1.08-.94,1.75-.92,2.41ZM68.16,138.25c.4.87.55,1.95,1.09,2.19,1.39.6,1.13-.59.99-1.27-.15-.68-.55-1.32-.84-1.97-.38.33-.77.66-1.24,1.06ZM70.19,27.4c-.07-.18-.14-.36-.21-.55-.23.21-.5.4-.68.65-.06.09.14.33.22.51.22-.2.45-.41.67-.61ZM74.24,133.98c-.52.87-1.02,1.35-1.02,1.83,0,.32.75.62,1.16.93.22-.32.64-.65.62-.95-.04-.49-.37-.95-.76-1.81h0ZM74.86,25.04c-.27-.27-.53-.53-.78-.79-.23.24-.48.46-.66.73-.03.04.27.4.38.39.35-.05.69-.2,1.06-.33ZM75.37,8.92c-.19-.46-.46-1.14-.74-1.81-.43.63-1.14,1.24-1.19,1.91-.05.66.51,1.92.89,1.95,1.31.1.62-1.12,1.04-2.04ZM75.59,155.95c-.55-.32-.99-.58-1.43-.84-.25.51-.72,1.04-.67,1.51.04.38.73.69,1.13,1.03.28-.5.57-.99.97-1.7ZM75.31,150.92c.09-.47-.28-1.02-.57-1.91-.46.84-.82,1.31-.95,1.83-.07.29.27.67.42,1.01.39-.3,1.04-.56,1.11-.92ZM74.99,140.7c-.29-.2-.54-.38-.8-.56-.13.28-.28.55-.36.84-.02.06.32.31.39.27.27-.13.49-.34.76-.55ZM74.09,143.96c-.04.17-.16.38-.1.51.05.11.31.14.42.18.16-.14.3-.26.45-.38-.26-.1-.52-.21-.78-.31ZM75.24,16.96c-.19-.22-.48-.37-.77-.57-.08.42-.15.77-.22,1.12.31,0,.63.03.93-.03.06-.01.15-.42.06-.52ZM78.88,156.75c.85-.89,1.56-1.84,1.12-3.11-.07-.19-1.23-.34-1.37-.15-.82,1.1-.64,2.23.25,3.26ZM78.19,143.93c.05,1.17-.01,3.16.52,3.34,1.17.4,1.53-1.12,1.51-1.98-.03-1.12-.57-2.22-1.31-4.77-.46,2.08-.75,2.76-.72,3.42ZM80.11,13.06c-.46-.53-.79-.91-1.12-1.3-.27.25-.75.5-.76.76-.02.54.22,1.09.35,1.63.44-.31.88-.63,1.53-1.1ZM78.6,3.66c.34.14.73.45.99.37.24-.08.33-.58.49-.92-.36-.15-.78-.46-1.01-.37-.25.11-.32.6-.47.92ZM84.86,17.07c-.28-.67-.65-2.31-.99-2.31-1.48.03-.93,1.44-.97,2.23-.04.89.48,2.6.67,2.59,1.44-.08.87-1.4,1.29-2.52ZM83.29,143.38c-.02.28.33.58.52.87.23-.25.46-.5.71-.77-.21-.31-.41-.6-.6-.89-.22.26-.61.51-.62.79ZM83.97,150.93c-.24.44-.65.89-.67,1.34-.02.51.32,1.02.51,1.54.32-.46.64-.91,1.03-1.48-.31-.5-.59-.95-.87-1.4ZM84.29,26.87c-.14-.16-.26-.3-.38-.44-.15.29-.35.57-.44.88-.03.11.2.28.32.43.17-.29.34-.58.5-.87ZM88.03,150.1c1.05.33,1.33-.42,1.47-1.47-.1-.34-.13-1.26-.44-1.35-1.21-.37-1.05.79-1.23,1.39-.14.44-.02,1.36.2,1.44ZM89.71,13.64c-.28-.51-.61-1.11-.94-1.72-.32.91-.76,1.8-.9,2.73-.07.45.48,1.43.67,1.41,1.55-.15.87-1.42,1.17-2.42ZM89.18,156.57c.03-.1-.18-.27-.3-.42-.16.3-.35.58-.44.89-.03.09.19.26.29.39.15-.28.35-.55.45-.86ZM89.11,26.04c.04-.19.08-.38.12-.57-.13-.14-.26-.28-.39-.42-.14.14-.27.27-.4.41.22.2.45.39.67.59h0ZM92.56,153.69c.45,1.19-.58,2.69,1.25,3.2.21-.74.69-1.53.57-2.22-.19-1.05.52-2.51-1.15-3.08-.24.75-.48,1.49-.67,2.1ZM94.44,13.32c-.18-.27-.35-.54-.56-.85-.18.31-.37.58-.48.88-.03.09.24.4.28.38.27-.11.51-.27.76-.41ZM98.49,25.39c-.09-.33-.31-.62-.48-.92-.22.27-.45.54-.67.81.28.2.56.4.84.6.11-.17.35-.37.31-.5ZM98.78,4.88c-.03-.28-.44-.53-.69-.8-.22.26-.62.52-.62.78,0,.25.39.52.63.81.26-.28.71-.56.69-.79ZM103.53,12.39c-.03-.75-.24-1.49-.53-3.1-.33,1.38-.56,1.89-.55,2.41,0,.75.06,2.11.29,2.15,1.37.24.81-.85.79-1.46ZM108.38,12.01c-.06-.21-.51-.32-.81-.5-.09.33-.32.69-.23.95.08.23.52.34.8.5.1-.32.33-.68.25-.96ZM113.59,18.36c-.35-.36-.71-.73-1.06-1.1-.26.28-.78.64-.72.81.18.48.59.88.91,1.31.24-.28.47-.56.87-1.01Z"/>
  <path class="st0" d="M258.94,247.73c-.33.51-1.97.31-3.01.32-7.01.02-14.02.01-21.03.01v.13c-6.99,0-13.98.02-20.98-.02-1.16,0-2.8.77-3.27-.78-.22-.73.47-2.04,1.16-2.65,5.13-4.59,4.29-9.13,2.37-15.38-5.57-18.07-11.49-36.02-17.41-53.97-1.27-3.87-2.52-7.8-4.31-11.46-2.46-5.03-7.51-2.52-11.33-2.64-3.64-.12-2.83,3.29-2.78,5.67.29,12.74,1.78,25.6.47,38.19-1.01,9.68,1.32,19.14-.19,28.67-.64,4.04,2.5,6.22,5.13,8.62,1.54,1.4,2.99,3.08,2.58,5.16-.07.39-3.06.32-4.71.33-13.02.06-26.04.11-39.06.08-1.14,0-2.83.75-3.3-.81-.21-.7.55-2.04,1.29-2.56,8.82-6.26,7.49-15.2,7.38-24.04-.23-19.08-.55-38.19.17-57.25.23-6.19-3.4-8.83-7.02-11.95-3.32-2.87-5.33-5.73-.69-8.44,10.49-6.14,6.96-16.15,7.37-24.67.66-13.83-.38-27.73-.16-41.59.32-20.81.96-41.61-.3-62.42-.35-5.72-5.18-7.55-7.91-11.2-.57-.77-1.97-1.71-1.8-2.1.5-1.16,1.79-.63,2.75-.33,7.22,2.27,15.5-2.69,22.22,3,9.42-5.9,19.66-1.44,29.49-2.11,32.17-2.21,61.87,28.05,59.69,60.06-1.05,15.45,1.25,30.93-.32,46.4-.95,9.37-3.83,18.06-9.07,26.02-.41.63-1.11,1.08-1.68,1.61-.26-.53-.49-1.08-.77-1.6-.49-.89,1.33-2.47-.93-2.82-.11,1-.26,1.99-.31,2.99-.31,6.3-9.12,16.39-16.6,18.92-.94.32-3.38-.4-2.08,1.57,7.09,10.78,8.68,23.41,12.95,35.12,5.35,14.66,9.81,29.64,14.19,44.6,1.61,5.51,7.48,6.42,10.21,10.46.63.93,2.49,1.52,1.61,2.89ZM152.03,162.14c.06.52.34,1.03.52,1.54.25-.22.5-.45.84-.76-.23-.48-.47-.97-.71-1.47-.23.23-.68.49-.65.69ZM152.05,172.99c-.02.52.29,1.04.65,2.15.35-1.03.68-1.53.64-1.99-.04-.53-.41-1.03-.64-1.55-.23.46-.62.92-.65,1.39ZM153.81,230.49c-.12-1.09-.62-2.13-.97-3.2-1.36.58-.47,1.72-.78,2.82.85.54-.89,2.18,1.08,2.43.14.02.74-1.37.67-2.06ZM152.22,66.04c.12.3.33.56.5.84.14-.13.29-.25.43-.38-.18-.28-.37-.56-.55-.84-.14.13-.41.31-.38.38ZM152.9,71.98c.03-.18.07-.36.1-.54-.14-.12-.27-.24-.4-.35-.12.14-.25.27-.37.4.22.16.45.33.67.49ZM152.61,125.69c-.11.13-.31.25-.32.39-.01.15.15.31.23.47.11-.13.23-.26.34-.39-.08-.16-.17-.31-.26-.47ZM153.13,204.35c-.26.17-.69.31-.75.53-.08.28.16.63.26.96.27-.17.54-.35.83-.53-.12-.33-.23-.64-.34-.95ZM153.37,82.95c.13-.17.23-.31.34-.46-.28-.15-.56-.31-.86-.41-.04-.02-.2.26-.3.41.27.15.55.31.82.47ZM152.66,49.59c.06.14.1.32.21.39.07.04.26-.08.39-.13-.06-.14-.1-.32-.21-.4-.07-.05-.26.08-.39.13ZM153.78,154.97c0-.17.07-.37,0-.51-.05-.1-.28-.12-.43-.18-.08.14-.17.28-.25.43.23.08.45.17.68.26ZM153.99,118.49c-.08-.14-.15-.28-.23-.42-.15.05-.37.06-.44.16-.08.11-.03.31-.04.48.24-.07.47-.14.71-.21ZM156.44,116.21c.25,2.62.92,5.19,1.42,7.79.23-1.75.46-3.51.72-5.48-.31-1.73-.64-3.61-.98-5.49-.41,1.06-1.26,2.16-1.16,3.18ZM158.54,225.65c.13-1.41.85-3.2-1.12-4.18-.27,1.33-.54,2.66-.64,3.19.16,2.4-.67,5.16.76,5.16,1.71,0,.87-2.69,1.01-4.17ZM157.65,164.8c-.21,1.12-.6,2.24-.58,3.36.02,1.03-.64,2.34.83,3.04.18-.98.37-1.96.58-3.11-.26-1.03-.55-2.17-.83-3.3ZM157.13,39.64c.03.23.44.41.76.69.12-.68.3-1.26.29-1.84-.01-.55-.24-1.33-.96-.54-.31.34-.17,1.12-.09,1.69ZM158.35,49.88c-.16-.31-.33-.63-.49-.94-.27.36-.64.69-.75,1.1-.05.19.41.5.65.76.2-.3.39-.6.59-.91ZM158.34,76.19c-.23-.23-.54-.55-.85-.86-.1.53-.31,1.07-.27,1.59.03.39.37.76.58,1.14.16-.54.31-1.08.54-1.87ZM157.25,7.71c.05.34.1.69.17,1.11.25-.22.5-.38.65-.6.08-.12.01-.48-.05-.5-.25-.05-.51-.01-.78,0ZM157.74,18.88s-.47.17-.47.27c0,.31.11.63.17.94.34-.13.68-.26,1.05-.4-.26-.3-.48-.58-.75-.81ZM158.65,146.43c.04-.2-.42-.5-.65-.75-.23.27-.62.53-.65.82-.03.24.36.53.58.81.26-.29.66-.55.73-.88ZM157.86,95.47c-.16.09-.46.19-.45.28.01.38.12.75.19,1.12.16-.1.46-.19.46-.29,0-.37-.1-.74-.19-1.11ZM158.13,138.36c.12-.16.37-.4.33-.45-.18-.25-.44-.45-.67-.67-.11.16-.22.32-.34.49.23.21.45.42.68.63ZM161.51,92.42c-.06.49.42,1.04.85,1.96.47-.68.98-1.09.97-1.48-.01-.52-.43-1.03-.67-1.55-.41.35-1.1.67-1.15,1.07ZM161.63,142.84c.02.73.47,1.45.75,2.17.34-.37.88-.7.96-1.12.14-.7-.02-1.45-.09-2.86-.91.98-1.62,1.41-1.61,1.81ZM163.69,83.22c-.36-.51-.67-.96-.98-1.4-.31.44-.81.84-.9,1.32-.13.71-.04,1.62,1.05,1.48.32-.04.53-.86.83-1.39ZM162.07,34.38c.15.32.47.56.72.84.11-.36.22-.73.33-1.1-.21-.31-.41-.89-.61-.89-1.04,0-.66.68-.44,1.16ZM161.85,172.84c-.12.72.47,2.22.55,2.21,1.64-.25.27-1.56.84-2.22-.1-1.04-.19-2.04-.29-3.03-1.5.62-.92,2.01-1.09,3.04ZM162.45,118.36c-.2.99-.63,1.99-.54,2.96.14,1.65.6,3.28.93,4.92.17-1.18.34-2.36.55-3.8-.98-1.11,1.13-2.93-.94-4.08ZM163.29,232.47c-.35-2.15.49-4.16-.89-5.86-.16.98-.49,1.97-.43,2.93.15,2.61.48,5.21.73,7.81.21-1.72.41-3.44.59-4.88ZM163.19,184.27c0-.96.06-1.68-.03-2.39-.05-.34.03-1.46-.79-.59-.43.45-.33,1.43-.32,2.17,0,.2.52.39,1.13.81ZM163.5,219.67c0-.28-.44-.57-.69-.85-.25.29-.68.57-.69.86,0,.28.42.58.68.89.27-.31.7-.6.71-.9ZM162.4,27.05c-.03.11.18.29.28.43.15-.29.3-.57.44-.85-.11-.17-.2-.32-.3-.47-.15.29-.33.58-.42.89ZM163.03,189.62c-.07-.09-.29-.06-.45-.09-.06.17-.11.33-.17.5.24.03.47.06.71.09-.03-.17,0-.38-.1-.5ZM166.53,139.76c.28-.13.56-.25.83-.38-.01-.17-.02-.35-.04-.52-.28.12-.59.21-.82.38-.08.06.01.34.03.52ZM168.54,86.06c-.24-1.15-.35-2.05-1.46-1.85-.26.05-.56.96-.48,1.4.14.71.59,1.37.9,2.05.39-.61.79-1.22,1.03-1.6ZM168.23,238.41c-.14-.66-.76-1.22-1.17-1.82-.16.67-.45,1.35-.43,2.02.02.67.36,1.34,1.02,3.49.4-2.28.74-3.04.59-3.7ZM167.03,149.54c.11-.12.22-.25.34-.37-.08-.16-.12-.38-.24-.44-.12-.06-.33.06-.5.11.14.24.27.47.4.71ZM166.63,158.87l.47-.02-.22-.39-.26.41ZM166.75,187.16c.35-.04.7-.07,1.06-.11-.16-.3-.27-.6-.47-.83-.06-.07-.5,0-.52.07-.08.28-.06.58-.08.87ZM168.41,191.86c-.12-.34-.24-.66-.35-.99-.36.27-.73.54-1.09.81.22.26.4.65.67.73.18.05.5-.35.77-.56ZM168.17,218.36c-.09-.38-.18-.76-.26-1.15-.32.13-.83.19-.9.39-.1.31.1.72.17,1.08.33-.11.65-.21.99-.33ZM168.04,176.72c-.02-.19-.03-.38-.04-.56-.33.03-.67.05-.99.13-.03,0,.02.34.03.52.34-.03.67-.05,1.01-.08ZM167.1,170.33c.04.28.42.5.68.78.18-.3.51-.59.47-.82-.05-.28-.43-.5-.66-.74-.18.26-.52.55-.49.78ZM167.17,77.85l.3.25.09-.39-.39.14ZM167.2,43.76c-.02.32.03.64.06.96.26-.2.54-.39.76-.62.03-.04-.19-.3-.29-.45-.19.04-.53.07-.53.12ZM168.09,229.19c-.29.06-.8.08-.83.2-.07.32.07.68.12,1.03.28-.06.56-.12.85-.18-.05-.35-.1-.7-.15-1.04ZM167.87,104.11c-.02-.16-.05-.32-.07-.49-.14.18-.27.36-.4.54.16-.02.31-.04.47-.05ZM171.17,148.52c.18.27.46.48.71.71.14-.32.29-.63.44-.96-.33-.09-.63-.21-.94-.24-.05,0-.26.4-.2.49ZM171.23,35.59c.15.45.44.85.69,1.27.23-.28.46-.56.7-.85-.19-.33-.38-.64-.56-.95-.29.18-.85.44-.83.53ZM174.22,205.08c-1.56-1.21-2.01-1.56-2.46-1.91-.17.35-.54.74-.47,1.03.13.5.45,1.21.86,1.34.48.15,1.13-.22,2.07-.45ZM171.37,120.47s.31.06.47.1c.06-.31.13-.62.16-.93,0-.03-.3-.07-.48-.12-.06.32-.13.63-.15.95ZM171.76,168.95c.17-.25.33-.5.49-.76-.13-.11-.26-.23-.39-.34-.16.25-.34.49-.45.75-.02.06.23.23.35.34ZM171.85,88.57c.09-.17.19-.34.3-.52-.13-.31-.27-.62-.4-.94-.08.17-.26.36-.23.52.05.32.21.62.33.93ZM172.35,222.37c-.26-.09-.51-.18-.77-.26,0,.18-.08.39,0,.52.06.11.3.13.46.19.1-.15.2-.3.31-.44ZM172.31,130.75c-.25.44-.57.87-.71,1.34-.03.13.5.4.98.76.22-.56.5-1.02.53-1.49.01-.18-.52-.41-.8-.61ZM171.71,191.03c-.1.15.27.57.43.86.41-.29.82-.58,1.23-.87-.26-.47-.42-.77-.58-1.07-.37.35-.82.65-1.08,1.07ZM175.74,146.1c.16.5.55.94.9,1.48.38-.45.88-.83.81-1.01-.17-.46-.6-.83-.92-1.23-.28.26-.84.6-.79.77ZM176.09,49.17c.16.27.4.49.64.76.19-.3.35-.56.51-.82-.28-.11-.56-.26-.86-.32-.07-.02-.33.33-.29.39ZM177.88,152.25c-.42-.59-.72-1.01-1.02-1.42-.26.26-.72.52-.72.79,0,.5.25,1.01.39,1.52.4-.26.79-.52,1.35-.88ZM177.2,187.87c-.2-.25-.39-.51-.63-.73-.02-.02-.28.18-.44.29.2.25.4.49.6.73.15-.1.31-.2.46-.29ZM177.44,159.04c-.24-.21-.49-.41-.74-.62-.13.34-.38.69-.35,1.02.02.21.45.39.69.58.14-.33.27-.65.39-.99ZM176.37,28.43c.14.24.35.44.54.66.1-.14.19-.27.3-.43-.18-.2-.36-.41-.54-.62-.1.13-.32.32-.29.38ZM176.44,131.83c.03.16.06.31.1.45.15,0,.37.06.43-.01.1-.11.08-.3.12-.46-.22,0-.43.01-.65.02ZM220.61,99.25c-.21-11.58-.06-23.17-.04-34.75.02-13.63-3.58-25.39-17.86-31.46-7.16-3.04-14.83-2.1-22.33-1.91-2.37.06-.96,2.07-1.07,3.34-1.17,13.77.53,27.59-.21,41.28-.95,17.62,1.29,35.22-.58,52.79-.2,1.89.64,3.44,2.65,3.52,8.67.34,17.47-.4,25.11-4.11,4.25-2.06,2.8-.14,3.1,1.81.57,3.79-1.77,8.12,2.18,11.31-.81-6.39-2.76-13.69,1.31-18.75,5.73-7.13,7.89-14.46,7.74-23.07ZM182.51,137.15c.06-.18-.39-.52-.73-.95-.32.52-.67.93-.8,1.39-.05.17.46.48.71.72.29-.38.67-.74.81-1.16ZM187.12,139.61s-.16-.29-.25-.44c-.15.09-.31.19-.43.26v.6c.23-.13.48-.25.68-.41ZM190.7,14.67l.38.06-.14-.45-.24.39ZM192.06,141.18c-.17-.08-.35-.24-.5-.22-.18.02-.34.2-.51.31.26.14.51.28.77.41.08-.17.16-.34.24-.5ZM196.59,141.63c0-2.04.06-2.98-.03-3.91-.04-.33-.05-1.52-.87-.57-.46.53-.5,1.5-.49,2.27,0,.42.49.83,1.4,2.2ZM195.82,19.61l.35.06-.13-.41-.22.34ZM196.88,148.4c-.07-.15-.12-.36-.24-.42-.13-.06-.33.05-.5.09.13.22.26.44.38.65.12-.11.24-.22.36-.32ZM200.77,134.66c-.18-.04-.67,1.22-1.06,1.94.66,1.01-.19,2.45,1.36,3.05.23-.73.71-1.48.62-2.17-.13-.98.85-2.44-.92-2.82ZM206.53,177.5c-.37-.51-.7-.95-1.03-1.39-.16.44-.5.92-.43,1.33.09.54.51,1.02.79,1.53.2-.46.41-.92.66-1.47ZM205.81,154.12c.22-.27.46-.52.63-.82.03-.05-.3-.41-.38-.39-.34.1-.66.29-.98.45.24.25.49.5.73.75ZM211.56,141.12c-1.92,2.59-3.34,5.26-1.25,8.39.42-2.8.84-5.6,1.25-8.39ZM211.48,158.53c-.4-2.9-.8-5.81-1.18-8.73-.56,2.89-1.38,5.78-.24,8.7.06.16.93.02,1.42.03ZM211.28,182.86c-.34-.12-.65-.26-.97-.29-.1-.01-.36.37-.32.44.16.27.42.5.64.74.22-.29.43-.58.65-.89ZM215.68,218.11c-.19-.32-.37-.62-.55-.92-.26.24-.69.45-.74.73-.05.25.32.56.5.85.26-.22.52-.43.79-.66ZM215.75,154.06c-.04-.21-.62-.34-.95-.5-.13.53-.35,1.06-.35,1.59,0,.17.6.33,1.14.61.08-.64.25-1.19.16-1.69ZM215.19,148.93c.15-.52.43-1.04.43-1.56,0-.47-.3-.94-.68-2.01-.23,1.18-.45,1.72-.39,2.23.05.47.42.89.65,1.34ZM215.92,130.1c-.26-.54-.49-1.02-.71-1.5-.22.44-.62.88-.63,1.32-.01.51.31,1.03.49,1.55.27-.43.54-.87.85-1.37ZM215.26,184.97c.09-.34.18-.69.26-1.04-.21-.09-.42-.18-.63-.27-.03.18-.15.4-.09.55.1.27.31.51.47.76ZM215.69,209.56l-.06-.44-.36.32.42.13ZM220.23,135.34c1.91-2.57.11-5.42.72-7.95-.3-2.62-.57-5.1-.85-7.57-.22,2.54-.66,5.09-.6,7.62.06,2.63-1.49,5.45.73,7.9ZM221.06,213.62c-.28-1-.59-2.39-.68-2.38-1.45.21-.93,1.44-.97,2.25-.03.66.5,1.34.77,2,.31-.66.62-1.33.87-1.87ZM220.88,140.23c-.02-.21-.84-.33-1.3-.49-.07.52-.27,1.08-.17,1.57.09.44.52.81,1.18,1.75.17-1.37.37-2.12.28-2.83ZM224.1,135.54c-.04.28.31.62.5.93.3-.18.6-.35.91-.54-.19-.33-.37-.65-.55-.96-.31.19-.83.34-.86.57ZM224.24,100.36c.07,1.14.43,2.25.66,3.38,1.42-.66.64-2.03,1.2-3.27-.24-.65-.52-2.22-.85-2.23-1.51-.04-1.07,1.3-1.02,2.12ZM224.99,113.74c.27-.45.62-.76.58-1.02-.07-.55-.34-1.08-.52-1.62-.23.27-.67.56-.64.81.06.57.34,1.11.59,1.83ZM224.6,118.98c.13.31.26.61.41.96.28-.25.56-.44.75-.7.06-.07-.14-.46-.21-.46-.32.02-.63.12-.95.2ZM225.57,212.57c-.18-.3-.36-.6-.54-.89-.12.32-.34.64-.32.95.02.31.29.61.45.91.14-.31.27-.63.41-.96ZM228.67,127.97c-.03,1.13-.29,2.39.99,3.07.08.04.8-1.01.97-1.24.02-1.62.39-3.08-1.08-3.45-1.14-.29-.87.96-.89,1.62ZM228.72,115.77c.07.93.62,2.66.76,2.64,1.5-.2.15-1.47.73-2.07-.15-.93.41-2.03-.87-2.55-.22.66-.66,1.34-.61,1.99ZM228.75,45.74c.11.29.33.53.5.8.17-.29.33-.59.48-.9-.27-.13-.53-.26-.8-.39-.07.17-.24.37-.19.49ZM229.19,205.17c.27-.23.54-.46.81-.69-.26-.26-.46-.47-.66-.67-.12.13-.36.27-.36.4.01.32.14.64.21.96ZM229.52,96.71c.1-.12.21-.24.31-.36-.07-.15-.11-.36-.23-.42-.11-.05-.31.06-.46.1.13.22.26.45.38.67ZM229.15,99.7c.04.4.32.77.5,1.15.29-.24.59-.48.87-.73-.13-.29-.27-.59-.4-.88-.34.16-.98.34-.97.46ZM230.12,89.92c-.23.18-.48.35-.69.55-.03.03.17.26.27.4.24-.17.49-.33.7-.53.03-.02-.17-.26-.28-.42ZM230.58,224.15c-.14-.1-.28-.2-.45-.33-.2.23-.4.47-.59.7.15.09.4.3.45.26.23-.18.4-.41.6-.63ZM229.9,218.21c.33.17.65.34.98.52-.16-.17-.31-.35-.49-.5-.1-.08-.33-.02-.49-.02ZM234.94,215.44c.1-.24-.25-.66-.39-.99-.64,1.16-1.22,2.34-1.93,3.45-.28.44-.77.75-1.21,1.1,3.65,1.1,2.86-1.93,3.53-3.56ZM234.36,132.08c2.26-3.36.21-7.04,1.05-11.19-2.15-2.79,1.56-6.77-1.26-10.15-.34,3.57-1.04,7.14-.91,10.69.13,3.55-.69,7.25,1.12,10.65ZM233.57,81.17c.08.48.42.93.65,1.39.24-.27.67-.54.67-.8,0-.48-.27-.95-.48-1.56-.4.44-.87.74-.84.97ZM234.37,97.97c-.47,1.9-.79,2.64-.78,3.37,0,.43.53.86.82,1.29.23-.73.55-1.45.65-2.2.06-.41-.23-.88-.69-2.46ZM235.06,230.28c-.07-.48-.52-.91-1.23-2.06,0,1.56-.04,2.3.01,3.04.04.51.06,1.38.9.68.35-.29.4-1.12.31-1.66ZM233.9,61.82c0,.16.06.33.1.5.2-.16.4-.32.61-.49-.19-.17-.38-.33-.57-.5-.05.16-.13.33-.14.49ZM234.76,222.85c-.28,0-.56.09-.84.14.1.3.2.6.32.94.27-.23.54-.41.73-.65.05-.06-.14-.42-.22-.42ZM238.08,106.59c.41.18.92.47,1.47.58.14.03.64-.64.57-.85-.18-.47-.61-.85-.94-1.26-.22.3-.43.61-1.1,1.53ZM238.67,98.88c.08.25.48.4.74.6.1-.33.21-.67.29-1.01-.26-.17-.52-.33-.78-.5-.1.31-.33.66-.25.92ZM239.72,220.59c.08-.5-.06-1.04-.13-1.79-.41.47-.8.72-.81.97-.02.56.16,1.13.26,1.69.24-.29.63-.56.68-.88ZM238.8,91.57c.09.46.17,1.29,1.01.66.21-.15.18-.75.07-1.08-.09-.26-.49-.43-.78-.66-.12.4-.35.76-.29,1.08ZM238.83,111.41c.08.27.41.46.65.71.15-.39.47-.81.36-1.05-.15-.32-.64-.49-.98-.72-.02.36-.13.74-.03,1.06ZM240.12,124.39c-.22-.39-.47-.84-.73-1.28-.2.31-.59.63-.56.91.05.48.37.93.57,1.39.21-.29.41-.58.72-1.02ZM239.04,55.46l.4.03-.18-.5-.23.48ZM239.12,80.45c-.07.15-.02.34-.02.52.15-.02.31-.03.45-.05v-.53c-.15.02-.4,0-.43.06ZM243.17,124.72c.47-.19.94-.38,1.63-.67-.43-.61-.73-1.02-1.03-1.44-.33.36-.77.68-.95,1.1-.1.25.22.66.35,1ZM243.39,113.45c.16.06.32.11.48.17,0-.25,0-.51-.01-.76-.16.04-.38.03-.46.13-.08.1-.02.3,0,.46ZM243.87,59.73c.26-.07.51-.14.76-.21-.09-.15-.17-.31-.25-.46-.17.05-.41.05-.48.15-.09.13-.03.34-.03.52ZM248.13,90.45l.44.13-.13-.52-.31.39Z"/>
  <path class="st0" d="M392.96,148.91c-13.15,6.86-8.19,18.72-8.96,28.87-.71,9.31.64,18.65-.88,28.03-1.79,11.07-7.01,20.09-15.08,27.84,0,0,.01,0,.02,0-8.58,10.61-35.23,16.95-48.78,12.66-12.88-4.07-23.07-9.69-30.74-19.98-6.94-9.31-9.65-19.92-8.41-31.15,1.43-13.08-1.23-26.17.83-39.22.89-5.61-2.09-.41-3.17-.72-5.42-1.57-9.1-10.58-4.55-13.41,9.91-6.16,6.37-14.33,6.5-22.76.17-11.34.28-22.69.33-34.03.05-11.29.22-22.58-.13-33.86-.42-13.58,4.06-25.15,14.26-34.54,1.02-.94,1.85-6.2,4.9-1.15.59.97.62-.41.7-.71,2.9-10.97,13.78-10.32,21.78-12.86,7.14-2.26,15.53-2,22.68.59,13.03,4.71,23.94,11.08,31.89,23.97,11.49,18.64,6.46,37.89,7.63,56.89,1.01,16.45.3,33.01.27,49.52,0,5.36,5.12,7.14,7.8,10.61,1.37,1.77,4.26,3.75,1.12,5.39ZM280.74,143.99c-.24,0-.48,0-.72.01.04.17.08.34.11.51.16,0,.4.06.47-.02.11-.12.09-.33.13-.51ZM285.86,203.47c-.02-.45-.59-.87-.92-1.3-.34.37-.67.75-1.08,1.19.51.64.87,1.09,1.23,1.53.28-.48.78-.96.76-1.43ZM284,88.55c.24.63.79,1.15,1.22,1.71.28-.42.57-.83.9-1.32-.37-.54-.68-.99-.99-1.44-.4.35-1.21.85-1.14,1.04ZM286.31,152.04c-.82-1.91.84-4.07-1.27-5.5-.99,1.39-1.14,2.85-.91,4.54.25,1.9-.33,3.94,1.44,5.45.26-1.55.51-3.1.74-4.49ZM284.51,137.58c.06.44.6.82.93,1.23.21-.33.42-.67.72-1.15-.29-.41-.62-.87-.94-1.33-.26.42-.76.87-.71,1.25ZM286.13,120.77c-.29-.67-.52-1.18-.74-1.69-.28.46-.77.92-.79,1.4-.02.49.4,1.01.63,1.51.3-.4.6-.81.9-1.22ZM284.9,108.37c.05.99.25,1.98.39,2.97.18-.83.36-1.65.54-2.44-.11-.8-.22-1.55-.32-2.29-1.4.19-.64,1.14-.61,1.76ZM284.8,73.77c-.06.52.25,1.08.4,1.62.33-.59.66-1.18.85-1.52-.26-.97-.4-1.54-.55-2.11-.24.67-.62,1.33-.7,2.01ZM285.26,131.41c.24-.27.61-.49.63-.74.02-.28-.28-.58-.44-.87-.23.23-.62.44-.65.68-.02.28.28.59.46.92ZM285.9,166.14c-.12-.34-.24-.69-.36-1.03-.19.24-.52.47-.54.72-.03.33.18.68.28,1.03.2-.24.41-.47.62-.72ZM285.09,81.32c-.03.14.1.31.2.57.08-.33.14-.57.2-.81-.14.08-.37.14-.39.24ZM291.25,159.87c-.23-1.22-.71-2.04-1.67-1.54-.53.28-.79,1.31-.86,2.03-.07.67-.08,1.96.98,1.62.75-.24,1.14-1.51,1.55-2.11ZM291.33,143.78c-.69-.53-1.1-.85-1.52-1.16-.37.55-.92,1.07-1.05,1.68-.06.28.65.73,1.01,1.1.47-.49.95-.98,1.56-1.62ZM288.92,179.98c-.08.1.35.57.67,1.08.43-.45.87-.79,1.11-1.24.08-.16-.36-.56-.56-.86-.42.33-.9.62-1.22,1.02ZM290.07,56.65c.39-.25.49-1.05.54-1.62.02-.21-.47-.47-.84-.81-.25.54-.6,1.05-.71,1.6-.14.69.25,1.3,1.01.83ZM290,173.52c.28-.56.62-1.02.73-1.53.05-.21-.38-.53-.6-.79-.33.47-.72.93-.95,1.45-.06.13.43.47.81.88ZM290.9,212.29c-.18-.31-.54-.92-.9-1.53-.28.24-.81.5-.8.72.04.57.17,1.23.52,1.65.55.66.97.33,1.18-.85ZM290.71,61.21c-.17-.32-.25-.78-.5-.89-.24-.1-.65.15-.98.25.22.41.44.81.66,1.22.27-.19.54-.38.82-.58ZM290.16,93.69c-.27.4-.85.88-.76,1.2.27,1.02.79,1.98,1.21,2.96.24-.52.6-1.01.68-1.55.14-.94.25-1.95-1.12-2.61ZM290.75,111.17c-.34-.06-.65-.16-.96-.15-.11,0-.32.39-.28.43.22.24.5.42.76.62.16-.3.32-.59.48-.9ZM290.2,85.81c-.17.34-.47.68-.47,1.02s.3.71.46,1.06c.27-.2.54-.41.94-.71-.31-.45-.62-.91-.93-1.37ZM290.26,118.45c-.15.3-.31.59-.43.9,0,.02.31.16.48.24.15-.3.31-.59.42-.89.01-.03-.29-.15-.47-.25ZM293.51,97.87c-.04.91-.24,2,1.04,2.45,1.29-.49,1.07-1.57.98-2.49-.08-.91.23-2.43-1.08-2.39-1.26.03-.9,1.53-.94,2.43ZM293.87,142.92c.06,1.21-1.28,2.8.72,3.69.41-1.29.82-2.58.89-2.81.13-2.28.76-4.28-.55-4.25-1.99.04-1.12,2.18-1.06,3.37ZM293.68,80.82c.36.3.75.62,1.14.94.19-.31.61-.72.53-.92-.21-.46-.67-.82-1.02-1.22-.18.33-.35.66-.64,1.19ZM293.69,154.93c.13.51.47.96.72,1.44.26-.27.73-.53.73-.8.01-.46-.27-.92-.48-1.51-.48.42-1.02.71-.98.87ZM293.78,162.98c.27.43.54.86.82,1.29.26-.26.52-.53.79-.81-.21-.34-.34-.82-.63-.94-.22-.09-.64.29-.97.45ZM294.94,131.34c-.8-.51-1.01.12-1.03.71-.01.35.22.72.35,1.07.28-.23.56-.46.85-.71-.05-.37.04-.94-.16-1.07ZM295.27,207.75c-.12-.3-.32-.56-.5-.84-.24.21-.47.42-.73.65.29.19.57.4.87.54.05.02.38-.29.35-.36ZM295.4,106.34c-.29-.24-.58-.48-.88-.72-.17.28-.51.62-.44.84.08.28.51.45.78.68.18-.26.35-.53.54-.8ZM294.51,171.68c-.15.09-.43.23-.42.26.12.29.28.56.44.84.14-.1.29-.2.43-.3-.15-.27-.3-.53-.45-.8ZM294.77,88.14c-.21.23-.45.45-.6.71-.04.07.22.42.31.41.31-.05.61-.19.94-.31-.22-.28-.43-.54-.65-.81ZM294.26,48.94c.1.28.29.54.45.8.24-.19.48-.38.74-.58-.3-.21-.57-.41-.86-.56-.04-.02-.35.26-.33.34ZM295.88,178.72c-.17-.32-.34-.64-.53-.99-.34.17-.83.26-.94.51-.13.27.09.69.16,1.04.44-.19.88-.38,1.31-.56ZM298.2,132.94c.35.65.87,1.22,1.31,1.82.32-1.12.76-2.23.94-3.37.12-.77-.14-1.58-1.29-1.53-1.11.8-1.64,1.8-.95,3.08ZM298.4,145.6c.48,1.31-.59,2.91,1.4,3.06.18.02.74-1.41.65-2.11-.14-1.1-.67-2.16-1.04-3.24-.37.84-.74,1.68-1.02,2.29ZM299.46,154.34c-.97-.26-1.23,1.46-.9,2.37.61,1.67-1.07,4.12.95,4.87.82.3.23-2.36.52-3.64-.33-1.22,1.57-3.01-.57-3.59ZM298.78,112.96c.77-1.38,1.14-1.79,1.2-2.23.07-.53-.12-1.09-.19-1.64-.41.22-1.13.39-1.19.68-.14.67.05,1.4.19,3.18ZM299.57,170.14c-.28-.05-1.09.78-1.02,1.04.24.86.77,1.65,1.19,2.46.22-.52.45-1.03.51-1.17.07-1.17.47-2.11-.68-2.33ZM298.66,100.97c-.02.67.54,1.35.84,2.03.32-.7.89-1.39.9-2.09.1-4.54.27-9.09-1.15-13.54-.21,4.54-.46,9.07-.59,13.61ZM298.76,119.05c.22.81.46,1.7.7,2.59.32-1.1.8-2.19.92-3.31.08-.74-.37-1.53-.59-2.29-1.76.54-.28,2.04-1.03,3.01ZM299.78,216.32l-.36-.46c-.14.13-.28.26-.42.39.22.21.43.43.65.64.04-.19.09-.38.13-.57ZM299.01,23.25c.02.29.38.55.59.83.15-.35.31-.71.44-1.07-.22-.27-.43-.53-.65-.8-.14.35-.41.71-.39,1.04ZM300.07,63.63c-.22-.22-.53-.37-.83-.56-.08.36-.15.7-.22,1.05.31.02.63.06.93.02.07-.01.19-.43.12-.5ZM299.17,54.11c.2-.04.52-.07.52-.09-.01-.37-.06-.74-.11-1.12-.17.03-.49.06-.49.09,0,.37.05.74.08,1.12ZM299.61,183.83c.04-.33.09-.66.1-.99,0-.02-.31-.06-.5-.09-.04.33-.09.66-.09.99,0,.03.31.06.48.09ZM299.66,84.45c-.16.03-.46.05-.46.07,0,.82.02,1.63.04,2.45.14-.84.28-1.68.42-2.52ZM305.22,130.19c-.43-.62.55-2.01-.99-2.14-.21-.02-.68,1.29-.78,2.01-.12.9-.33,2.22,1.15,2.14,1.02-.05.89-1.11.63-2.02ZM303.58,30.58c.4,1.16-.93,2.72.93,3.55.24-1.5.61-3,.68-4.52.04-.89-.4-1.8-.62-2.7-1.82.86-.77,2.41-.99,3.67ZM305.4,121.2c-.28-.54-.69-1.35-1.1-2.16-.26.48-.75.97-.72,1.44.05.92.15,2.43.67,2.63,1,.38.99-.81,1.15-1.9ZM305.15,142.09c-.18-.69-.46-1.75-.74-2.82-.23,1.32-.53,2.64-.65,3.97-.07.71.17,1.45.28,2.18,1.88-.47.76-1.9,1.11-3.33ZM303.9,107.79c.07.58.39,1.12,1.08.55.21-.17.24-.7.14-1-.07-.22-.5-.33-.78-.51-.17.34-.47.67-.44.96ZM304.26,98.38c.13-.11.34-.19.37-.32.03-.13-.13-.3-.2-.45-.13.11-.34.21-.37.35-.03.11.13.28.2.42ZM304.94,230.05c-.12-.14-.24-.28-.36-.43-.18.26-.4.5-.5.79-.03.09.22.28.34.43.18-.26.35-.52.53-.79ZM304.15,20.28c-.02.08.22.24.34.36.15-.27.29-.54.43-.79-.13-.14-.25-.27-.36-.39-.14.27-.32.54-.4.83ZM308.12,16.47c.22,2.94.51,5.89.78,8.83,2.57-1.3.76-3.56,1.4-5.34-.75-1.99,1.11-4.77-1.6-5.97-.88-.39-.65,1.56-.58,2.47ZM309.33,133.76c-.46.02-1.09,1.03-1.27,1.69-.11.4.38,1.25.8,1.42,1.31.52,1.07-.69,1.35-1.32-.04-.74.29-1.82-.89-1.78ZM309.43,35.63c-.48.09-1.24.31-1.3.59-.09.43.33.95.69,1.82.54-.7.97-1.06,1.11-1.51.08-.25-.38-.92-.49-.91ZM352.88,107.27c0-18.95-.26-37.9-.1-56.85.05-6.15-5.71-10.54-4.84-16.77-4.83,1.95-4.55-1.04-4.43-4.11.05-1.16-.45-2.35-.69-3.52-1.88.8-.32,2.51-1.03,3.64-.61.97.34,2.95-1.36,3.03-2,.09-1.99-1.73-1.98-3.17.02-3.87.14-7.74.08-11.61-.01-.86-.61-1.71-.93-2.56-.24.94-.66,1.89-.7,2.84-.15,3.45-.13,6.9-.3,10.35-.04.73-.61,1.44-.93,2.16-.44-.3-1.16-.53-1.28-.92-1.03-3.54-5.58,2.67-6.1-2.06-2.5,4.14-7.58,5.2-10.89,8.64-10.31,10.68-6.68,23.95-6.87,35.95-.16,10.02-.08,20.14-.31,30.21l.13-.03c-1.97,1.58-2.05,3.57-1.32,5.72.26.11.51.23.77.34.42,1.12,1.16,2.22,1.22,3.36.72,14.23-.71,28.44.11,42.71.84,14.62.14,29.33.09,44-.04,11.16,8.53,19.36,20.56,19.65,10.14.25,20.4-8.89,20.67-18.71.27-9.57.23-19.14.26-28.71.08-21.19.16-42.39.16-63.59ZM310.12,28.98c-.02-.22-.51-.4-.78-.6-.17.35-.33.69-.51,1.07.31.21.61.41.91.61.14-.36.42-.74.38-1.08ZM313.85,12.85c.31-.05.48-.96.76-1.58-.35-.47-.67-.89-1-1.32-.3.45-.82.89-.85,1.35-.03.66-.12,1.73,1.08,1.54ZM313.87,36.29c.06.02.5-1.37.82-2.27-.35-.8-.71-1.65-1.08-2.49-.28.65-.92,1.38-.77,1.92.27.98-.64,2.42,1.03,2.84ZM313.71,19.11c-1.55-.11-.6,1.96-.61,3.03,0,1.11.39,3.2.53,3.19,2.27-.1.67-1.71,1.02-2.66-.63-1.18,1.04-3.42-.94-3.56ZM314.2,229.71c-.05-.29-.1-.6-.15-.92-.26.13-.55.23-.77.41-.08.07,0,.47.04.48.27.05.56.02.87.02ZM317.62,19.99c.2,3.09.43,6.47.66,9.87,2.4-3.2,1.07-6.82,1.12-10.25.06-3.41-.35-6.83-.55-10.24-2.83,3.22,0,6.92-1.23,10.62ZM318.98,236.85c-.04-.35-.18-.68-.29-1.03-.16.14-.43.27-.42.38.05.34.19.67.3,1.01.14-.12.42-.25.41-.35ZM323.69,21.41c1.54-2.24.59-4.74.57-7.07-.02-2.42,1.31-5.12-.83-7.35-1.57,2.29.12,4.82-.69,7.38,1.53,2.09-1.96,4.9.95,7.03ZM327.21,19.23c-.08,1.17-.15,2.58,1.58,2.68.18.01.46-1.75.69-2.64-.3-.98.28-2.5-1.19-2.5-1.53,0-1.01,1.56-1.08,2.45ZM328.2,11.79c.25.07.61-.23.95-.38-.16-.33-.31-.63-.45-.94-.31.16-.77.26-.9.51-.09.18.19.75.4.81ZM328.34,5.58c.07.3.23.57.35.86.12-.11.35-.24.34-.31-.06-.3-.21-.6-.34-.93-.15.15-.38.3-.35.39ZM332.04,14.4c.16,2.72.57,5.44.89,8.16,2.19-.99-.16-2.93.95-4.15.38-2.2.77-4.64-1.01-6.2-.68-.59-.88,1.44-.83,2.19ZM332.05,7.17c.14.32.19.78.43.91.2.1.62-.2.94-.32-.2-.42-.4-.83-.6-1.25-.25.21-.5.43-.76.66ZM337.18,8.65c0,.23.43.47.66.7.16-.49.41-.97.45-1.47.02-.24-.38-.49-.72-.89-.16.64-.38,1.15-.38,1.66ZM337.92,236.01l-.35.15.27.31.09-.46ZM342.65,20.53c1.33.22,1.08-2.32.88-3.57-.26-1.64,1.19-4.56-.94-4.66-2.34-.11-.28,2.54-.78,3.89.49,1.48-1.94,3.87.84,4.34ZM343.6,221.2c-.29-.3-.62-.63-.95-.97-.16.33-.5.71-.43.98.11.41.52.74.8,1.11.16-.32.33-.64.58-1.12ZM343.32,229.12c-.11-.33-.23-.67-.34-1.02-.23.25-.49.46-.64.73-.07.12.08.35.13.53.28-.08.57-.16.85-.24ZM343.05,242.63c-.12-.15-.24-.31-.36-.46-.02.18-.08.36-.06.52.05.3.14.6.22.9.07-.32.14-.63.21-.96ZM346.28,26.82c-.03.63.61,1.84.93,1.83,1.65-.04.95-1.38,1.19-2.67-.18-.35-.61-1.58-.85-1.54-1.35.19-1.24,1.48-1.28,2.38ZM348.16,235.02c-.17-.5-.71-.87-1.16-1.36-.25.45-.63.84-.55,1.06.21.52.64.95.99,1.42.26-.38.82-.85.72-1.11ZM346.78,15.62c.09.47.61.86,1.18,1.58.22-.83.55-1.37.43-1.8-.12-.43-.68-.75-1.04-1.12-.21.45-.64.93-.56,1.34ZM353.53,20.44c-.4-2.09,1.02-5.27-1.44-5.99-1.55-.45-.62,2.53-1.1,4.3.95,1.98-.44,4.72,1.47,6.89,1.21-1.57,1.42-3.4,1.07-5.2ZM355.74,31.42c.18.76.32,1.91.84,2.14,1.24.54,1.13-.72,1.2-1.38.1-.93.25-1.98-.94-2.51-1.01.22-1.31.9-1.11,1.75ZM357.9,87.09c-.29-.39-.72-.94-1.14-1.5-.29.47-.84.96-.81,1.42.04.71.36,1.91.75,1.99,1.13.22.91-.9,1.2-1.91ZM357.45,154.05c-.12-.78.95-2.01-.76-2.31-.12.75-.24,1.51-.35,2.23.39.8-.81,2,.81,2.38.12-.77.42-1.56.31-2.3ZM356.28,124.8c.03.5.23.99.36,1.48.28-.14.57-.27,1.01-.48-.18-.47-.36-.94-.54-1.42-.29.14-.82.29-.82.41ZM356.3,105.34c.08.75.33,1.47.51,2.21.3-.38.59-.76,1.02-1.31-.37-.67-.71-1.3-1.06-1.93-.17.34-.51.7-.48,1.03ZM356.31,17.66c.03,1.13.33,2.25.52,3.37.23-.89.46-1.77.75-2.85-.2-.77-.43-1.65-.66-2.53-.22.67-.62,1.34-.61,2.01ZM357.42,164.28c-.3-.14-.58-.26-.86-.39-.07.18-.24.4-.18.52.14.29.39.54.6.81.15-.31.3-.63.45-.94ZM356.44,98.85c.43-.33.88-.52.89-.72.04-.74-.08-1.49-.13-2.23-.25.17-.7.33-.73.52-.09.74-.03,1.5-.03,2.43ZM357.02,144.49c.19-.69.38-1.24.46-1.81.01-.08-.55-.23-.84-.35-.07.38-.23.77-.18,1.14.04.31.31.59.56,1.02ZM357.35,171.3c-.25-.12-.5-.24-.76-.36-.05.18-.18.4-.12.54.12.29.34.55.52.82.13-.33.25-.66.36-1ZM356.87,73.1c-.15.38-.4.71-.38,1.03.01.27.31.53.49.8.14-.32.4-.65.39-.97,0-.27-.3-.54-.5-.86ZM357.87,131.71c-.21-.3-.41-.57-.61-.84-.23.26-.49.5-.65.8-.05.09.22.48.26.47.35-.11.67-.27,1.01-.42ZM357.16,51.14c.08-.36.15-.73.26-1.24-.17-.3-.4-.7-.63-1.1-.06.38-.22.77-.16,1.13.07.42.34.81.52,1.22ZM357.54,61.05c.1-.34.35-.72.26-.99-.09-.27-.51-.44-.79-.66-.08.34-.3.72-.22,1.02.06.25.47.41.75.63ZM361.95,92.66c.86.32.68-1.9.89-3.76-.17-.81-.5-2.34-.82-3.87-1.74.45-1.3,1.91-1.09,2.86.37,1.65-1.09,3.98,1.02,4.77ZM361.92,110.47c1.41.15.34-2.33.77-3.58-.41-1.41,1.03-3.74-.82-4.06-1.16-.2-.88,2.39-.71,3.64.2,1.41-1.19,3.8.75,4.01ZM362.12,73.88c1.02.49-.11-3.08.75-4.91-.64-1.4.85-3.33-1.02-4.73-.24.9-.92,1.96-.64,2.67.96,2.4-1.81,5.67.91,6.96ZM361.05,29.24c.12.44.56.79.87,1.18.29-.42.58-.84.91-1.31-.6-.28-.18-1.5-1.22-.86-.3.18-.63.71-.56.99ZM362.9,120.06c-.21-.75-.57-2.04-.92-3.33-.26,1.08-.72,2.16-.73,3.25-.02,1.08-.65,2.9.86,3.05,1.35.14.6-1.5.8-2.97ZM361.72,36.38c-.63-.29-.62,1.71-.42,2.64.62,2.87-.89,5.93.86,8.69.17-1.8.35-3.59.55-5.76-1.71-1.54,2.06-4.17-.99-5.57ZM362.3,78.63c-.36.24-.82.42-1.05.75-.1.14.28.58.44.89.27-.19.55-.38.83-.57-.08-.37-.14-.72-.22-1.07ZM362.52,131.75c-.05-.52-.36-1.02-.56-1.53-.25.7-.63,1.39-.71,2.11-.05.46.32.97.98,2.75.19-1.99.35-2.67.28-3.33ZM361.75,145.05c.13-.04.21-.25.31-.38-.1-.14-.21-.27-.32-.41-.16.22-.33.43-.5.65.17.05.36.17.5.14ZM361.48,54.45c.19.23.47.38.73.58.09-.33.18-.65.27-.97-.3-.04-.59-.1-.89-.09-.05,0-.18.4-.11.48ZM362.2,179.82c-.23-.1-.47-.21-.7-.31,0,.16-.07.36,0,.48.07.12.28.17.43.25.09-.14.18-.28.27-.42ZM366.67,96.67c1.81.19,1-1.74,1.14-3.23-1.61-.99,1.19-3.75-1.8-4.7-.36,1.31-1.03,2.62-1.01,3.93.02,1.47-.45,3.78,1.68,4ZM365.34,23.84c-.01.12.58.3,1.06.53.13-.61.32-1.15.31-1.68,0-.14-.59-.27-.92-.41-.17.52-.4,1.03-.46,1.56ZM366.58,130.2c.38.03.86-1.08,1.17-1.5-.38-1.2.3-2.6-1.33-2.59-.37,0-1.01,1.14-1.02,1.76-.02.88-.23,2.22,1.17,2.33ZM368,108.96c-1.25-1.78.22-4.36-2.06-5.93-.16.74-.57,1.53-.44,2.21.43,2.22,1.06,4.41,1.61,6.61.28-.9.56-1.8.9-2.9ZM367.88,64.69c-.34-.6-.6-1.07-.86-1.54-.45.33-1.09.58-1.32,1.02-.4.76-.24,1.6.87,1.57.41,0,.82-.63,1.31-1.05ZM366.86,75.96c.37-1.27.65-1.78.63-2.27-.03-.97-.09-2.04-1.36-2.29-.13-.02-.7.88-.61,1.26.21.9.68,1.74,1.35,3.3ZM367.25,30.8c-.28-.22-.57-.44-.98-.75-.22.27-.44.53-.66.79.28.21.57.58.85.58.26,0,.52-.4.78-.62ZM367.1,170.45c-.19-.23-.46-.68-.57-.65-.34.1-.61.39-.91.61.21.23.47.68.62.65.32-.07.59-.38.86-.61ZM365.67,81.53c.11.4.83.65,1.29.97.3-.46.59-.92,1.02-1.58-.66-.32-1.29-.85-1.57-.72-.4.19-.84.94-.73,1.33ZM366.62,35.43c-.29,1.1-.88,2.22-.79,3.28.15,1.62.78,3.21,1.2,4.81.28-1.33.56-2.66.82-3.89-.83-1.39.63-3.21-1.23-4.19ZM366.79,137.52c-.34.18-.98.4-.96.53.06.45.36.88.57,1.31.26-.26.52-.53.79-.8-.14-.35-.27-.69-.4-1.04ZM366.86,116.48c-.53.82-.98,1.22-.99,1.63-.01.52.33,1.06.51,1.59.32-.36.84-.68.91-1.08.09-.5-.19-1.07-.43-2.14ZM367.38,53.98c0-.28-.29-.57-.47-.88-.29.2-.74.36-.77.58-.04.23.26.64.52.75.16.07.73-.28.73-.45ZM366.75,229.41c.09-.17.17-.33.26-.5-.18-.07-.39-.24-.51-.2-.13.05-.17.31-.26.47.17.07.34.15.51.22ZM366.8,57.43c-.03.15-.11.32-.07.45.03.08.25.1.39.15.03-.15.11-.32.07-.45-.03-.08-.25-.1-.39-.15ZM372.94,89.98c-1.78-1.61.46-4.21-2.07-5.33-.29,1.11-.82,2.21-.81,3.32,0,1.44-.57,3.37,1.77,3.76.25.04.72-1.12,1.11-1.75ZM371.06,76.25c2.4.26-.02-3.05,1.4-4.32.15-1.41.55-3.42-.88-3.72-1.54-.33-1.41,1.71-1.25,2.72.3,1.87-1.15,5.12.73,5.32ZM370.49,105.05c-.02.99-.78,2.92,1,2.85,1.82-.07.49-1.99,1.06-3.37-.29-.81-.68-1.91-1.07-3-1.93.74-.95,2.34-.98,3.52ZM370.36,51.72c.03.39.58.75.9,1.12.17-.35.51-.71.48-1.04-.04-.54-.32-1.07-.66-2.09-.38.99-.76,1.52-.72,2.02ZM370.53,116.65c-.05.23.37.55.58.84.33-.38.66-.77.98-1.14-.37-.42-.6-.69-.84-.96-.26.42-.62.81-.72,1.26ZM370.54,142.3c0,.53.2,1.06.32,1.59.25-.2.5-.41.85-.7-.14-.47-.31-.99-.46-1.51-.25.21-.71.41-.71.62ZM371.43,57.96c-.29.31-.72.59-.83.95-.06.21.42.55.65.84.2-.24.39-.47.6-.72-.14-.36-.28-.72-.42-1.07ZM370.63,25.2c-.05.15.11.37.18.56.3-.16.83-.32.83-.49,0-.33-.28-.67-.47-1.06-.2.36-.43.66-.54.99ZM371.91,130.27c-.46.09-1.19.3-1.25.59-.1.4.31.91.65,1.75.53-.68.94-1.03,1.08-1.46.08-.24-.37-.9-.48-.88ZM370.69,34.63c.03.19.01.4.1.55.04.07.3.01.46,0,.05-.18.1-.37.15-.55-.24,0-.47,0-.71,0ZM370.99,156.39c.29.16.76.04,1.15.03-.05-.33.03-.85-.16-.96-.28-.16-.74-.04-1.13-.04.04.34-.04.87.14.97ZM371.04,166.34c0,.05.37.26.46.21.28-.16.5-.4.78-.64-.35-.16-.66-.3-.96-.44-.1.29-.23.57-.28.87ZM372.68,187.8c-.24-.34-.41-.76-.73-.92-.15-.08-.82.35-.81.54.01.32.3.77.6.89.2.08.61-.31.94-.51ZM377.59,76.09c-1.44-2.17.54-4.89-1.75-6.73-1.37,2.28-.73,4.72-.46,7.07.29,2.54-.63,5.22.84,7.64.46-2.68.93-5.35,1.37-7.97ZM376.6,97.33c-.15-2.42,1.4-5.1-.82-7.31-1.37,2.33-.02,4.79-.47,7.32.73,2.42-1.78,5.42,1.24,7.68,1.65-2.54.2-5.16.04-7.69ZM375.86,111.63c-.25,2.76-.71,5.53-.7,8.29.01,2.3.57,4.61.89,6.91,1.52-2.09.43-4.48.88-6.59-.13-2.98.69-5.93-1.07-8.61ZM376.57,168.29c-.02-.27-.45-.51-.7-.77-.18.53-.46,1.05-.5,1.59-.02.24.47.52.91.97.13-.72.33-1.26.29-1.79ZM375.42,62.39c.22.37.58.67.89.99.17-.29.34-.57.51-.87-.24-.27-.48-.54-.71-.8-.24.23-.74.6-.69.68ZM376.79,138.51c-.22-.5-.44-.98-.66-1.47-.22.28-.56.53-.61.83-.06.33.15.71.24,1.07.3-.12.59-.25,1.04-.43ZM376.45,145.04c-.03-.33-.23-.65-.38-1.03-.17.38-.49.73-.44,1.02.07.4.42.76.65,1.13.06-.37.2-.75.17-1.11ZM375.68,36.68c.07.44.34.85.52,1.27.09-.35.19-.7.33-1.24-.15-.28-.38-.68-.61-1.08-.09.35-.29.72-.24,1.05ZM376.06,153.89c-.02.3-.04.61-.06.91.12-.14.32-.28.33-.42,0-.16-.17-.32-.27-.49ZM382.03,112.8c-.53-.31-.94-.55-1.34-.79-.15.32-.48.69-.4.95.15.47.54.87.83,1.3.26-.42.53-.85.91-1.46ZM380.95,152.48s.3-.18.46-.28c-.19-.26-.38-.54-.61-.77-.02-.02-.3.19-.47.29.2.26.39.53.61.77ZM380.37,86.3c.16.4.58.7.89,1.04.08-.35.17-.69.25-1.06-.2-.27-.39-.54-.59-.82-.2.28-.63.65-.55.83ZM380.42,158.86c.22.1.45.21.67.31.02-.15.11-.33.05-.43-.06-.11-.27-.14-.41-.2-.1.11-.21.21-.31.32ZM381.46,140.41c.2-1.1-.12-2.28-.21-3.43-1.44.85-.23,2.12-.67,3.47.12,1.03.29,2.36.45,3.69,1.51-1.08.21-2.49.43-3.73ZM381.55,162.89c-.07-.22-.46-.36-.89-.67,0,.66-.02,1.16.03,1.66,0,.05.71.11.73.05.11-.33.23-.73.13-1.05ZM380.88,123.35c.19-.1.54-.19.54-.29,0-.33-.12-.67-.21-1.09-.16.33-.32.58-.39.85-.05.16.04.35.07.53Z"/>
  <path class="st0" d="M121.78,406.36c-13.15,6.86-8.19,18.72-8.96,28.87-.71,9.31.64,18.65-.88,28.03-1.79,11.07-7.01,20.09-15.08,27.84,0,0,.01,0,.02,0-8.58,10.61-35.23,16.95-48.78,12.66-12.88-4.07-23.07-9.69-30.74-19.98-6.94-9.31-9.65-19.92-8.41-31.15,1.43-13.08-1.23-26.17.83-39.22.89-5.61-2.09-.41-3.17-.72-5.42-1.57-9.1-10.58-4.55-13.41,9.91-6.16,6.37-14.33,6.5-22.76.17-11.34.28-22.69.33-34.03.05-11.29.22-22.58-.13-33.86-.42-13.58,4.06-25.15,14.26-34.54,1.02-.94,1.85-6.2,4.9-1.15.59.97.62-.41.7-.71,2.9-10.97,13.78-10.32,21.78-12.86,7.14-2.26,15.53-2,22.68.59,13.03,4.71,23.93,11.08,31.88,23.97,11.49,18.64,6.46,37.89,7.63,56.89,1.01,16.45.3,33.01.27,49.52,0,5.36,5.12,7.14,7.8,10.61,1.37,1.77,4.26,3.75,1.12,5.39ZM9.56,401.44c-.24,0-.48,0-.71.01.04.17.08.34.11.51.16,0,.4.06.47-.02.11-.12.09-.33.13-.51ZM14.69,460.92c-.02-.45-.59-.87-.92-1.3-.34.37-.67.75-1.08,1.19.51.64.87,1.09,1.23,1.53.28-.48.78-.96.76-1.43ZM12.82,346c.24.63.79,1.15,1.22,1.71.28-.42.57-.83.9-1.32-.37-.54-.68-.99-.99-1.44-.4.35-1.21.85-1.14,1.04ZM15.13,409.49c-.82-1.91.84-4.07-1.27-5.5-.99,1.39-1.14,2.85-.91,4.54.25,1.9-.33,3.94,1.44,5.45.26-1.55.51-3.1.74-4.49ZM13.33,395.03c.06.44.6.82.93,1.23.21-.33.42-.67.72-1.15-.29-.41-.62-.87-.94-1.33-.26.42-.76.87-.71,1.25ZM14.95,378.23c-.29-.67-.52-1.18-.74-1.69-.28.46-.77.92-.79,1.4-.02.49.4,1.01.63,1.51.3-.4.6-.81.9-1.22ZM13.72,365.82c.05.99.25,1.98.39,2.97.18-.83.36-1.65.54-2.44-.11-.8-.22-1.55-.32-2.29-1.4.19-.64,1.14-.61,1.76ZM13.62,331.22c-.06.52.25,1.08.4,1.62.33-.59.66-1.18.85-1.52-.26-.97-.4-1.54-.55-2.11-.24.67-.62,1.33-.7,2.01ZM14.08,388.86c.24-.27.61-.49.63-.74.02-.28-.28-.58-.44-.87-.23.23-.62.44-.65.68-.02.28.28.59.46.92ZM14.73,423.59c-.12-.34-.24-.69-.36-1.03-.19.24-.52.47-.54.72-.03.33.18.68.28,1.03.2-.24.41-.47.62-.72ZM13.91,338.77c-.03.14.1.31.2.57.08-.33.14-.57.2-.81-.14.08-.37.14-.39.24ZM20.07,417.33c-.23-1.22-.71-2.04-1.67-1.54-.53.28-.79,1.31-.86,2.03-.07.67-.08,1.96.98,1.62.75-.24,1.14-1.51,1.55-2.11ZM20.15,401.23c-.69-.53-1.1-.85-1.52-1.16-.37.55-.92,1.07-1.05,1.68-.06.28.65.73,1.01,1.1.47-.49.95-.98,1.56-1.62ZM17.74,437.43c-.08.1.35.57.67,1.08.43-.45.87-.79,1.11-1.24.08-.16-.36-.56-.56-.86-.42.33-.9.62-1.22,1.02ZM18.89,314.1c.39-.25.49-1.05.54-1.62.02-.21-.47-.47-.84-.81-.25.54-.6,1.05-.71,1.6-.14.69.25,1.3,1.01.83ZM18.82,430.97c.28-.56.62-1.02.73-1.53.05-.21-.38-.53-.6-.79-.33.47-.72.93-.95,1.45-.06.13.43.47.81.88ZM19.73,469.74c-.18-.31-.54-.92-.9-1.53-.28.24-.81.5-.8.72.04.57.17,1.23.52,1.65.55.66.97.33,1.18-.85ZM19.53,318.66c-.17-.32-.25-.78-.5-.89-.24-.1-.65.15-.98.25.22.41.44.81.66,1.22.27-.19.54-.38.82-.58ZM18.98,351.14c-.27.4-.85.88-.76,1.2.27,1.02.79,1.98,1.21,2.96.24-.52.6-1.01.68-1.55.14-.94.25-1.95-1.12-2.61ZM19.57,368.62c-.34-.06-.65-.16-.96-.15-.11,0-.32.39-.28.43.22.24.5.42.76.62.16-.3.32-.59.48-.9ZM19.02,343.26c-.17.34-.47.68-.47,1.02s.3.71.46,1.06c.27-.2.54-.41.94-.71-.31-.45-.62-.91-.93-1.37ZM19.08,375.9c-.15.3-.31.59-.43.9,0,.02.31.16.48.24.15-.3.31-.59.42-.89.01-.03-.29-.15-.47-.25ZM22.33,355.32c-.04.91-.24,2,1.04,2.45,1.29-.49,1.07-1.57.98-2.49-.08-.91.23-2.43-1.08-2.39-1.26.03-.9,1.53-.94,2.43ZM22.69,400.38c.06,1.21-1.28,2.8.72,3.69.41-1.29.82-2.58.89-2.81.13-2.28.76-4.28-.55-4.25-1.99.04-1.12,2.18-1.06,3.37ZM22.5,338.27c.36.3.75.62,1.14.94.19-.31.61-.72.53-.92-.21-.46-.67-.82-1.02-1.22-.18.33-.35.66-.64,1.19ZM22.51,412.38c.13.51.47.96.72,1.44.26-.27.73-.53.73-.8.01-.46-.27-.92-.48-1.51-.48.42-1.02.71-.98.87ZM22.6,420.44c.27.43.54.86.82,1.29.26-.26.52-.53.79-.81-.21-.34-.34-.82-.63-.94-.22-.09-.64.29-.97.45ZM23.76,388.79c-.8-.51-1.01.12-1.03.71-.01.35.22.72.35,1.07.28-.23.56-.46.85-.71-.05-.37.04-.94-.16-1.07ZM24.09,465.2c-.12-.3-.32-.56-.5-.84-.24.21-.47.42-.73.65.29.19.57.4.87.54.05.02.38-.29.35-.36ZM24.22,363.79c-.29-.24-.58-.48-.88-.72-.17.28-.51.62-.44.84.08.28.51.45.78.68.18-.26.35-.53.54-.8ZM23.33,429.14c-.15.09-.43.23-.42.26.12.29.28.56.44.84.14-.1.29-.2.43-.3-.15-.27-.3-.53-.45-.8ZM23.59,345.59c-.21.23-.45.45-.6.71-.04.07.22.42.31.41.31-.05.61-.19.94-.31-.22-.28-.43-.54-.65-.81ZM23.08,306.4c.1.28.29.54.45.8.24-.19.48-.38.74-.58-.3-.21-.57-.41-.86-.56-.04-.02-.35.26-.33.34ZM24.7,436.17c-.17-.32-.34-.64-.53-.99-.34.17-.83.26-.94.51-.13.27.09.69.16,1.04.44-.19.88-.38,1.31-.56ZM27.02,390.39c.35.65.87,1.22,1.31,1.82.32-1.12.76-2.23.94-3.37.12-.77-.14-1.58-1.29-1.53-1.11.8-1.64,1.8-.95,3.08ZM27.22,403.05c.48,1.31-.59,2.91,1.4,3.06.18.02.74-1.41.65-2.11-.14-1.1-.67-2.16-1.04-3.24-.37.84-.74,1.68-1.02,2.29ZM28.28,411.79c-.97-.26-1.23,1.46-.9,2.37.61,1.67-1.07,4.12.95,4.87.82.3.23-2.36.52-3.64-.33-1.22,1.57-3.01-.57-3.59ZM27.6,370.41c.77-1.38,1.14-1.79,1.2-2.23.07-.53-.12-1.09-.19-1.64-.41.22-1.13.39-1.19.68-.14.67.05,1.4.19,3.18ZM28.4,427.59c-.28-.05-1.09.78-1.02,1.04.24.86.77,1.65,1.19,2.46.22-.52.45-1.03.51-1.17.07-1.17.47-2.11-.68-2.33ZM27.48,358.42c-.02.67.54,1.35.84,2.03.32-.7.89-1.39.9-2.09.1-4.54.27-9.09-1.15-13.54-.21,4.54-.46,9.07-.59,13.61ZM27.58,376.5c.22.81.46,1.7.7,2.59.32-1.1.8-2.19.92-3.31.08-.74-.37-1.53-.59-2.29-1.76.54-.28,2.04-1.03,3.01ZM28.6,473.77l-.36-.46c-.14.13-.28.26-.42.39.22.21.43.43.65.64.04-.19.09-.38.13-.57ZM27.83,280.7c.02.29.38.55.59.83.15-.35.31-.71.44-1.07-.22-.27-.43-.53-.65-.8-.14.35-.41.71-.39,1.04ZM28.89,321.08c-.22-.22-.53-.37-.83-.56-.08.36-.15.7-.22,1.05.31.02.63.06.93.02.07-.01.19-.43.12-.5ZM27.99,311.56c.2-.04.52-.07.52-.09-.01-.37-.06-.74-.11-1.12-.17.03-.49.06-.49.09,0,.37.05.74.08,1.12ZM28.44,441.28c.04-.33.09-.66.1-.99,0-.02-.31-.06-.5-.09-.04.33-.09.66-.09.99,0,.03.31.06.48.09ZM28.48,341.9c-.16.03-.46.05-.46.07,0,.82.02,1.63.04,2.45.14-.84.28-1.68.42-2.52ZM34.04,387.64c-.43-.62.55-2.01-.99-2.14-.21-.02-.68,1.29-.78,2.01-.12.9-.33,2.22,1.15,2.14,1.02-.05.89-1.11.63-2.02ZM32.41,288.03c.4,1.16-.93,2.72.93,3.55.24-1.5.61-3,.68-4.52.04-.89-.4-1.8-.62-2.7-1.82.86-.77,2.41-.99,3.67ZM34.22,378.65c-.28-.54-.69-1.35-1.1-2.16-.26.48-.75.97-.72,1.44.05.92.15,2.43.67,2.63,1,.38.99-.81,1.15-1.9ZM33.97,399.55c-.18-.69-.46-1.75-.74-2.82-.23,1.32-.53,2.64-.65,3.97-.07.71.17,1.45.28,2.18,1.88-.47.76-1.9,1.11-3.33ZM32.72,365.24c.07.58.39,1.12,1.08.55.21-.17.24-.7.14-1-.07-.22-.5-.33-.78-.51-.17.34-.47.67-.44.96ZM33.08,355.84c.13-.11.34-.19.37-.32.03-.13-.13-.3-.2-.45-.13.11-.34.21-.37.35-.03.11.13.28.2.42ZM33.76,487.5c-.12-.14-.24-.28-.36-.43-.18.26-.4.5-.5.79-.03.09.22.28.34.43.18-.26.35-.52.53-.79ZM32.97,277.73c-.02.08.22.24.34.36.15-.27.29-.54.43-.79-.13-.14-.25-.27-.36-.39-.14.27-.32.54-.4.83ZM36.94,273.92c.22,2.94.51,5.89.78,8.83,2.57-1.3.76-3.56,1.4-5.34-.75-1.99,1.11-4.77-1.6-5.97-.88-.39-.65,1.56-.58,2.47ZM38.15,391.21c-.46.02-1.09,1.03-1.27,1.69-.11.4.38,1.25.8,1.42,1.31.52,1.07-.69,1.35-1.32-.04-.74.29-1.82-.89-1.78ZM38.25,293.08c-.48.09-1.24.31-1.3.59-.09.43.33.95.69,1.82.54-.7.97-1.06,1.11-1.51.08-.25-.38-.92-.49-.91ZM81.7,364.72c0-18.95-.26-37.9-.1-56.85.05-6.15-5.71-10.54-4.84-16.77-4.83,1.95-4.55-1.04-4.43-4.11.05-1.16-.45-2.35-.69-3.52-1.88.8-.32,2.51-1.03,3.64-.61.97.34,2.95-1.36,3.03-2,.09-1.99-1.73-1.98-3.17.02-3.87.14-7.74.08-11.61-.01-.86-.61-1.71-.93-2.56-.24.94-.66,1.89-.7,2.84-.15,3.45-.13,6.9-.3,10.35-.04.73-.61,1.44-.93,2.16-.44-.3-1.16-.53-1.28-.92-1.03-3.54-5.58,2.67-6.1-2.06-2.5,4.14-7.58,5.2-10.89,8.64-10.31,10.68-6.68,23.95-6.87,35.95-.16,10.02-.08,20.14-.31,30.21l.13-.03c-1.97,1.58-2.05,3.57-1.32,5.72.26.11.51.23.77.34.42,1.12,1.16,2.22,1.22,3.36.72,14.23-.71,28.44.11,42.71.84,14.62.14,29.33.09,44-.04,11.16,8.53,19.36,20.56,19.65,10.14.25,20.4-8.89,20.67-18.71.27-9.57.23-19.14.26-28.71.08-21.19.16-42.39.16-63.59ZM38.94,286.43c-.02-.22-.51-.4-.78-.6-.17.35-.33.69-.51,1.07.31.21.61.41.91.61.14-.36.42-.74.38-1.08ZM42.67,270.3c.31-.05.48-.96.76-1.58-.35-.47-.67-.89-1-1.32-.3.45-.82.89-.85,1.35-.03.66-.12,1.73,1.08,1.54ZM42.69,293.74c.06.02.5-1.37.82-2.27-.35-.8-.71-1.65-1.08-2.49-.28.65-.92,1.38-.77,1.92.27.98-.64,2.42,1.03,2.84ZM42.53,276.57c-1.55-.11-.6,1.96-.61,3.03,0,1.11.39,3.2.53,3.19,2.27-.1.67-1.71,1.02-2.66-.63-1.18,1.04-3.42-.94-3.56ZM43.02,487.17c-.05-.29-.1-.6-.15-.92-.26.13-.55.23-.77.41-.08.07,0,.47.04.48.27.05.56.02.87.02ZM46.44,277.44c.2,3.09.43,6.47.66,9.87,2.4-3.2,1.07-6.82,1.12-10.25.06-3.41-.35-6.83-.55-10.24-2.83,3.22,0,6.92-1.23,10.62ZM47.8,494.3c-.04-.35-.18-.68-.29-1.03-.16.14-.43.27-.42.38.05.34.19.67.3,1.01.14-.12.42-.25.41-.35ZM52.51,278.86c1.54-2.24.59-4.74.57-7.07-.02-2.42,1.31-5.12-.83-7.35-1.57,2.29.12,4.82-.69,7.38,1.53,2.09-1.96,4.9.95,7.03ZM56.03,276.68c-.08,1.17-.15,2.58,1.58,2.68.18.01.46-1.75.69-2.64-.3-.98.28-2.5-1.19-2.5-1.53,0-1.01,1.56-1.08,2.45ZM57.02,269.24c.25.07.61-.23.95-.38-.16-.33-.31-.63-.45-.94-.31.16-.77.26-.9.51-.09.18.19.75.4.81ZM57.16,263.03c.07.3.23.57.35.86.12-.11.35-.24.34-.31-.06-.3-.21-.6-.34-.93-.15.15-.38.3-.35.39ZM60.86,271.85c.16,2.72.57,5.44.89,8.16,2.19-.99-.16-2.93.95-4.15.38-2.2.77-4.64-1.01-6.2-.68-.59-.88,1.44-.83,2.19ZM60.87,264.62c.14.32.19.78.43.91.2.1.62-.2.94-.32-.2-.42-.4-.83-.6-1.25-.25.21-.5.43-.76.66ZM66,266.11c0,.23.43.47.66.7.16-.49.41-.97.45-1.47.02-.24-.38-.49-.72-.89-.16.64-.38,1.15-.38,1.66ZM66.74,493.46l-.35.15.27.31.09-.46ZM71.47,277.99c1.33.22,1.08-2.32.88-3.57-.26-1.64,1.19-4.56-.94-4.66-2.34-.11-.28,2.54-.78,3.89.49,1.48-1.94,3.87.84,4.34ZM72.42,478.66c-.29-.3-.62-.63-.95-.97-.16.33-.5.71-.43.98.11.41.52.74.8,1.11.16-.32.33-.64.58-1.12ZM72.14,486.57c-.11-.33-.23-.67-.34-1.02-.23.25-.49.46-.64.73-.07.12.08.35.13.53.28-.08.57-.16.85-.24ZM71.87,500.08c-.12-.15-.24-.31-.36-.46-.02.18-.08.36-.06.52.05.3.14.6.22.9.07-.32.14-.63.21-.96ZM75.1,284.27c-.03.63.61,1.84.93,1.83,1.65-.04.95-1.38,1.19-2.67-.18-.35-.61-1.58-.85-1.54-1.35.19-1.24,1.48-1.28,2.38ZM76.98,492.47c-.17-.5-.71-.87-1.16-1.36-.25.45-.63.84-.55,1.06.21.52.64.95.99,1.42.26-.38.82-.85.72-1.11ZM75.6,273.07c.09.47.61.86,1.18,1.58.22-.83.55-1.37.43-1.8-.12-.43-.68-.75-1.04-1.12-.21.45-.64.93-.56,1.34ZM82.35,277.89c-.4-2.09,1.02-5.27-1.44-5.99-1.55-.45-.63,2.53-1.1,4.3.95,1.98-.44,4.72,1.47,6.89,1.21-1.57,1.42-3.4,1.07-5.2ZM84.56,288.87c.18.76.32,1.91.84,2.14,1.24.54,1.13-.72,1.2-1.38.1-.93.25-1.98-.94-2.51-1.01.22-1.31.9-1.11,1.75ZM86.72,344.54c-.29-.39-.72-.94-1.14-1.5-.29.47-.84.96-.81,1.42.04.71.36,1.91.75,1.99,1.13.22.91-.9,1.2-1.91ZM86.27,411.5c-.12-.78.95-2.01-.76-2.31-.12.75-.24,1.51-.35,2.23.39.8-.81,2,.81,2.38.12-.77.42-1.56.31-2.3ZM85.1,382.25c.03.5.23.99.36,1.48.28-.14.57-.27,1.01-.48-.18-.47-.36-.94-.54-1.42-.29.14-.82.29-.82.41ZM85.12,362.79c.08.75.33,1.47.51,2.21.3-.38.59-.76,1.02-1.31-.37-.67-.71-1.3-1.06-1.93-.17.34-.51.7-.48,1.03ZM85.13,275.11c.03,1.13.33,2.25.52,3.37.23-.89.46-1.77.75-2.85-.2-.77-.43-1.65-.66-2.53-.22.67-.62,1.34-.61,2.01ZM86.24,421.74c-.3-.14-.58-.26-.86-.39-.07.18-.24.4-.18.52.14.29.39.54.6.81.15-.31.3-.63.45-.94ZM85.26,356.3c.43-.33.88-.52.89-.72.04-.74-.08-1.49-.13-2.23-.25.17-.7.33-.73.52-.09.74-.03,1.5-.03,2.43ZM85.84,401.94c.19-.69.38-1.24.46-1.81.01-.08-.55-.23-.84-.35-.07.38-.23.77-.18,1.14.04.31.31.59.56,1.02ZM86.17,428.75c-.25-.12-.5-.24-.76-.36-.05.18-.18.4-.12.54.12.29.34.55.52.82.13-.33.25-.66.36-1ZM85.69,330.55c-.15.38-.4.71-.38,1.03.01.27.31.53.49.8.14-.32.4-.65.39-.97,0-.27-.3-.54-.5-.86ZM86.69,389.16c-.21-.3-.41-.57-.61-.84-.23.26-.49.5-.65.8-.05.09.22.48.26.47.35-.11.67-.27,1.01-.42ZM85.98,308.59c.08-.36.15-.73.26-1.24-.17-.3-.4-.7-.63-1.1-.06.38-.22.77-.16,1.13.07.42.34.81.52,1.22ZM86.36,318.5c.1-.34.35-.72.26-.99-.09-.27-.51-.44-.79-.66-.08.34-.3.72-.22,1.02.06.25.47.41.75.63ZM90.77,350.11c.86.32.68-1.9.89-3.76-.17-.81-.5-2.34-.82-3.87-1.74.45-1.3,1.91-1.09,2.86.37,1.65-1.09,3.98,1.02,4.77ZM90.74,367.92c1.41.15.34-2.33.77-3.58-.41-1.41,1.03-3.74-.82-4.06-1.16-.2-.88,2.39-.71,3.64.2,1.41-1.19,3.8.75,4.01ZM90.94,331.33c1.02.49-.11-3.08.75-4.91-.64-1.4.85-3.33-1.02-4.73-.24.9-.92,1.96-.64,2.67.96,2.4-1.81,5.67.91,6.96ZM89.87,286.69c.12.44.56.79.87,1.18.29-.42.58-.84.91-1.31-.6-.28-.18-1.5-1.22-.86-.3.18-.63.71-.56.99ZM91.72,377.51c-.21-.75-.57-2.04-.92-3.33-.26,1.08-.72,2.16-.73,3.25-.02,1.08-.65,2.9.86,3.05,1.35.14.6-1.5.8-2.97ZM90.54,293.83c-.63-.29-.62,1.71-.42,2.64.62,2.87-.89,5.93.86,8.69.17-1.8.35-3.59.55-5.76-1.71-1.54,2.06-4.17-.99-5.57ZM91.12,336.08c-.36.24-.82.42-1.05.75-.1.14.28.58.44.89.27-.19.55-.38.83-.57-.08-.37-.14-.72-.22-1.07ZM91.34,389.2c-.05-.52-.36-1.02-.56-1.53-.25.7-.63,1.39-.71,2.11-.05.46.32.97.98,2.75.19-1.99.35-2.67.28-3.33ZM90.57,402.5c.13-.04.21-.25.31-.38-.1-.14-.21-.27-.32-.41-.16.22-.33.43-.5.65.17.05.36.17.5.14ZM90.3,311.9c.19.23.47.38.73.58.09-.33.18-.65.27-.97-.3-.04-.59-.1-.89-.09-.05,0-.18.4-.11.48ZM91.02,437.27c-.23-.1-.47-.21-.7-.31,0,.16-.07.36,0,.48.07.12.28.17.43.25.09-.14.18-.28.27-.42ZM95.49,354.12c1.81.19,1-1.74,1.14-3.23-1.61-.99,1.19-3.75-1.8-4.7-.36,1.31-1.03,2.62-1.01,3.93.02,1.47-.45,3.78,1.68,4ZM94.16,281.3c-.01.12.58.3,1.06.53.13-.61.32-1.15.31-1.68,0-.14-.59-.27-.92-.41-.17.52-.4,1.03-.46,1.56ZM95.4,387.66c.38.03.86-1.08,1.17-1.5-.38-1.2.3-2.6-1.33-2.59-.37,0-1.01,1.14-1.02,1.76-.02.88-.23,2.22,1.17,2.33ZM96.82,366.41c-1.25-1.78.22-4.36-2.06-5.93-.16.74-.57,1.53-.44,2.21.43,2.22,1.06,4.41,1.61,6.61.28-.9.56-1.8.9-2.9ZM96.7,322.14c-.34-.6-.6-1.07-.86-1.54-.45.33-1.09.58-1.32,1.02-.4.76-.24,1.6.87,1.57.41,0,.82-.63,1.31-1.05ZM95.68,333.41c.37-1.27.65-1.78.63-2.27-.03-.97-.09-2.04-1.36-2.29-.13-.02-.7.88-.61,1.26.21.9.68,1.74,1.35,3.3ZM96.07,288.25c-.28-.22-.57-.44-.98-.75-.22.27-.44.53-.66.79.28.21.57.58.85.58.26,0,.52-.4.78-.62ZM95.92,427.9c-.19-.23-.46-.68-.57-.65-.34.1-.61.39-.91.61.21.23.47.68.62.65.32-.07.59-.38.86-.61ZM94.49,338.98c.11.4.83.65,1.29.97.3-.46.59-.92,1.02-1.58-.66-.32-1.29-.85-1.57-.72-.4.19-.84.94-.73,1.33ZM95.44,292.88c-.29,1.1-.88,2.22-.79,3.28.15,1.62.78,3.21,1.2,4.81.28-1.33.56-2.66.82-3.89-.83-1.39.63-3.21-1.23-4.19ZM95.61,394.97c-.34.18-.98.4-.96.53.06.45.36.88.57,1.31.26-.26.52-.53.79-.8-.14-.35-.27-.69-.4-1.04ZM95.68,373.93c-.53.82-.98,1.22-.99,1.63-.01.52.33,1.06.51,1.59.32-.36.84-.68.91-1.08.09-.5-.19-1.07-.43-2.14ZM96.2,311.43c0-.28-.29-.57-.47-.88-.29.2-.74.36-.77.58-.04.23.26.64.52.75.16.07.73-.28.73-.45ZM95.58,486.86c.09-.17.17-.33.26-.5-.18-.07-.39-.24-.51-.2-.13.05-.17.31-.26.47.17.07.34.15.51.22ZM95.62,314.88c-.03.15-.11.32-.07.45.03.08.25.1.39.15.03-.15.11-.32.07-.45-.03-.08-.25-.1-.39-.15ZM101.76,347.43c-1.78-1.61.46-4.21-2.07-5.33-.29,1.11-.82,2.21-.81,3.32,0,1.44-.57,3.37,1.77,3.76.25.04.72-1.12,1.11-1.75ZM99.88,333.7c2.4.26-.02-3.05,1.4-4.32.15-1.41.55-3.42-.88-3.72-1.54-.33-1.41,1.71-1.25,2.72.3,1.87-1.15,5.12.73,5.32ZM99.31,362.5c-.02.99-.78,2.92,1,2.85,1.82-.07.49-1.99,1.06-3.37-.29-.81-.68-1.91-1.07-3-1.93.74-.95,2.34-.98,3.52ZM99.18,309.17c.03.39.58.75.9,1.12.17-.35.51-.71.48-1.04-.04-.54-.32-1.07-.66-2.09-.38.99-.76,1.52-.72,2.02ZM99.35,374.1c-.05.23.37.55.58.84.33-.38.66-.77.98-1.14-.37-.42-.6-.69-.84-.96-.26.42-.62.81-.72,1.26ZM99.36,399.75c0,.53.2,1.06.32,1.59.25-.2.5-.41.85-.7-.14-.47-.31-.99-.46-1.51-.25.21-.71.41-.71.62ZM100.25,315.41c-.29.31-.72.59-.83.95-.06.21.42.55.65.84.2-.24.39-.47.6-.72-.14-.36-.28-.72-.42-1.07ZM99.45,282.65c-.05.15.11.37.18.56.3-.16.83-.32.83-.49,0-.33-.28-.67-.47-1.06-.2.36-.43.66-.54.99ZM100.73,387.72c-.46.09-1.19.3-1.25.59-.1.4.31.91.65,1.75.53-.68.94-1.03,1.08-1.46.08-.24-.37-.9-.48-.88ZM99.51,292.08c.03.19.01.4.1.55.04.07.3.01.46,0,.05-.18.1-.37.15-.55-.24,0-.47,0-.71,0ZM99.81,413.84c.29.16.76.04,1.15.03-.04-.33.03-.85-.16-.96-.28-.16-.74-.04-1.13-.04.04.34-.04.87.14.97ZM99.87,423.79c0,.05.37.26.46.21.28-.16.5-.4.78-.64-.35-.16-.66-.3-.96-.44-.1.29-.23.57-.28.87ZM101.5,445.25c-.24-.34-.41-.76-.73-.92-.15-.08-.82.35-.81.54.01.32.3.77.6.89.2.08.61-.31.94-.51ZM106.41,333.54c-1.44-2.17.54-4.89-1.75-6.73-1.37,2.28-.73,4.72-.46,7.07.29,2.54-.63,5.22.84,7.64.46-2.68.93-5.35,1.37-7.97ZM105.42,354.79c-.15-2.42,1.4-5.1-.82-7.31-1.37,2.33-.02,4.79-.47,7.32.73,2.42-1.78,5.42,1.24,7.68,1.65-2.54.2-5.16.04-7.69ZM104.68,369.08c-.25,2.76-.71,5.53-.7,8.29.01,2.3.57,4.61.89,6.91,1.52-2.09.43-4.48.88-6.59-.13-2.98.69-5.93-1.07-8.61ZM105.39,425.74c-.02-.27-.45-.51-.7-.77-.18.53-.46,1.05-.5,1.59-.02.24.47.52.91.97.13-.72.33-1.26.29-1.79ZM104.24,319.84c.22.37.58.67.89.99.17-.29.34-.57.51-.87-.24-.27-.48-.54-.71-.8-.24.23-.74.6-.69.68ZM105.61,395.96c-.22-.5-.44-.98-.66-1.47-.22.28-.56.53-.61.83-.06.33.15.71.24,1.07.3-.12.59-.25,1.04-.43ZM105.27,402.49c-.03-.33-.23-.65-.38-1.03-.17.38-.49.73-.44,1.02.07.4.42.76.65,1.13.06-.37.2-.75.17-1.11ZM104.5,294.13c.07.44.34.85.52,1.27.09-.35.19-.7.33-1.24-.15-.28-.38-.68-.61-1.08-.09.35-.29.72-.24,1.05ZM104.88,411.34c-.02.3-.04.61-.06.91.12-.14.32-.28.33-.42,0-.16-.17-.32-.27-.49ZM110.85,370.25c-.54-.31-.94-.55-1.34-.79-.15.32-.48.69-.4.95.15.47.54.87.83,1.3.26-.42.53-.85.91-1.46ZM109.77,409.94s.3-.18.46-.28c-.19-.26-.38-.54-.61-.77-.02-.02-.3.19-.47.29.2.26.39.53.61.77ZM109.19,343.75c.16.4.58.7.89,1.04.08-.35.17-.69.25-1.06-.2-.27-.39-.54-.59-.82-.2.28-.63.65-.55.83ZM109.24,416.31c.22.1.45.21.67.31.02-.15.11-.33.05-.43-.06-.11-.27-.14-.41-.2-.1.11-.21.21-.31.32ZM110.28,397.86c.2-1.1-.12-2.28-.21-3.43-1.44.85-.23,2.12-.67,3.47.12,1.03.29,2.36.45,3.69,1.51-1.08.21-2.49.43-3.73ZM110.37,420.34c-.07-.22-.46-.36-.89-.67,0,.66-.02,1.16.03,1.66,0,.05.71.11.73.05.11-.33.23-.73.13-1.05ZM109.7,380.8c.19-.1.54-.19.54-.29,0-.33-.12-.67-.21-1.09-.16.33-.32.58-.39.85-.05.16.04.35.07.53Z"/>
  <path class="st0" d="M257.77,471.84c-4.05,10.71-7.95,21.48-12.57,31.96-1.47,3.34-6.01,2.56-9.18,2.23-16.41-1.71-32.83-.3-49.24-.5-2.47-.03-5.84,1.55-6.39-2.82-.14-1.12-.68-1.45-1.21,0-2.17,5.91-7.26,2.79-10.64,2.39-4.03-.47-1.7-4.65-2.23-7.2-.23-1.1.59-3.12-.84-3.1-1.74.02-.88,1.94-.65,2.93,1.55,6.7-1.37,8.6-8.06,7.88-5.38-.58-10.88-.19-16.33-.23-1.06,0-2.35.1-2.46-1.23-.04-.54.81-1.4,1.45-1.68,13.64-5.98,12.53-19.47,16.23-30.24,3.56-10.37,5.7-21.16,9.14-31.65,2.56-7.84,4.04-16.14,6.37-24.15.84-2.89-1.72-4.85-3.35-6.94-2.63-3.38-3.66-6.24,1.26-8.93,11.39-6.21,12.57-17.95,15.71-28.42,4.55-15.19,8.34-30.58,13.54-45.63,4.03-11.66,6.21-23.89,10.59-35.5.69-1.82.13-3.57-1.07-5.12-.41,3.2-3.03,1.77-4.78,1.89-9.68.63-19.36,1.14-29.04,0v.11c-1.97.6-4.38-4.31-6.22.52-.21.55-3.26.42-4.88.1-8.82-1.72-16.96-1.46-23.2,6.06-.82.99-3.32,2.07-3.78,1.69-1.41-1.17.37-2.44.81-3.68,2.06-5.77,4.07-11.57,6.35-17.26.2-.51-.41-5.97,3.14-1.42.58.74.53-.81.58-1.19.27-2.22.34-4.47.56-6.7.64-6.32,4.26-8.59,10.78-7.92,5.25.54,10.6.15,15.89.37,19.82.81,39.63-.45,59.44-.29,7.41.06,14.83.25,22.24.4.63.01,1.25.13,1.88.2-.41.56-.69,1.39-1.26,1.65-12.04,5.5-12.95,16.61-15.71,27.22-3.67,14.09-9.11,27.76-12.77,41.86-1.79,6.89-3.72,13.7-5.86,20.49-3.7,11.77-6.49,23.81-10.45,35.48-2.05,6.03-1.13,10.86,3.27,14.93,3.25,3,2.37,4.05-.92,6.21-7.27,4.8-12.12,10.87-14.19,19.89-3.42,14.86-8.78,29.31-12.6,44.15-1.21,4.7-.11,4.97,4.25,5.06,4.02.09,8.78-2.08,12.13,2.07,2.07-1.82,4.54-2.35,7.29-2.32,8.9.1,17.86-.46,26.7.32,6.76.6,11.7-1.66,16.3-5.74,1.06-.94,2.08-2.59,3.65-1.62.63.39.68,2.38.3,3.39ZM152,285.2c-.39-.14-.78-.39-1.16-.37-.15,0-.27.61-.4.94.33.11.65.22,1,.34.19-.31.38-.61.57-.91ZM152.13,278.38c-.28-.26-.55-.71-.82-.7-.29,0-.58.42-.87.66.36.34.72.69,1.08,1.03.2-.32.4-.64.61-.99ZM155.05,484.07c.14.49.41.95.89,2.04.27-1.6.55-2.55.55-3.5,0-.39-.81-1.15-.86-1.12-1.09.64-.84,1.64-.58,2.59ZM156.14,282.37c-.2-.29-.47-.66-.73-1.03-.1.38-.33.78-.27,1.13.08.4.41.76.64,1.14.1-.36.21-.72.36-1.24ZM156.42,271.39c-.01-.5-.44-.98-.68-1.48-.2.48-.5.96-.57,1.46-.06.46.12.95.31,2.15.54-1.17.95-1.65.93-2.13ZM157.2,492.44c.05-.57-.04-1.32-.97-.95-.26.1-.48.69-.44,1.03.04.29.46.54.74.83.25-.32.64-.61.66-.91ZM161.85,491.8c.08-1.06-.41-2.17-.65-3.25-2.1,1.67-1.2,4.03-1.56,6.18.56,1.49-.88,3.47,1.16,4.69.37-2.54.85-5.07,1.05-7.62ZM160.2,483.1c1.22.85,1.18-.62,1.2-1.2.04-1.09.85-2.34-.43-3.28-1.18.05-1.19.91-1.17,1.66.03.98-.15,2.43.41,2.82ZM160.04,469.45c-.03.75.3,1.52.48,2.28.3-.67.6-1.34.97-2.15-.24-.69-.48-1.4-.73-2.11-.26.66-.69,1.31-.72,1.98ZM161.35,270c-.13-.37-.25-.75-.38-1.12-.28.4-.68.78-.79,1.23-.06.24.35.6.56.9.21-.33.41-.66.62-1ZM161.21,280.48c-.12-.86-.26-2-.41-3.14-.21,1.05-.53,2.09-.58,3.15-.06,1.13.15,2.27.24,3.41,1.36-.83.25-2.11.76-3.42ZM166.32,479.09c-.09-2.34,1.33-4.81-.55-7.01-2.61,2.78-.43,6.13-1.15,9.17-.34,1.41.7,4.28.98,4.06,2.16-1.64.68-4.08.72-6.22ZM166.28,272c.02-1.94-.41-3.89-.64-5.83-1.44,1.39-.2,3.08-.71,4.89.07,1.26.15,2.81.24,4.37,2.05-.62,1.1-2.29,1.11-3.43ZM165.02,450.29c.04.39.54.74.83,1.11.18-.51.35-1.03.77-2.27-.2-.07-.68-.23-1.16-.39-.17.52-.49,1.05-.44,1.55ZM169.89,485.22c-.28.44-.83.92-.78,1.33.31,2.6.75,5.18,1.15,7.77,1.68-.89.8-2.45,1.09-3.72.04-1.92.61-3.97-1.46-5.38ZM169.22,479.23c.25.2.49.43.76.6.03.02.38-.32.37-.35-.2-.26-.44-.49-.67-.73-.13.14-.26.27-.45.47ZM169.95,474.71c.78-2.19,1.11-2.74,1.13-3.3.02-.51-.28-1.04-.43-1.56-.42.33-1.03.6-1.2,1.02-.17.43.1,1.02.5,3.84ZM169.41,463.21c.11.31.32.59.49.88.27-.21.55-.41.85-.64-.35-.22-.64-.45-.97-.61-.05-.03-.4.29-.37.36ZM171.12,277.22c-.11-.59-.22-1.18-.32-1.77-.32.68-.8,1.35-.92,2.06-.08.47.39,1.46.56,1.45,1.37-.09.73-1.04.68-1.74ZM169.88,453.79c.02.31.43.59.67.88.25-.22.5-.45.75-.67-.14-.38-.17-.93-.42-1.05-.84-.4-1.05.26-1,.85ZM174,469.35c0,.33.32.66.49,1,.31-.35.85-.7.86-1.06,0-.47-.41-.95-.91-1.97-.25,1.06-.46,1.55-.44,2.04ZM175.75,277.76c0-.22-.88-.43-1.35-.65-.13,2.79-.26,5.58-.37,8.38-.03.71,0,1.42.01,2.14,3.17-2.83,1.79-6.47,1.7-9.86ZM174.06,449.68c-.02.15.52.38.98.69.19-.6.44-1.1.46-1.61,0-.18-.57-.37-.89-.55-.2.49-.47.97-.54,1.48ZM174.15,426.38c.26.22.48.43.73.6.02.01.35-.25.33-.35-.06-.3-.22-.58-.35-.87-.23.2-.46.4-.71.62ZM175.28,488.09c-.1-.35-.21-.69-.31-1.04-.27.19-.58.35-.8.59-.08.09.05.53.1.53.32.02.65-.05,1-.08ZM176.39,455.98c-.36-.54-.65-.98-.94-1.42-.42.28-1.22.65-1.18.83.15.65.6,1.24.93,1.86.36-.39.72-.77,1.19-1.27ZM175.35,496.71c-.24-.2-.48-.4-.72-.59-.07.17-.27.42-.21.5.18.24.45.4.68.6.08-.16.16-.33.25-.5ZM175.38,480.15c-.35.14-.81.2-.95.43-.1.18.21.58.34.88.33-.14.76-.19.95-.43.1-.13-.21-.56-.35-.87ZM174.45,270.78c.19.25.38.5.57.74.17-.09.34-.18.52-.28-.2-.26-.39-.53-.62-.75-.03-.03-.3.18-.47.28ZM179.59,476.51c-.27,2.53-.56,5.06-.8,7.6-.09.91-.34,2.81.65,2.39,2.41-1.03.34-3.52,1.1-5.27-1.03-1.47,1.54-3.51-.94-4.71ZM180.44,276.24c0-.45-.39-.91-1.01-2.25-.24,2.15-.44,3.33-.48,4.52-.02.66.65,1.34,1.09.64.48-.78.4-1.93.4-2.91ZM179.47,438.93c.39-.29.78-.57,1.11-.82-.22-.59-.36-.95-.49-1.31-.35.36-.82.66-.99,1.08-.11.26.23.69.37,1.05ZM179.1,421.49c-.05.51.32,1.06.65,2.02.47-.85.95-1.32.93-1.78-.02-.51-.48-1.01-.75-1.51-.3.42-.8.83-.84,1.26ZM180.63,454.01c.01-.26-.47-.54-.73-.8-.26.26-.7.51-.72.78-.01.27.41.55.67.86.3-.29.76-.55.78-.84ZM180.58,494.75c-.31-.47-.51-.77-.7-1.06-.23.41-.57.81-.66,1.25-.05.25.33.57.52.86.29-.36.58-.73.84-1.05ZM179.42,403.37c.68.78.91-.2.9-.64-.01-.77-.22-1.54-.37-2.47-.25.38-.52.61-.54.86-.07.76-.38,1.8.01,2.25ZM179.9,468.09c-.18.1-.46.21-.45.27.06.3.19.58.29.88.15-.09.43-.2.42-.27-.04-.29-.17-.58-.26-.87ZM184.22,427.68c.27-.01.54-.03.81-.04.11-.96.29-1.92.31-2.88.02-.71.42-2.04-.89-1.74-1.24.28-1.03,1.52-.63,2.57.25.65.27,1.39.4,2.09ZM185.14,284.44c.28.04.76-1.12,1.13-1.7-.55-1.28-.85-3.1-1.48-3.21-1.22-.21-1.34,1.23-1.11,2.18.24,1.02-.14,2.52,1.47,2.74h0ZM183.67,411.57c.17.25.42.44.64.65.21-.28.41-.57.63-.87-.33-.08-.64-.2-.94-.2-.11,0-.36.37-.32.42ZM183.89,268.36c-.11.2.3.66.47,1,.42-.26.85-.51,1.24-.75-.26-.6-.41-.95-.57-1.31-.4.34-.9.63-1.14,1.06ZM184.36,418.32c-.14.32-.45.69-.37.96.06.22.58.33.89.49.13-.33.26-.65.37-.99-.3-.15-.59-.3-.89-.45ZM184.04,448.02c0,.7.37,1.39.58,2.08.33-.63.65-1.26.92-1.77-.59-.98.43-2.17-.99-2.6-.18.77-.51,1.53-.5,2.29ZM185.64,493.66c-.28-.64-.51-1.17-.75-1.7-.29.66-.75,1.31-.81,1.99-.04.4.55.85.86,1.28.23-.52.47-1.05.7-1.57ZM184.88,438.39c-.27.25-.67.44-.71.7-.04.24.29.54.46.81.24-.21.65-.4.69-.64.04-.25-.27-.55-.44-.86ZM188.6,480.18c-.01.92-.02,1.84,0,2.79.77-.58,1.81-1.06,1.41-2.24-.1-.3-.92-.38-1.4-.56ZM188.61,486.4c.18-.04.52-.1.52-.1-.17-.96-.35-1.92-.54-2.88,0,1,.01,1.99.02,2.99ZM190.11,491.87c.07-.55-.05-1.12-.09-1.68-.49.17-1.36.3-1.39.53-.06.52.29,1.08.48,1.65.44-.2.98-.31,1.01-.49ZM190.16,283.1c-.08-.17-.17-.34-.25-.52-.19.25-.38.49-.57.73.17.08.37.27.5.23.14-.04.21-.29.32-.45ZM194.76,271.2c-.32-.22-.61-.43-.9-.64-.2.28-.59.6-.54.84.05.25.51.43.79.65.21-.28.42-.55.65-.84ZM194.62,499.26c.09-.52-.1-1.08-.16-1.62-.37.19-1.03.33-1.07.56-.1.71.03,1.45.11,2.87.64-.99,1.04-1.37,1.12-1.8ZM193.41,395.13c-.02.28.36.69.67.85.21.11.6-.13.93-.22-.14-.35-.18-.8-.43-1.03-.55-.49-1.11-.39-1.17.4ZM193.41,479.32c.31.05.61.13.92.14.04,0,.19-.38.13-.5-.15-.29-.41-.54-.71-.91-.15.58-.25.93-.34,1.28ZM194.76,492.11c-.3-.85-.54-1.55-.79-2.25-.19.47-.54.96-.52,1.42.03.69.33,1.36.52,2.04.27-.41.53-.83.79-1.22ZM194.08,428.93c-.08-.15-.17-.3-.25-.45-.11.13-.34.3-.31.37.09.22.28.4.43.6.04-.17.09-.34.13-.52ZM193.56,363.3c-.05.09.22.47.26.46.35-.09.67-.25,1.01-.39-.22-.31-.43-.59-.63-.87-.22.27-.48.51-.64.8ZM193.6,355.03c-.04.13.12.31.19.47.13-.26.27-.51.39-.75-.07-.19-.13-.36-.19-.53-.14.27-.31.53-.39.81ZM198.86,487.76c-.33,1.89-.86,3.77-.93,5.66-.04,1.24-.36,3.89.85,3.51,1.72-.55.87-3.13.95-5.17-.7-1.07,1.28-2.9-.87-4ZM198.22,372.87c.02.35.36.69.56,1.03.27-.44.73-.87.76-1.32.03-.46-.38-.94-.9-2.05-.25,1.25-.45,1.8-.42,2.33ZM198.22,348.79c0,.34.32.69.57,1.16.27-.31.63-.55.68-.84.07-.36.02-.98-.2-1.11-.84-.48-1.06.18-1.05.78ZM198.24,265.57c0,.34.25.68.39,1.02.23-.18.64-.35.64-.54.01-.33-.22-.68-.36-1.02-.24.18-.67.36-.67.54ZM199.59,281.75c-.21-.36-.46-.8-.72-1.25-.21.3-.63.62-.59.88.07.53.4,1.04.62,1.55.19-.33.39-.65.7-1.18ZM198.29,481.12c.12.41.52.76.81,1.13.15-.34.3-.68.76-1.75-.19-.07-.68-.29-1.19-.37-.08-.01-.45.69-.37.99ZM198.79,358.98c-.14.94-.39,1.88-.4,2.82,0,.93.24,1.86.38,2.79,1.77-.65.4-2.11.89-3.11.02-.93.59-2.04-.88-2.5ZM198.73,340.52l.25.35.11-.45-.36.09ZM199.64,407.04c-.17-.05-.34-.11-.51-.16-.02.26-.03.52-.05.78.17-.04.39-.04.5-.15.09-.09.05-.3.06-.47ZM204.52,270.91c-.07-.46-.4-.89-.63-1.33-.37.28-.75.56-1.66,1.24.76.43,1.22.74,1.73.92.09.03.6-.57.56-.83ZM203.12,352.1c.07,1.31.64,2.59,1,3.88.22-1.19.43-2.38.71-3.93-.17-.62-.43-1.56-.68-2.49-.36.85-1.06,1.71-1.02,2.54ZM205.35,485.78c-.4-.7-.69-1.22-.98-1.74-.38.32-1.05.61-1.08.96-.05.51.35,1.07.55,1.61.48-.26.95-.53,1.51-.84ZM204.56,364.87c-.17-.32-.34-.65-.51-.98-.23.41-.58.8-.66,1.23-.03.21.45.5.7.75.16-.33.31-.66.47-1.01ZM203.5,331.24c0,.74.25,1.48.39,2.22,1.26-1.01.17-2.26.37-3.37-.64-.92,1.13-2.27-.59-2.99-.07,1.38-.19,2.76-.18,4.15ZM204.37,499.24c-.17-.23-.35-.46-.53-.69-.12.13-.35.31-.32.37.12.26.33.49.5.73.11-.13.22-.26.35-.41ZM204.48,375.48c-.16-.27-.41-.66-.65-1.05-.09.36-.29.73-.23,1.07.07.43.35.83.54,1.24.1-.36.19-.71.34-1.26ZM204.18,392.77c-.06-.15-.11-.29-.17-.44-.04.24-.09.48-.14.72.1-.09.21-.19.31-.28ZM207.8,269.73c.27-.24.54-.42.72-.67.06-.08-.12-.45-.21-.46-.29-.02-.58.07-.87.12.12.32.23.65.36,1.01ZM207.73,342.23c.18.89.8,1.7,1.23,2.54.36-.67.72-1.34,1.15-2.15-.5-.74-.83-1.81-1.41-1.96-1.36-.34-1.09,1.02-.98,1.57ZM207.78,324.06c-.12.22.15.65.3,1.13.31-.35.65-.58.76-.9.11-.33-.01-.73-.03-1.09-.35.28-.82.5-1.02.86ZM208,361.43c.11.06.34-.09.52-.15-.07-.18-.09-.43-.22-.51-.1-.06-.34.1-.52.16.07.17.09.43.22.5ZM209.95,367.05c-.45-.53-.9-1.05-1.35-1.58-.29.42-.87.9-.8,1.25.13.69.63,1.32.98,1.98.32-.45.64-.9,1.17-1.65ZM209.07,281.47c-.05-.17-.64-.18-.99-.27-.06,1.49-.12,2.98-.19,4.47.72-1.33,1.69-2.59,1.17-4.2ZM209.25,485.66c-.2-.28-.36-.56-.58-.77-.06-.06-.48.1-.48.16-.02.3.06.61.11.91.32-.1.63-.2.96-.3ZM209.17,379.07c-.13-.14-.26-.27-.38-.4-.16.22-.32.44-.49.66.18.05.39.18.54.14.14-.04.22-.26.33-.39ZM212.19,314.44c.13.53.53.99.82,1.48.26-.29.53-.59.93-1.04-.33-.42-.67-.86-1.01-1.3-.26.29-.79.64-.73.86ZM215.17,489.99c-.92-.41-1.64-.74-2.36-1.06-.18.54-.55,1.11-.48,1.61.1.68.54,1.32.83,1.97.44-.55.88-1.11,2.02-2.53ZM212.6,292.49c-.09.36.29.82.77,2.03.45-1.55.8-2.26.81-2.98,0-.47-.57-1.39-.76-1.36-1.57.25-.62,1.51-.82,2.31ZM213.12,303.64c-.2.26-.44.49-.58.77-.05.1.21.46.24.45.3-.11.59-.26.89-.4-.18-.27-.36-.55-.54-.82ZM213.35,334.14c.1-.33.21-.65.3-.99-.26-.16-.52-.31-.78-.47-.1.34-.32.69-.26,1,.03.19.48.31.75.46ZM213.9,350.36c.07-.2-.27-.53-.45-.82-.26.22-.67.4-.74.66-.06.23.26.55.41.83.27-.22.68-.4.77-.67ZM212.75,484.12c-.01.14.14.28.22.42l.34-.34c-.08-.14-.17-.28-.25-.42-.11.11-.3.22-.31.34ZM217.16,301.99c.48,1.03-.34,2.23,1.11,2.59.17-.74.48-1.49.45-2.22-.02-.73-.39-1.45-.6-2.18-.35.65-.69,1.3-.96,1.81ZM217.59,285.26c-.14,1.76.14,3.54.25,5.32,1.45-1.19.54-2.82,1.02-4.74-.12-.83-.31-2.17-.5-3.51-1.87.55-.69,1.98-.77,2.93ZM217.58,321.08c.5-.62.85-.86.84-1.08-.03-.94-.17-1.88-.27-2.82-.19.43-.49.84-.55,1.28-.09.72-.02,1.46-.02,2.62ZM218.99,500.36c-.33-1.15-.55-1.9-.76-2.65-.23.66-.62,1.31-.65,1.98-.04.73.24,1.48.39,2.22.39-.59.79-1.18,1.03-1.55ZM218.63,335.94c-.2-1.54-.4-3.1-.61-4.66-.16.77-.48,1.55-.45,2.31.09,1.96.34,3.92.53,5.88.17-1.16.35-2.31.53-3.53ZM221.84,321.16c-.13.59.51,1.34.79,2.01.34-.67.94-1.34.96-2.02.1-3.46.05-6.92.06-10.38,0-3.46.03-6.91-.03-10.37-.01-.7-.36-1.39-.55-2.09-.23.73-.58,1.44-.68,2.19-.85,6.86.97,13.8-.56,20.66ZM222.3,264.47c0,.2.52.42.97.75.12-.66.32-1.2.26-1.71-.03-.21.26-1.55-.79-.67-.37.31-.42,1.07-.43,1.62ZM223.57,497.83c-.17-.31-.34-.62-.51-.93-.23.28-.49.53-.66.84-.05.1.22.49.26.47.31-.09.61-.25.91-.39ZM223.62,330.52c-.02-.18-.52-.31-.8-.46-.14.51-.35,1.02-.37,1.53,0,.15.53.32.99.58.08-.62.23-1.14.18-1.65ZM223.85,280.44c-.25-.79-.44-1.36-.62-1.94-.23.49-.6.96-.64,1.46-.04.52.23,1.06.37,1.6.32-.4.63-.8.89-1.12ZM223.17,286.58c-.26,1.08-.52,1.63-.48,2.16.03.4.43.78.67,1.17.1-.35.29-.71.27-1.06-.04-.57-.22-1.14-.45-2.27ZM222.69,488.65c.02.25.35.47.59.77.09-.47.26-.86.2-1.22-.03-.25-.37-.45-.57-.68-.08.38-.26.77-.22,1.13ZM222.74,480.58c.06.31.22.6.34.9.14-.11.4-.24.38-.33-.05-.31-.2-.61-.32-.92-.16.13-.43.27-.41.35ZM226.62,277.19c.15,1.13.85,2.18,1.31,3.27,1.46-.82.61-2.19.91-3.41-.52-.94.08-2.99-1.4-2.92-1.53.08-.96,1.99-.82,3.06ZM227.66,286.41c-1.19-.33-1.27,1.94-1.02,2.99.53,2.25-.97,5.27,1.23,6.5.77.43.58-3.1.93-4.8-.37-1.62,1.24-4.03-1.14-4.68ZM229.8,493.29c-1.48-.74-1.93-1.07-2.43-1.15-.18-.03-.73.64-.66.82.19.47.58,1.1,1,1.18.45.09,1.01-.38,2.09-.85ZM226.92,304.95c.24-.18.48-.36.75-.56-.13-.33-.26-.66-.4-.99-.15.32-.33.64-.43.98-.05.17.05.38.08.57ZM228.19,314.19c-.34.02-.58.04-.83.05.12.11.24.33.35.32.14,0,.26-.19.48-.37ZM228.26,499.37c-.29-.03-.59.05-.89.09.11.34.22.68.34,1.04.27-.21.56-.38.73-.62.07-.09-.09-.5-.18-.51ZM227.46,486.12c.05.27.48.47.77.73.17-.34.47-.68.43-.96-.04-.25-.46-.44-.72-.65-.18.3-.52.62-.48.88ZM231.3,273.93c.21.76.52,1.86.83,2.95.28-.88.86-1.79.77-2.63-.13-1.22.6-2.74-.94-3.64-.19.98-.39,1.95-.67,3.33ZM232.26,288.42c.23-.51.47-1.03.7-1.54-.23-.63-.43-1.18-.62-1.72-.27.65-.68,1.28-.76,1.95-.05.41.44.87.68,1.31ZM232.31,293.4c-.22,2.35-.5,4.71-.61,7.07-.04.96.31,1.94.48,2.91,1.57-1.48,1.22-3.24.75-5.21-1.04-1.35,1.14-3.31-.61-4.77ZM232.85,498.76c-.24-.21-.48-.42-.72-.62-.16.3-.45.62-.43.91.02.23.43.42.67.64.17-.3.33-.61.48-.92ZM231.91,487.09c.02.3.3.59.68,1.27,0-1.16.06-1.92-.03-2.66-.04-.33.47-1.38-.53-.85-.37.19-.17,1.46-.13,2.24ZM232.02,264.38c.03.08.26.08.4.12.03-.15.12-.32.07-.43-.04-.08-.26-.08-.4-.12-.03.15-.12.32-.07.44ZM239.1,486.12c-.38-.7-.67-2.06-1.3-2.22-1.55-.4-1.44,1.07-1.37,1.94.09,1.15.54,3.25.81,3.25,1.7-.04.92-1.81,1.87-2.97ZM237.28,263.66c.19.05.41.18.56.13.17-.06.27-.28.4-.44-.29-.09-.58-.18-.87-.27-.03.19-.06.38-.09.57ZM242.91,484.81c.03-.74-.34-1.49-.52-2.24-1.54,1.14-.43,2.58-.54,4.55.12.81.34,2.25.56,3.69.18-1.99.42-3.99.5-5.99ZM247.78,492.42c-.13-.16-.23-.3-.34-.44-.15.29-.35.57-.44.88-.03.1.2.27.31.41.16-.29.32-.58.47-.85ZM247.12,481.21s.33.06.51.09c.05-.33.12-.67.13-1,0-.04-.33-.08-.54-.13-.04.35-.1.69-.1,1.03Z"/>
  <path class="st0" d="M390.38,259.2c.08.41-.99,1.16-1.66,1.58-1.92,1.2-3.81,2.52-5.88,3.41-6.06,2.61-5.49,8.34-6.97,13.13-.91-.29-1.81-.58-2.71-.88-.05.33-.11.66-.16.98.97-.03,1.94-.05,2.91-.08-5.01,21.19-10.04,42.39-15.03,63.58-3.98,16.89-7.79,33.82-12.01,50.65-.81,3.21-.34,5.41,1.96,7.48,5.85,3.4,5.65,6.68.01,10.22-1.9,1.2-3.36,3.05-5.02,4.61-.2-.95-.4-1.9-.61-2.85-.25.14-.73.36-.71.42.3.9.67,1.78,1.03,2.66-.16,12.08-.36,24.16-.45,36.24-.08,10.97.3,21.95-.19,32.9-.31,6.72-.75,12.99,5.73,17.54,1.2.84,3.14,2.12,1.85,3.97-.52.74-2.23.99-3.39.99-13.99-.05-27.99-.17-41.98-.33-.9-.01-2.25.78-2.62-.6-.11-.4.98-1.19,1.64-1.66,6.76-4.85,8.22-11.2,7.97-19.2-.61-19.33-.44-38.71.22-58.05.28-8.26-1.66-14.82-8.79-19.5-2.9-1.91-2.64-3.58-.11-5.11,6.36-3.85,5.64-8.39,3.93-14.88-6.78-25.76-12.49-51.79-18.53-77.73-2.33-10.01-4.62-20.05-6.63-30.12-1.47-7.36-4.59-13.42-11.81-17.02-.86-.43-2.11-1.31-2.1-1.97.03-1.39,1.55-.97,2.51-.98,14.11-.17,28.23-.36,42.34-.36,1.11,0,5,.27,2.84,2.19-8.16,7.27-3.55,15.24-2,22.82,3.91,19.11,8.36,38.11,12.59,57.16.25,1.11-.13,2.95,1.37,2.93,1.4-.02,1.29-1.84,1.52-3.01,3.7-18.28,7.37-36.57,11.12-54.85.73-3.56,1.53-7.12,2.69-10.56,1.58-4.71,1.28-8.78-2.86-12.22-1.11-.92-2.1-2.47-1.19-3.78.41-.57,2.26-.27,3.45-.27,14.41-.01,28.81-.02,43.22.03.87,0,2.22-1.06,2.53.53ZM297.23,294.74c-.18-.08-.35-.17-.53-.26-.07.18-.23.38-.18.52.05.13.32.17.49.25.07-.17.14-.34.21-.51ZM297.95,310.15c-.02-.18-.03-.36-.05-.54-.17.02-.45,0-.47.06-.05.16-.02.37.06.52.03.05.3-.02.46-.04ZM302.01,309c-.04-.36-.15-.71-.26-1.14-.16.41-.38.75-.38,1.08,0,.21.32.42.5.64.05-.19.16-.39.14-.57ZM306.84,339.13c.06-.21-.4-.55-.65-.87-.22.33-.56.62-.57.91,0,.36.27.73.43,1.09.28-.37.68-.72.79-1.13ZM311.64,354.98c-1.97.06-.96,1.81-1.15,2.88.44,1.21-.55,2.86,1.24,3.64.31-1.36.72-2.71.91-4.09.13-.94.33-2.47-1-2.44ZM312.21,370.11c-.17-.47-.36-1-.55-1.54-.24.24-.72.5-.69.71.08.56.36,1.1.56,1.65.2-.24.4-.47.69-.82ZM312.2,376.72c-.1-.17-.2-.34-.3-.51-.2.25-.4.5-.59.75.18.08.39.26.53.22.15-.04.24-.29.35-.45ZM317.02,384.83c-.07-.47-.55-1.25-.89-1.27-1.27-.07-.9.91-.76,1.56.1.44.48.82.97,1.58.36-.91.75-1.43.68-1.88ZM315.71,371.43c-.09-.01-.56,1.03-.45,1.5.25,1.05.76,2.04,1.16,3.05.1-.76.19-1.51.29-2.28-.21-.82.55-2.04-1-2.27ZM317.09,357.42c.03-.9-.65-.81-1.17-.49-.27.17-.4.65-.42.99,0,.11.56.25.88.38.25-.3.7-.58.71-.89ZM315.63,354.02c.25-.09.5-.18.76-.27-.1-.14-.17-.35-.3-.39-.13-.04-.31.09-.45.15,0,.17,0,.34,0,.51ZM315.95,347.82c-.03.15.08.33.13.49.3-.1.6-.2.9-.31-.23-.2-.47-.41-.7-.61-.12.14-.3.27-.34.42ZM321.72,379.81c.02-.2.03-.41.08-1.12-1.3-3.09,1.17-6.98-.93-10.52-.39,3.72-1.15,7.44-1.08,11.15.07,3.58-.56,7.29.98,10.78,2.53-3.25.65-6.86.94-10.3ZM321.03,471.9c-.14-.06-.77,1.07-1.2,1.68.12.91.21,2.36.31,2.36,1.62,0,.63-1.39,1.06-2.1.35-.58.97-1.49-.18-1.93ZM320.12,338.63c.08.48.41.92.65,1.38.23-.26.66-.53.66-.79,0-.47-.27-.95-.48-1.55-.4.44-.87.74-.83.96ZM320.77,399.17c-.67-.29-.69,1.59-.62,2.57.14,1.97.29,3.93.44,5.9,1.92-1.06.39-2.78.87-4.12-.35-1.48,1.33-3.47-.69-4.34ZM321.11,356.64c-.34.66-.82,1.29-.97,1.98-.1.46.28,1.02.9,2.99.34-2.14.54-2.83.53-3.53,0-.48-.3-.96-.47-1.44ZM320.89,433.4c.35-.95.69-1.45.65-1.92-.05-.5-.46-.97-.72-1.46-.25.46-.67.91-.69,1.37-.01.5.36,1.01.76,2h0ZM321.65,488.59c-.23-.4-.49-.85-.76-1.31-.13.32-.38.64-.36.94.04.49.27.96.42,1.44.2-.31.4-.62.69-1.08ZM321.28,464.88c-.25.2-.65.36-.7.61-.08.34.1.74.17,1.11.28-.19.56-.38.85-.58-.11-.38-.21-.76-.32-1.13ZM321.26,481.21c0-.31.02-.62-.02-.93,0-.04-.32-.03-.5-.05,0,.32-.01.65-.02.97.18,0,.35,0,.54,0ZM324.5,402c.32.34.77.56,1.18.83.17-.29.33-.59.61-1.09-.46-.21-.87-.47-1.32-.56-.11-.02-.55.73-.48.82ZM324.62,364.04c.42.18.93.49,1.49.6.14.03.65-.65.57-.86-.18-.47-.62-.86-.96-1.28-.22.31-.44.62-1.1,1.53ZM324.68,412.37c-.1.49.61,1.6,1.03,1.64,1.1.1.95-.91.98-1.96-.15-.45-.4-1.17-.65-1.89-.49.73-1.21,1.42-1.37,2.2ZM327.37,439.49c-1.31-.77.52-3.23-1.8-3.1-1.44.08-.44,2.02-.48,3.07-.05,1.18-1.3,2.9.94,3.39.16.04.81-2,1.34-3.35ZM326.36,422.19c.09-.13-.32-.56-.64-1.07-.4.49-.83.84-1,1.29-.09.23.31.62.48.93.4-.38.87-.72,1.16-1.15ZM325.85,388.14c-1.77,0-.93,2.33-.86,3.55.09,1.44-.83,4.04.86,4.08,1.42.03.72-2.68.89-4.2-.42-1.18,1.14-3.43-.89-3.43ZM326.8,450.54c-.52-1.01.28-2.45-1.38-2.41-.2,0-.56,1.41-.51,2.14.06.86-.25,2.16,1.21,2.2.22,0,.48-1.36.67-1.93ZM326.79,478.03c-.28-.79.15-1.89-1.1-1.79-.25.02-.6,1.35-.53,2.04.07.62.65,1.2,1,1.79.21-.7.43-1.4.62-2.04ZM325.16,355.67c.08.34.1.71.26,1.02.03.06.51-.08.81-.13-.04-.35-.09-.7-.13-1.05-.31.05-.62.11-.93.16ZM326.66,463.8c-.34-.5-.56-.82-.79-1.14-.24.5-.6.97-.67,1.49-.04.28.4.62.62.94.29-.45.58-.9.84-1.29ZM325.26,384.34c.91-1.16,1.39-1.52,1.47-1.95.1-.55-.11-1.16-.18-1.75-.43.2-1.16.32-1.23.61-.18.68-.06,1.43-.06,3.09ZM325.65,469.22c-.14.5-.37,1.01-.37,1.51,0,.2.53.39,1.03.74.07-.67.22-1.2.14-1.7-.03-.21-.52-.37-.8-.55ZM326.06,369.69c.13-.37.26-.74.4-1.12-.18-.31-.36-.63-.55-.94-.22.27-.67.59-.61.79.13.46.5.85.77,1.27ZM325.37,349.31c0,.32.34.63.52.94.3-.39.6-.78,1.37-1.77-.58-.25-1.07-.46-1.56-.67-.12.5-.34,1-.33,1.5ZM325.37,430.86c-.03.34.24.7.38,1.05.23-.23.46-.47.71-.71-.14-.36-.29-.71-.43-1.07-.23.24-.63.47-.66.73ZM329.01,380.47c.07.92.35,2.54.72,2.59,1.75.24,1.85-1.2,1.83-2.4-.02-1.07-.29-2.13-.47-3.29-1.95.67-2.18,1.87-2.09,3.1ZM331.88,405.66c-.53-.86-.8-1.3-1.08-1.74-.45.29-1.14.5-1.31.9-.29.72-.14,1.61.91,1.65.46.02.94-.51,1.47-.81ZM331.5,476.75c-.02-.73-.19-1.82-.69-2.09-1.12-.62-1.27.4-1.33,1.2-.06.96-.41,2.02.86,2.59,1.25,0,1.18-1,1.16-1.7ZM329.58,446.86c-.13.28.06.7.12,1.11.36-.2.83-.32.95-.58.12-.29-.1-.7-.17-1.07-.32.18-.78.29-.91.54ZM331.66,425.11c.01-.65-.37-1.3-.95-3.07-.65,1.8-1.11,2.49-1.07,3.14.05.71.51,1.95.9,1.99,1.73.19,1.1-1.24,1.11-2.06ZM329.64,370.5c.26.23.52.45.78.68.12-.15.38-.4.36-.42-.23-.25-.49-.47-.75-.69-.13.14-.25.28-.38.42ZM330.31,437.05c.78.4,1.12-.07.99-.76-.06-.29-.48-.62-.81-.73-.17-.06-.5.34-.77.54.19.32.3.8.59.95ZM330.99,418.59c.34-1.11.64-1.64.64-2.18,0-.61-.3-1.25-1.13-.79-.27.15-.46.73-.4,1.08.07.48.41.93.89,1.9ZM330.38,354.04c.15.27.34.51.53.77.17-.12.44-.3.43-.31-.16-.26-.36-.5-.55-.75-.14.1-.42.28-.41.3ZM330.99,391.24c-.14.07-.38.14-.38.21-.02.32.02.65.06.98.14-.07.39-.13.39-.2.01-.33-.04-.66-.07-.99ZM333.76,383.8c1.04,1.17-.6,3.03,1.3,4.07.39-2.16.84-4.31,1.13-6.48.16-1.15.28-2.43-1.26-3-.38,1.74-.76,3.49-1.18,5.4ZM334.2,427.37c.37,1.19-.84,3.37,1.13,3.44,1.49.05.84-1.89.86-3.56-.05-.61.45-2.45-.9-2.58-1.72-.17-1.4,1.73-1.1,2.7ZM335.85,438.12c-2.51-.44-1.58,2.66-1.69,4.13-.16,2.11.43,4.27.7,6.41,2.37-1.5.8-3.89,1.6-5.97-1.08-1.43,1.9-4.13-.61-4.57ZM334.78,419.04c-.22.29-.67.77-.62.84.31.35.75.6,1.14.88.12-.35.24-.7.37-1.07-.3-.22-.6-.43-.89-.65ZM334.34,370.3c.16.64-.22,1.89,1.18,1.49.35-.1.64-1.03.59-1.55-.07-.71-.5-1.38-.78-2.07-1.46.53-1.18,1.39-.99,2.13ZM334.39,359.43c.02.26.46.5.71.74.19-.32.54-.66.51-.95-.03-.29-.46-.54-.74-.83-.18.37-.5.72-.48,1.04ZM336.02,411.54c-.19-.48-.56-.88-.86-1.32-.27.23-.79.5-.76.68.1.49.42.94.69,1.49.44-.39.98-.73.93-.85ZM334.43,395.4c.12.47.39.9.61,1.35.25-.26.5-.52.75-.78-.18-.36-.35-.7-.52-1.05-.3.16-.86.39-.84.48h0ZM334.45,347.9c.16.34.65.53.99.78.08-.35.27-.72.19-1.03-.08-.31-.42-.57-.71-.93-.23.53-.58.96-.47,1.17ZM335.04,458.34c.1-.14.2-.28.31-.43-.19-.22-.39-.44-.58-.66-.11.14-.34.34-.3.4.15.25.37.46.57.68ZM336.23,473.31c-.25-.15-.49-.32-.76-.42-.05-.02-.22.24-.33.38.25.15.5.29.76.44.11-.13.22-.26.34-.39ZM340.07,395.07c.35-2.1.7-4.21.92-5.59-.34-2.74-.58-4.71-.82-6.68-1.89,1.81-1.13,4.13-.92,6.14.21,2.04-.85,4.29.83,6.14ZM338.98,363.37c.42,1.12.8,2.09,1.17,3.08.15-1.17.31-2.34.44-3.52.09-.76.35-1.8-.95-1.54-.35.07-.45,1.29-.66,1.98ZM339.18,413.66c-.04.62.55,1.27.85,1.91.34-.86.68-1.71.98-2.46-.42-1.3-.76-2.35-1.1-3.4-.26,1.31-.66,2.63-.73,3.95ZM340.68,441.25c.05-.73-.17-1.48-.36-2.91-.64.99-1.07,1.36-1.11,1.78-.06.55-.02,1.3.33,1.66.62.66,1.11.05,1.15-.53ZM340.99,465.12c-.31-.53-.51-.86-.7-1.18-.37.35-.85.64-1.05,1.06-.1.22.3.66.47.99.43-.29.85-.58,1.28-.87ZM340.63,428.13c-.16-1.04-.4-2.58-.64-4.13-.25,2.36-.58,4.71-.71,7.07-.03.62.55,1.27.85,1.91,2-1.26.48-2.87.49-4.85ZM339.38,340.51c.07.75.3,1.48.53,2.47.36-.5.72-.77.69-.99-.11-.73-.36-1.44-.55-2.15-.24.23-.69.47-.67.68ZM340.62,472.32c-.26-.2-.53-.41-.79-.61-.13.34-.4.7-.35,1.01.04.24.47.42.73.62.14-.34.28-.67.4-1.02ZM340.14,452.05c-.12-.05-.33.13-.5.2.17.25.34.5.52.74.1-.16.2-.33.29-.49-.1-.16-.17-.4-.31-.46ZM339.87,353.6c-.06.17-.23.38-.17.49.12.25.36.45.54.68.07-.18.14-.35.22-.53-.2-.22-.39-.43-.59-.64ZM340.16,401.08c-.17.06-.48.12-.47.17.03.35.12.7.19,1.05.16-.06.32-.13.51-.2-.07-.34-.15-.68-.23-1.02ZM339.72,312c.1.09.2.18.3.27.06-.14.13-.27.19-.41-.16.05-.32.09-.49.14ZM345.97,346.64c-.41-.71-.79-1.36-1.17-2.01-.45.56-1.27,1.14-1.25,1.69.02.58.84,1.14,1.31,1.7.33-.41.66-.82,1.12-1.38ZM343.91,333.43c.33,2.3.55,3.84.76,5.38,1.73-1.71,1.03-3.92,1.11-5.89.07-1.48-.55-3-.87-4.5-.38,1.9-.76,3.8-1.01,5.01ZM345.75,377.74c-.21-.41-.51-1.03-.82-1.66-.33.64-.82,1.26-.93,1.94-.07.47.3,1.38.63,1.46,1.38.32.87-.82,1.11-1.75ZM344.05,394.39c.03.36.26.94.53,1.02.88.26,1.03-.34.81-.97-.12-.33-.51-.56-.8-.83-.19.26-.56.53-.54.78ZM345.52,405.33c-.12-.64-.2-1.02-.27-1.4-.32.35-.75.65-.92,1.05-.13.29.09.71.16,1.08.37-.27.75-.53,1.03-.73ZM344.79,363.78c-.16.69-.48,1.4-.45,2.08.08,1.54.33,3.07.51,4.61,1.45-.78.19-2.07.8-3.38-1.45-.7,1.38-2.44-.86-3.31ZM344.54,388.44c.29.04.59-.02.92-.04-.08-.34-.16-.68-.23-1.02-.27.18-.57.32-.78.55-.08.08.04.5.1.51ZM348.68,401.42c.02.22.6.63.78.57,1.37-.47,1.01-1.73,1.28-2.7-1,.43-2.19.69-2.06,2.13ZM348.72,313.19c-.03.35.5.74.78,1.11.31-.43.62-.87,1.05-1.46-.41-.42-.75-.76-1.08-1.1-.27.48-.72.96-.76,1.46ZM349.3,319.25c.34-.32.67-.64,1.01-.96-.27-.22-.54-.44-.85-.69-.25.26-.67.5-.68.76-.02.29.34.59.52.89ZM351.08,353.31c-.24-.56-.37-1.67-.87-1.86-1.15-.42-1.28.55-1.12,1.37.15.78.27,2.05.71,2.19,1.23.39.76-.93,1.27-1.7ZM349.64,342.8c-.12.9-.29,1.42-.22,1.91.04.24.51.43.78.64.1-.5.28-1,.26-1.49-.01-.27-.38-.51-.82-1.06ZM355.45,272.63c-.46-.66-.87-1.25-1.28-1.84-.21.49-.54.97-.6,1.48-.08.67-.45,1.66.75,1.74.3.02.66-.78,1.13-1.38ZM354.71,355.16c-.18-.32-.36-.64-.54-.97-.23.24-.7.53-.66.7.11.44.45.83.7,1.24.17-.32.33-.64.5-.97ZM354.93,338.4c.05-.32-.15-.87-.42-1.02-.94-.52-.97.29-.96.81,0,.3.36.6.58.93.3-.25.76-.46.8-.72ZM353.76,264.12s.31.1.49.16c.07-.33.17-.65.19-.99,0-.05-.31-.12-.48-.18-.07.33-.16.67-.2,1.01ZM354.82,346.06c-.27-.1-.55-.19-.82-.29-.05.15-.17.41-.14.43.25.14.53.23.8.34.05-.15.1-.3.16-.47ZM355.01,306.43c-.31-.11-.6-.21-.9-.31-.03.3-.09.61-.07.9,0,.07.41.21.45.16.2-.21.33-.48.51-.75ZM358.78,262.99c-.22,1.74-.45,3.48-.63,4.91.53,2.14-1.21,4.27,1.09,5.77.24-1.35.93-2.81.63-4.03-.56-2.21,1.14-4.74-1.08-6.65ZM359.88,280.49c-.24-.34-.52-.75-.8-1.14-.18.3-.55.63-.5.89.08.46.41.88.64,1.32.19-.3.37-.61.66-1.07ZM358.97,311.45c.13-.11.39-.22.38-.31-.03-.32-.16-.64-.27-.95-.13.11-.38.24-.37.33.04.32.17.62.26.93ZM359.55,321.47c-.06-.33-.22-.64-.34-.97-.18.13-.48.27-.47.35.07.33.23.64.36.96.16-.11.45-.25.44-.33ZM365.08,287.34c-.72-.87.76-2.4-1.21-2.7-.11-.02-.66,1.33-.61,2.02.09,1.32.46,2.61.72,3.92.36-1.05.72-2.11,1.11-3.24ZM363.72,277.33c.15.25.39.44.59.66.09-.15.18-.29.27-.44-.19-.21-.39-.42-.58-.63-.1.14-.32.35-.28.41ZM363.85,265.7c.12.1.24.21.37.31.07-.16.15-.32.22-.47-.19.05-.39.11-.59.16ZM369.86,272.52c-.67-.72-1.16-1.25-1.65-1.78-.2.51-.6,1.04-.53,1.52.07.48.61.89.94,1.34.35-.31.7-.61,1.24-1.08ZM369.45,294.11c-.18-.35-.28-.84-.55-.96-.25-.11-.69.18-1.05.29.25.45.5.9.75,1.35.28-.22.56-.44.85-.67ZM369.15,283c-.11-.32-.19-.63-.34-.91-.02-.04-.48.03-.51.13-.11.3-.11.64-.16.97.34-.06.67-.11,1.01-.18ZM368.27,261.3c.11.11.23.23.35.34.13-.1.26-.21.38-.32-.12-.11-.24-.31-.36-.31-.13,0-.25.19-.38.29ZM368.86,286.27c-.03.34.03.69.07,1.04.18-.06.51-.1.52-.17.04-.36-.02-.72-.04-1.09-.21.08-.54.14-.55.22ZM373.82,268.56c.08-.18-.36-.56-.59-.88-.24.29-.61.54-.65.84-.05.31.21.66.33,1,.32-.31.75-.58.91-.96Z"/>
</svg>