<?xml version="1.0" encoding="UTF-8"?>
<svg id="Design" xmlns="http://www.w3.org/2000/svg" version="1.1" viewBox="0 0 607.61 198.26">
  <!-- Generator: Adobe Illustrator 30.6.0, SVG Export Plug-In . SVG Version: 2.1.4 Build 75)  -->
  <defs>
    <style>
      .st0 {
        stroke-width: 1.03px;
      }

      .st0, .st1 {
        stroke-miterlimit: 1;
      }

      .st0, .st1, .st2 {
        fill: #224935;
        stroke: #224935;
      }

      .st3 {
        fill: none;
        stroke: #214b35;
        stroke-width: 2px;
      }

      .st3, .st2 {
        stroke-miterlimit: 10;
      }

      .st4 {
        fill: #214b35;
        font-family: AmberWhiskeyAged, 'Amber Whiskey';
        font-size: 17.58px;
      }
    </style>
  </defs>
  <g>
    <g>
      <path class="st1" d="M124.68,40.58c-1.33,1.2-2.21-.94-2.98-1.6-4.19-3.59-8.73-4.36-14.12-3.93-7.07.57-14.22-.08-21.34.05-2.35.04-2.68-1.1-2.76-2.98-.04-1-.28-2-.43-2.99-.14,1.03-.41,2.06-.41,3.09,0,2.79-2.33,2.59-3.8,2.82-2.3.36-2.75,1.44-2.76,3.62-.06,22.39-.1,44.78-.42,67.17-.06,4.21-1.17,8.36,2.76,11.41.36.28.31,1.28,1.04,1.02.25-.09.21-1,.33-1.53.5-2.21-1.06-6.19,1.35-6.25,1.97-.05.67,4.1.92,6.38.19,1.74.43,3.47.65,5.2.24-1.76.94-3.61.64-5.26-1.17-6.47,1.52-7.92,7.15-6.8,3.87.77,3.07-4.63,5.95-5.57.52-.17.68-2.83,1.53-.38,3.72,10.77,7.25,21.62,10.87,32.43.2.6.53,1.26-.26,1.44-.45.1-1.22-.26-1.51-.66-2.87-3.92-6.7-5.78-11.4-5.27-2.66.29-2.39-2.05-3.35-3.3-.91.93.24,3.42-2.11,3.15-1.4-.16-3.47.71-3.8-1.91-.04-.33-.4-.62-.61-.94-.74,7.13-5.44,1.59-8.01,2.22-2.16.52-2.2.6-2.21,2.49-.11,17.39-.18,34.79-.58,52.18-.09,3.93,3.04,5.34,4.39,8.08.25.5,1.49.47,1.34,1.44-.15.94-1.04.99-1.76.99-9.61.01-19.23.02-28.84-.04-.63,0-1.25-.59-1.87-.9.52-.9.84-2.27,1.59-2.61,4.26-1.96,4.06-5.86,4.08-9.56.14-17.43.13-34.86.31-52.28.04-3.57-2.81-4.85-4.58-6.79-2.36-2.58-3.5-4.1.23-6.48,3.24-2.07,4.51-5.31,4.49-9.59-.11-21.67.15-43.34.26-65.02.02-4.69-.42-9.42.03-14.06.58-5.96-.08-11.04-5.45-14.43-.52-.33-1.17-1.42-1-1.73.46-.87,1.24.04,1.9.03,10.27-.09,20.53-.28,30.8-.19,1.75.01,4.28-1.02,5.24,1.89.19.58.3,1.13.99.19,2.62-3.59,6.54-2.6,9.83-2.26,4.88.51,9.73.49,14.6.39,2.42-.05,4.08.02,5.09,3.22,2.2,6.99,5.25,13.69,7.81,20.57.44,1.19.78,3.32.18,3.86ZM55.74,126.5c-.02.49.32,1,.49,1.5.19-.68.38-1.37.54-1.96-.23-.97-.42-1.78-.61-2.59-.15,1.02-.38,2.04-.42,3.06ZM56.64,155.53c-.14-.21-.24-.54-.41-.58-.17-.04-.42.2-.63.32.17.28.35.56.53.84.17-.19.34-.38.51-.57ZM56.04,135.1c-.11.2-.25.39-.31.61-.02.07.12.2.18.31.17-.13.34-.26.53-.4-.14-.18-.27-.35-.39-.52ZM55.99,113.14c.49.48.6-.12.64-.47.05-.39-.03-.79-.06-1.29-.3.25-.61.38-.64.55-.07.4-.15,1,.06,1.2ZM56.01,93.7c0,.54.16,1.08.25,1.62.23-.26.63-.51.66-.79.05-.56-.11-1.13-.26-2.31-.38.85-.64,1.16-.64,1.48ZM56.91,142.86c-.13-.37-.4-.69-.62-1.02-.17.19-.49.39-.48.56.04.36.25.71.42,1.14.33-.32.72-.58.68-.68ZM56.74,68.47c-.07.06-.06.21-.09.32.1.02.2.05.3.07.03-.11.06-.22.09-.33-.1-.02-.25-.1-.29-.06h0ZM58.55,137.83c-.02.39.5,1.11.84,1.15.74.08.72-.67.76-1.53-.17-.23-.47-.64-.78-1.06-.29.48-.79.95-.82,1.44ZM60.77,105.01c-1.21-2.52.63-5.4-1.13-7.8-1.25,2.51.12,5.29-.78,7.84-.04.12.02.31.09.43,1.32,2.14-1.27,4.72.69,6.78,2.03-2.2-.32-4.97,1.12-7.25ZM59.65,116.24c-1.13-.04-.18,1.47-.58,2.45.55.59-1.27,2.05.52,2.27.98.12.67-1.4.74-2.19.09-.93.61-2.5-.67-2.54ZM59.26,79.04c.06,1.4-.33,2.89.76,4.08.2-1.15.68-2.35.53-3.44-.16-1.18.43-3.2-.98-3.36-.92-.11-.3,1.74-.31,2.72ZM59.7,144.41c-1.34,1.87-.5,4.02-.75,6.03-.25,2.01-.8,4.06.56,5.9.22-1.9.44-3.81.52-4.53.04-3.27.59-5.39-.33-7.4ZM59.64,88.77c-.22,0-.65,1.23-.62,1.87.03.78-.16,1.83.94,2.17.18-.68.37-1.36.58-2.16-.76-.49.7-1.87-.9-1.89ZM59.42,70.02c.02.48.42,1,.82.48.31-.4.31-1.14.28-1.72-.01-.33-.35-.64-.93-1.59-.1,1.42-.21,2.14-.18,2.84ZM59.81,172.97c.05-.36-.17-.76-.36-1.48-.32.68-.61,1.04-.62,1.4,0,.35.27.71.42,1.06.2-.32.52-.63.56-.98ZM59.69,177.93c-.23-.07-.45-.16-.67-.18-.05,0-.21.31-.17.37.14.21.35.39.53.57.1-.25.2-.5.3-.76ZM59.44,126.3c.2-.09.4-.19.68-.32-.12-.39-.25-.79-.38-1.18-.14.22-.37.43-.41.67-.05.26.06.56.11.84ZM59.28,160.94c-.06.54-.2,1.09-.16,1.62.07.82.28,1.62.44,2.43.08-.71.16-1.43.22-2-.2-.78.54-1.64-.5-2.05ZM59.51,192.63c-.01-.24-.07-.49-.11-.74-.11.06-.3.12-.3.16.02.24.08.48.12.72.1-.05.28-.1.28-.15ZM62.63,158.85c.08.03.5-.46.45-.62-.1-.36-.34-.85-.62-.94-.28-.09-.69.26-1.34.55.91.63,1.18.9,1.51,1.01ZM63.52,146.87c-.75-2.07,1.24-5.4-.97-5.79-1.29-.23-.09,3.57-.25,5.54-.01.15-.02.31.02.45.6,1.74-2.05,4.94.29,4.96,2.37.02-.09-3.46.9-5.16ZM63.26,163.72c-.05-.57.03-1.28-.77-1.2-.21.02-.58.72-.51,1.01.44,1.9-1.41,4.09.61,5.76.84-1.77.85-3.66.67-5.56ZM63.92,99.35c-.09-1.29.68-3.41-.98-3.63-1-.13-.42,2.03-.77,3.11-.06.99-.56,2.46.62,2.71,1.58.33,1.18-1.42,1.13-2.19ZM63.64,109.82c-.16-.54-.41-1.78-.55-1.77-1.2.13-.73,1.32-.98,2.05-.26.73-.02,1.68.84,1.64,1.15-.05.35-1.17.7-1.92ZM62.41,79.65c.03.67.19,1.34.29,1.99,1.14-.12,1.13-.83,1.1-1.38-.03-.56-.13-1.42-.47-1.6-.8-.41-.95.36-.92.98ZM62.33,179.37c-.47.73-.78,1.49-.15,2.28.07.09.59,0,.68-.15.54-.9.01-1.52-.52-2.13ZM62.47,71.5c.03.36.29.96.53,1,.82.15.81-.56.71-1.1-.06-.34-.38-.63-.75-1.18-.25.6-.52.95-.5,1.28ZM63.57,120.7c-.04-.35-.41-.65-.77-1.2-.27.53-.57.86-.55,1.16.02.38.23,1,.49,1.07.82.25.91-.48.84-1.04ZM63.26,86.59c.19-.33.37-.67.59-1.06-.31-.36-.55-.65-.8-.94-.2.44-.51.87-.56,1.33-.02.2.49.45.76.68ZM63.21,174.63c0-.14-.55-.44-.59-.39-1.46,1.46.19,3.11-.28,4.65-.03.09-.02.2,0,.31,1.16-1.34.87-2.99.87-4.57ZM63.62,116.32c-.23-.3-.45-.59-.68-.88-.19.18-.56.42-.53.53.09.35.34.65.53.97.19-.17.37-.35.68-.63ZM62.62,187.79c-.11-.05-.24-.16-.32-.13-.08.03-.11.2-.16.31.11.05.24.16.32.13.08-.03.11-.2.15-.32ZM62.59,169.43c-.33.63-.58,1.27.16,1.82.06.05.32-.04.36-.13.35-.74.36-1.38-.52-1.69ZM63.04,90.67c-.09.09-.25.19-.24.27.01.11.16.19.32.35-.03-.26-.05-.44-.07-.62ZM63.23,18.49c.1.09.2.17.3.26.12-.06.3-.1.35-.2.04-.1-.06-.26-.09-.4-.19.11-.37.23-.56.34ZM63.39,67.26c-.13.18-.27.35-.4.53.1.07.27.23.29.21.15-.14.28-.31.39-.49,0-.01-.18-.15-.29-.25ZM63.93,29.81v-.78c-.21.06-.43.1-.62.2-.06.03-.06.35,0,.38.19.1.42.14.63.2ZM63.23,128.67c-.09.02-.23.02-.25.08-.05.11-.05.26-.06.38.12-.02.3,0,.36-.09.05-.08-.02-.25-.04-.38ZM66.95,102.87c-.5-2.11.73-4.49-.93-6.38-.25,2.18-.51,4.37-.77,6.58.77,2.59-1.04,5.68,1.51,7.92.47-2.7.81-5.43.18-8.11ZM65.17,152.38c.26.47.78,1.16,1.14,1.13.81-.07.61-.86.41-1.4-.18-.49-.52-.92-.76-1.32-1,.42-1.11,1.02-.79,1.6ZM66.51,69.65c.93.13.72-1,.83-1.71-.53-.75.07-2.11-1.22-2.5-.18.68-.49,1.35-.52,2.04-.05.85-.05,2.05.92,2.17ZM66.05,145.05c.23-1.59.77-3.21.61-4.75-.18-1.77,1.36-4.23-.98-5.07-.45-.16,0,3.27-.38,5.14.45,1.46-1.04,3.33.75,4.68ZM66.03,170.39c-.84-.13-1.05.51-.99,1.1.09.88.38,1.73.59,2.59.35-.44.83-.83,1.03-1.34.36-.89.33-1.79-.63-2.35ZM65.65,159.85c-.14,1-.28,2-.43,3.01-.09,1.13-.46,2.33.78,3.1.26-.66.82-1.37.74-1.97-.2-1.4-.71-2.75-1.09-4.13ZM65.67,77.19c-.03.73-.06,1.59.97,1.55.17,0,.32-.69.5-1.13-.55-.5-.06-1.63-1.14-1.61-.12,0-.31.77-.33,1.19ZM65.39,126.27c.01.51.23,1.01.69,2.8.3-1.8.46-2.3.45-2.79-.01-.39-.18-1.07-.38-1.11-.82-.17-.78.6-.76,1.09ZM66.04,190.08c-.04-.32-.3-.61-.72-1.38-.13,1.11-.26,1.68-.22,2.23.02.17.54.28.83.42.04-.43.16-.86.1-1.27ZM65.75,89.31c-.08.3.24.72.38,1.09.33-.24.79-.4.94-.73.12-.26-.12-.71-.26-1.32-.51.43-.98.65-1.07.96ZM66.47,73.6c.19-.15.38-.31.57-.46-.2-.29-.32-.62-.48-.64-.2-.02-.43.21-.65.33.19.26.37.51.56.77ZM66.41,112.68c-.22-.04-.44-.08-.66-.11.06.5.12,1.01.19,1.54.16-.48.32-.95.47-1.42ZM65.82,116.67c.13,0,.26-.02.38-.03-.09-.76-.17-1.53-.26-2.29-.04.78-.08,1.55-.13,2.32ZM66.19,57.79l.24-.1-.18-.22-.06.32ZM69.22,154.05c1.01-2.42.78-4.95.71-7.47,0-.15,0-.31-.04-.45-.75-1.99,1.85-5.22-.55-5.72-1.23-.26-.07,3.99-.56,5.65-.35,3.03-.39,5.55.44,8ZM69.59,181.2c-.3-.89.71-3.01-.65-4.76-.21,2-.63,4.01-.55,5.99.08,1.79-.47,3.79.94,5.36.83-1.81.57-3.71.25-6.59ZM69.61,111.74c1.01-1.53.23-3.21.42-4.81-.37-2.17.75-4.47-.54-6.55-1.03,2.17-.39,4.48-.49,6.72-.07,1.54-.67,3.26.6,4.65ZM69.84,77.47c.18-1,.37-2.01.56-2.99-.26-1.04-.51-2.01-.75-2.97-.19,1.27-.5,2.53-.54,3.81-.02.73-.43,1.79.73,2.15ZM70.57,119.04c-.34-1.22-.61-2.2-.88-3.18-1.23.96-.82,2.35-.81,3.59,0,1,.28,2,.44,2.99.43-1.17.86-2.35,1.25-3.4ZM69.68,84.76c-.2.68-.58,1.36-.57,2.03.03,1.16.3,2.32.46,3.49.25-.82.51-1.63.81-2.59-.23-.94-.47-1.93-.7-2.93ZM69.4,45.95c.07.12.11.29.21.34.09.04.24-.05.38-.09v-.42c-.2.05-.39.11-.59.16ZM69.38,128.72c-.15.68-.43,1.37-.44,2.05,0,1.15.17,2.31.27,3.46.37-1.08.73-2.16,1.03-3.04.1-1.15.22-2.05-.86-2.47ZM69.43,191.77c-.03-.35-.05-.99-.67-.54-.15.11-.15.56-.1.83.04.22.27.4.47.67.15-.43.33-.71.31-.96ZM69.64,31.52c-.02.21.17.44.28.7.16-.2.41-.36.42-.54.01-.22-.18-.44-.29-.66-.15.17-.39.33-.41.51ZM70.5,165.12c-.13-.26-.32-.62-.51-.98-.29.43-.7.83-.83,1.31-.07.28.25.95.47.99.85.14.77-.61.86-1.32ZM73.8,122.62c-1.36-1.73,1.29-4.85-1.3-5.71-.75-.25.35,3.64-.54,5.51-.05.12.01.29.02.44.13,1.98-.82,4.13.82,5.87,1.44-1.81.36-4.01,1-6.11ZM73.21,150.38c-.17-1.43-.33-2.86-.5-4.28-1.26,1.84-.97,3.98-.95,6.01.01,1,.2,3.18.96,2.76,1.62-.88.24-2.94.49-4.49ZM72.59,29.64c.19.15.43.46.57.41.2-.06.33-.38.5-.59-.2-.16-.47-.48-.57-.43-.21.1-.34.39-.51.61ZM73.36,111.69c.13-.65.5-1.66-.53-1.76-.66-.06-.71.76-.65.99.23,1.09.38,2.39.51,2.39,1.09-.03.54-1.02.67-1.61ZM72.3,175.42c.18-.17.36-.35.55-.52-.1-.27-.13-.68-.31-.78-.58-.29-.76.16-.71.63.03.24.31.44.47.66ZM73.8,82.59c-.17-1.06-.39-2.37-.61-3.68-.96,1.6-.58,3.39-.67,5.11-.04.76-.6,2.34.54,2.06,1.24-.3.31-2.11.74-3.49ZM72.95,178.73c-.09-.33-.38-.61-.59-.91-.16.21-.31.42-.54.73.25.29.5.59.76.88.14-.24.42-.52.37-.7ZM73.72,54.62c-.12-.32-.25-.64-.38-.96-.18.14-.37.28-.56.43.1.25.13.57.3.71.11.09.41-.1.63-.17ZM72.52,106.68c.11.19.28.35.46.54.1-.24.19-.46.28-.67-.19-.07-.38-.16-.57-.19-.04,0-.2.26-.17.32ZM72.57,98.54c-.02.45.35.89.67.39.25-.38.08-1.07.04-1.62-.01-.16-.22-.31-.39-.53-.12.65-.29,1.2-.31,1.76ZM72.54,141.74c.22-.23.53-.42.63-.69.06-.17-.22-.46-.36-.72-.17.22-.41.41-.45.63-.04.24.11.52.18.78ZM73.09,19.07c-.01.42.1.83.16,1.25.16-.23.44-.45.47-.7.05-.38-.06-.77-.13-1.34-.26.38-.5.58-.5.79ZM72.81,92.01c.2-.07.56-.15.56-.22,0-.26-.13-.52-.22-.83-.17.23-.35.42-.45.64-.04.1.07.27.11.41ZM72.72,190.92c-.18.28-.28.42-.37.55.11.02.22.04.32.06.01-.14.02-.28.05-.61ZM75.68,122.85c.04.34.44.63.85,1.16.15-.66.32-1.05.31-1.43,0-.2-.33-.38-.51-.57-.23.28-.67.59-.64.85ZM77.09,28.26c-.03-.28-.06-.57-.08-.85-.22.08-.56.11-.62.25-.09.23.02.54.05.81.21-.07.43-.14.66-.21ZM76.2,118.21c.17.02.34.04.51.06-.02-.12,0-.27-.07-.35-.06-.06-.21-.04-.32-.05-.04.12-.07.23-.11.34ZM78.52,122.43c.15.47.62.82.94,1.23.19-.32.38-.65.65-1.11-.3-.51-.51-1.3-.84-1.35-.76-.12-.93.65-.75,1.23ZM80.29,30.24c.02-.23-.2-.5-.31-.74-.25.23-.68.44-.71.7-.04.34.22.72.49,1.46.27-.71.48-1.06.52-1.42ZM79.94,127.03c.02-.26,0-.52-.02-.78-.15.03-.39.05-.4.08-.01.25.02.51.04.76.13-.02.37-.03.38-.06ZM82.91,18.91s-.35.75-.3,1.11c.17,1.21.46,2.4.7,3.6.07-.88.14-1.76.22-2.65-.23-.7.88-1.81-.62-2.06ZM84.98,122.52c.02.65.64,1.09,1.17.74.31-.2.35-.99.33-1.51,0-.27-.41-.52-.86-1.03-.3.8-.66,1.3-.64,1.79ZM85.07,114.84c.27.64.37,1.45.74,1.62.96.45.78-.44.69-.94-.1-.51-.37-.98-.57-1.47-.27.24-.53.49-.86.79ZM86.95,32.5c-.05-.13-.1-.27-.14-.41-.16.16-.35.3-.47.49-.04.06.09.25.15.38.15-.15.31-.3.47-.46ZM89.28,111.67c-.36.65-.71,1.01-.71,1.36,0,.24.51.46.79.69.15-.24.45-.48.43-.71-.03-.36-.25-.71-.51-1.35h0ZM90.18,30.75c-.18-.2-.36-.39-.54-.59-.16.18-.33.34-.46.54-.02.03.18.3.26.29.24-.03.48-.15.74-.24ZM90.6,18.78c-.13-.35-.31-.84-.5-1.34-.3.47-.79.92-.83,1.42-.04.49.35,1.42.6,1.45.9.07.43-.83.73-1.52ZM90.12,127.99c-.38-.24-.68-.43-.98-.62-.17.38-.5.77-.47,1.12.03.28.5.51.77.76.2-.37.39-.73.68-1.26ZM89.95,124.25c.06-.35-.19-.76-.39-1.42-.32.62-.57.97-.66,1.36-.05.22.18.5.28.75.27-.23.72-.42.77-.68ZM89.77,116.66c-.2-.15-.37-.28-.55-.42-.09.21-.2.41-.25.62-.01.05.22.23.27.2.19-.1.34-.26.53-.41ZM89.13,119.08c-.03.13-.11.28-.07.38.03.08.21.1.29.14.11-.1.21-.19.31-.28-.18-.08-.36-.16-.53-.23ZM90.48,24.75c-.13-.17-.33-.27-.53-.42-.06.31-.11.57-.16.83.21,0,.44.02.64-.02.04,0,.1-.31.05-.39ZM92.38,128.58c.59-.66,1.09-1.37.79-2.31-.04-.14-.85-.25-.95-.11-.57.82-.45,1.66.16,2.42ZM91.96,119.06c.03.87-.02,2.35.34,2.48.81.3,1.06-.83,1.05-1.47-.02-.83-.38-1.65-.88-3.55-.32,1.55-.53,2.05-.51,2.54ZM93.85,21.85c-.31-.39-.54-.68-.76-.96-.19.19-.52.37-.53.57-.01.4.14.81.23,1.21.3-.23.61-.47,1.06-.82ZM92.85,14.87c.23.1.5.34.68.27.17-.06.23-.43.34-.68-.25-.11-.54-.35-.7-.27-.17.08-.22.44-.33.68ZM97.11,24.83c-.19-.5-.44-1.72-.68-1.71-1.02.02-.65,1.07-.68,1.66-.03.66.32,1.93.45,1.93.99-.06.61-1.04.9-1.87ZM95.48,118.65c-.01.21.22.43.35.64.16-.19.32-.37.49-.57-.14-.23-.28-.44-.41-.66-.16.19-.42.38-.43.58ZM95.92,124.26c-.17.33-.45.66-.47,1-.01.38.22.76.35,1.14.22-.34.44-.68.72-1.1-.21-.37-.4-.71-.59-1.04ZM96.67,32.11c-.09-.12-.18-.23-.26-.33-.11.22-.24.43-.31.65-.02.08.14.21.22.32.12-.22.24-.43.35-.64ZM98.72,123.64c.72.25.92-.32,1.02-1.09-.07-.25-.09-.94-.3-1-.83-.27-.73.59-.86,1.03-.1.33-.02,1.01.13,1.07ZM100.46,22.28c-.19-.38-.42-.83-.64-1.27-.22.68-.53,1.34-.63,2.03-.05.34.33,1.06.46,1.05,1.07-.11.6-1.06.82-1.8ZM99.48,128.45c.02-.07-.12-.2-.2-.31-.11.22-.24.43-.31.66-.02.07.13.19.2.29.11-.21.24-.41.31-.64ZM100,31.5c.03-.14.06-.28.08-.43-.09-.1-.18-.21-.27-.31-.09.1-.19.2-.28.3.15.15.31.29.46.44h0ZM101.83,126.31c.31.88-.41,2,.85,2.37.15-.55.49-1.14.4-1.65-.12-.78.37-1.87-.78-2.28-.17.55-.33,1.11-.47,1.56ZM103.73,22.05c-.12-.2-.24-.4-.38-.63-.12.23-.26.43-.33.65-.02.07.16.3.19.28.18-.08.35-.2.52-.31ZM106.47,31.01c-.06-.24-.21-.46-.33-.68-.16.2-.31.4-.47.61.19.15.39.3.58.45.08-.13.24-.28.21-.37ZM106.76,15.78c-.02-.21-.3-.4-.47-.59-.16.19-.43.38-.43.58,0,.19.26.38.43.6.18-.21.49-.41.48-.59ZM110,21.35c-.02-.56-.16-1.11-.35-2.3-.23,1.02-.39,1.41-.39,1.79,0,.56.03,1.57.19,1.6.94.18.56-.63.55-1.08ZM113.35,21.07c-.04-.16-.35-.24-.56-.37-.07.24-.22.51-.16.71.05.17.36.25.55.37.07-.24.23-.51.17-.71ZM116.91,25.78c-.24-.27-.48-.54-.73-.82-.18.2-.54.48-.5.6.12.35.4.65.62.97.16-.21.33-.41.6-.75Z"/>
      <path class="st1" d="M216.12,196.15c-.23.38-1.36.23-2.07.24-4.83.02-9.66.01-14.49.01v.1c-4.82,0-9.64.01-14.46-.01-.8,0-1.93.57-2.25-.58-.15-.54.33-1.51.81-1.97,3.55-3.41,3-6.78,1.7-11.43-3.76-13.42-7.77-26.75-11.77-40.09-.86-2.88-1.7-5.79-2.92-8.51-1.67-3.73-5.17-1.87-7.8-1.96-2.51-.09-1.97,2.44-1.94,4.21.14,9.47,1.12,19.02.16,28.36-.74,7.19.83,14.22-.26,21.3-.46,3,1.7,4.62,3.5,6.4,1.05,1.04,2.05,2.29,1.76,3.84-.05.29-2.11.24-3.25.25-8.98.04-17.95.08-26.93.07-.78,0-1.96.56-2.27-.6-.14-.52.39-1.52.9-1.9,6.1-4.65,5.23-11.29,5.19-17.86-.08-14.18-.21-28.37.36-42.53.19-4.6-2.31-6.56-4.79-8.88-2.27-2.13-3.65-4.26-.44-6.27,7.26-4.56,4.87-11.99,5.18-18.32.51-10.28-.14-20.6.07-30.9.31-15.46.84-30.91.06-46.37-.21-4.25-3.54-5.61-5.4-8.32-.39-.57-1.35-1.27-1.23-1.56.35-.86,1.24-.47,1.9-.24,4.97,1.69,10.7-2,15.3,2.23,6.52-4.38,13.56-1.07,20.34-1.57,22.19-1.65,42.53,20.83,40.89,44.61-.79,11.47.73,22.98-.42,34.47-.7,6.96-2.72,13.42-6.36,19.33-.28.46-.77.8-1.16,1.19-.17-.4-.33-.8-.53-1.19-.33-.66.93-1.84-.63-2.09-.08.74-.19,1.48-.22,2.22-.24,4.68-6.36,12.17-11.53,14.06-.65.24-2.32-.3-1.44,1.17,4.84,8.01,5.88,17.39,8.78,26.08,3.63,10.89,6.63,22.01,9.59,33.13,1.09,4.09,5.13,4.76,7,7.77.43.69,1.71,1.13,1.09,2.14ZM142.79,132.58c.04.39.23.76.35,1.14.17-.17.35-.33.58-.56-.16-.36-.32-.72-.48-1.09-.16.17-.47.36-.45.51ZM142.75,140.64c-.02.38.2.78.44,1.59.25-.77.47-1.13.45-1.48-.03-.39-.28-.77-.43-1.15-.16.34-.43.68-.45,1.03ZM143.72,183.35c-.08-.81-.42-1.58-.65-2.37-.94.43-.33,1.28-.55,2.1.58.4-.63,1.62.73,1.81.1.02.52-1.01.47-1.53ZM143.33,61.2c.08.22.22.42.34.62.1-.09.2-.19.3-.28-.13-.21-.25-.42-.38-.62-.09.1-.28.23-.27.28ZM143.78,65.62c.02-.13.05-.27.07-.4-.09-.09-.18-.17-.28-.26-.09.1-.17.2-.26.3.15.12.31.24.46.36ZM143.35,105.51c-.08.1-.21.19-.22.29,0,.11.1.23.16.35.08-.1.16-.19.24-.29-.06-.12-.11-.23-.17-.35ZM143.36,163.93c-.18.13-.48.23-.52.39-.05.21.1.47.17.71.19-.13.38-.26.58-.39-.08-.24-.16-.48-.23-.71ZM144.05,73.76c.09-.13.16-.23.23-.34-.19-.11-.39-.23-.59-.31-.03-.01-.14.2-.21.3.19.11.38.23.56.35ZM143.71,48.98c.04.1.06.24.14.29.05.03.18-.06.27-.09-.04-.1-.06-.24-.14-.29-.05-.03-.18.06-.27.1ZM144.03,127.25c0-.13.05-.28,0-.38-.04-.08-.19-.09-.29-.13-.06.1-.12.21-.17.32.16.06.31.13.47.19ZM144.33,100.16c-.05-.11-.1-.21-.15-.31-.1.04-.25.04-.3.12-.06.09-.02.23-.03.35.16-.05.33-.11.49-.16ZM146.03,98.46c.16,1.94.61,3.86.95,5.79.17-1.3.33-2.61.52-4.07-.21-1.29-.43-2.68-.65-4.08-.29.79-.88,1.61-.81,2.36ZM147,179.76c.09-1.05.6-2.38-.76-3.1-.19.99-.38,1.98-.46,2.37.1,1.79-.48,3.83.5,3.84,1.18,0,.61-2,.71-3.1ZM146.65,134.56c-.15.83-.42,1.67-.41,2.5,0,.76-.45,1.74.56,2.26.13-.73.26-1.45.41-2.31-.18-.77-.37-1.61-.56-2.45ZM146.84,41.59c.02.17.3.31.52.51.08-.51.21-.94.21-1.37,0-.41-.16-.99-.66-.4-.21.25-.12.83-.07,1.25ZM147.63,49.2c-.11-.23-.22-.47-.34-.7-.18.27-.45.52-.52.81-.04.14.28.37.44.57.14-.22.27-.44.41-.68ZM147.51,68.74c-.15-.17-.37-.41-.58-.64-.07.39-.22.8-.19,1.18.02.29.26.57.4.85.11-.4.22-.8.38-1.39ZM147.05,17.88c.03.25.07.51.11.82.18-.17.35-.28.45-.45.06-.09,0-.36-.03-.37-.17-.04-.35,0-.53,0ZM147.34,26.17s-.32.13-.33.2c0,.23.07.47.12.7.23-.1.47-.19.73-.3-.18-.22-.33-.43-.51-.61ZM147.42,120.91c.03-.15-.29-.37-.45-.56-.16.2-.43.39-.45.61-.02.18.25.39.4.6.18-.21.45-.41.5-.65ZM147.09,83.06c-.11.07-.32.14-.31.21,0,.28.08.55.12.83.11-.07.32-.14.32-.21,0-.28-.07-.55-.13-.83ZM147.1,114.92c.08-.12.26-.29.23-.33-.12-.19-.3-.34-.46-.5-.08.12-.15.24-.24.36.15.16.31.31.46.47ZM149.62,80.8c-.04.37.28.77.58,1.46.33-.51.68-.81.67-1.1,0-.39-.29-.77-.45-1.15-.28.26-.76.5-.8.79ZM149.49,118.24c.01.54.32,1.07.51,1.61.23-.27.61-.52.66-.83.1-.52-.01-1.08-.05-2.12-.63.73-1.12,1.04-1.12,1.34ZM151.17,73.96c-.25-.38-.46-.71-.67-1.04-.22.32-.56.63-.63.98-.09.52-.04,1.2.71,1.1.22-.03.37-.64.58-1.04ZM150.26,37.68c.1.24.32.42.49.62.08-.27.16-.54.23-.82-.14-.23-.28-.66-.42-.66-.72,0-.46.5-.31.86ZM149.51,140.53c-.09.53.31,1.65.37,1.64,1.13-.18.19-1.16.59-1.65-.06-.78-.12-1.51-.19-2.25-1.04.46-.64,1.49-.77,2.26ZM150.16,100.07c-.14.73-.44,1.48-.39,2.2.09,1.23.4,2.44.62,3.65.12-.87.25-1.75.39-2.82-.67-.83.79-2.18-.63-3.03ZM150.24,184.82c-.23-1.6.36-3.09-.59-4.35-.11.73-.35,1.46-.31,2.18.09,1.94.31,3.87.47,5.8.15-1.28.3-2.56.43-3.63ZM150.38,149.02c0-.72.05-1.25,0-1.77-.03-.25.03-1.09-.54-.44-.3.34-.23,1.06-.23,1.61,0,.15.36.29.78.61ZM150.44,175.31c0-.21-.3-.42-.47-.63-.17.21-.47.42-.48.64,0,.21.29.43.46.66.19-.23.49-.45.49-.67ZM150.52,32.24c-.02.08.12.21.19.32.11-.21.21-.43.31-.63-.07-.13-.14-.24-.2-.35-.1.22-.23.43-.29.66ZM150.25,153c-.05-.06-.2-.05-.31-.07-.04.12-.08.25-.12.37.16.02.33.04.49.07-.02-.13,0-.28-.06-.37ZM152.88,115.96c.19-.09.38-.19.58-.28,0-.13-.01-.26-.02-.39-.19.09-.41.15-.57.28-.06.05,0,.25.02.39ZM154.5,76.07c-.16-.85-.23-1.52-1-1.38-.18.03-.39.71-.33,1.04.09.53.4,1.02.61,1.52.27-.45.55-.91.72-1.19ZM153.63,189.23c-.09-.49-.52-.9-.8-1.35-.11.5-.32,1.01-.31,1.5.01.5.25.99.69,2.59.29-1.69.52-2.26.42-2.75ZM153.18,123.22c.08-.09.16-.18.23-.28-.05-.12-.08-.28-.17-.33-.08-.04-.23.05-.34.08.09.18.19.35.28.53ZM152.86,130.16l.32-.02-.15-.29-.18.31ZM152.82,151.17c.24-.03.48-.06.73-.09-.11-.22-.18-.44-.32-.62-.04-.06-.35,0-.36.05-.06.21-.04.43-.06.65ZM153.95,154.66c-.08-.25-.16-.49-.24-.73-.25.2-.5.4-.75.61.15.19.27.48.46.54.13.04.35-.26.53-.41ZM153.67,174.34c-.06-.28-.12-.57-.18-.85-.22.09-.57.14-.62.29-.07.23.07.53.11.8.23-.08.45-.16.69-.25ZM153.76,143.41c-.01-.14-.02-.28-.03-.42-.23.02-.46.04-.68.09-.02,0,0,.25.02.38.23-.02.46-.04.69-.06ZM153.14,138.66c.03.2.29.37.46.58.13-.22.36-.44.33-.61-.03-.21-.29-.37-.45-.55-.12.2-.36.41-.34.58ZM153.59,69.97l.2.19.06-.29-.27.11ZM153.76,44.65c-.02.23.02.47.04.71.18-.15.37-.29.53-.46.02-.03-.13-.22-.2-.34-.13.03-.37.05-.37.09ZM153.57,182.38c-.2.05-.55.06-.57.15-.05.24.04.51.08.76.19-.04.38-.09.59-.14-.03-.26-.07-.52-.1-.78ZM153.95,89.48c-.01-.12-.03-.24-.04-.36-.09.13-.19.27-.28.4.11-.01.22-.03.32-.04ZM156.04,122.46c.12.2.32.36.48.53.1-.24.2-.47.3-.71-.23-.07-.43-.15-.65-.18-.04,0-.18.3-.14.36ZM156.57,38.58c.1.33.3.63.47.95.16-.21.32-.42.49-.63-.13-.24-.26-.47-.38-.71-.2.13-.59.33-.57.39ZM157.9,164.48c-1.07-.9-1.38-1.16-1.69-1.42-.12.26-.38.55-.33.76.09.37.3.9.58.99.33.11.78-.16,1.43-.34ZM156.3,101.63s.21.05.32.07c.04-.23.09-.46.11-.69,0-.02-.2-.06-.33-.09-.04.24-.09.47-.11.71ZM156.36,137.64c.11-.19.23-.37.34-.56-.09-.08-.18-.17-.27-.25-.11.18-.24.36-.31.56-.02.05.16.17.24.26ZM156.77,77.94c.07-.13.13-.25.21-.39-.09-.23-.18-.46-.27-.69-.06.13-.18.27-.16.39.04.24.14.46.23.69ZM156.53,177.32c-.18-.06-.35-.13-.53-.2,0,.13-.06.29,0,.39.04.08.21.1.32.14.07-.11.14-.22.21-.33ZM156.9,109.26c-.17.33-.4.64-.49.99-.02.1.35.3.67.57.15-.42.35-.75.37-1.11.01-.14-.35-.3-.55-.45ZM156.23,154.04c-.07.11.19.42.29.64.29-.21.57-.43.85-.64-.17-.35-.28-.57-.4-.79-.26.26-.57.49-.75.79ZM159.2,120.67c.11.37.37.69.62,1.1.26-.34.61-.62.56-.75-.12-.34-.41-.61-.63-.92-.19.19-.58.45-.55.57ZM159.86,48.67c.11.2.27.36.44.56.13-.22.24-.42.36-.61-.2-.09-.39-.2-.59-.24-.05-.01-.23.24-.2.29ZM160.65,125.23c-.29-.44-.49-.75-.7-1.06-.18.2-.5.39-.5.59,0,.37.17.75.27,1.13.28-.19.55-.39.94-.66ZM160.03,151.69c-.14-.18-.27-.38-.43-.54-.02-.02-.2.14-.3.21.14.18.27.36.41.54.11-.07.21-.15.32-.22ZM160.32,130.28c-.17-.15-.34-.31-.5-.46-.09.25-.26.52-.24.76.01.16.31.29.47.43.09-.24.19-.48.28-.73ZM160.14,33.26c.09.18.24.33.37.49.07-.1.13-.2.21-.32-.12-.15-.25-.3-.37-.46-.07.1-.22.24-.2.28ZM159.74,110.07c.02.12.04.23.06.34.1,0,.25.04.3,0,.07-.08.06-.22.08-.34-.15,0-.3,0-.45.01ZM190.33,85.87c-.09-8.6.06-17.21.13-25.82.08-10.12-2.36-18.86-12.17-23.37-4.92-2.26-10.21-1.56-15.39-1.41-1.64.05-.67,1.54-.75,2.48-.87,10.23.24,20.5-.33,30.66-.73,13.09.74,26.16-.63,39.21-.15,1.4.43,2.56,1.81,2.62,5.97.26,12.04-.3,17.33-3.06,2.94-1.53,1.93-.11,2.13,1.35.38,2.82-1.25,6.03,1.45,8.4-.53-4.74-1.84-10.17.98-13.93,3.98-5.3,5.5-10.74,5.44-17.13ZM163.91,114.02c.04-.14-.26-.39-.5-.71-.22.39-.47.69-.55,1.04-.03.13.31.35.49.53.2-.28.47-.55.57-.87ZM167.08,115.84s-.11-.21-.17-.33c-.1.07-.21.14-.3.2v.44c.16-.1.33-.18.47-.31ZM170.09,23.04l.26.05-.09-.34-.17.29ZM170.48,117.01c-.12-.06-.24-.18-.35-.16-.12.02-.24.15-.35.23.18.1.35.2.53.31.05-.13.11-.25.17-.37ZM173.59,117.34c0-1.52.06-2.21,0-2.9-.02-.25-.03-1.13-.6-.42-.32.4-.35,1.11-.35,1.68,0,.31.34.61.95,1.64ZM173.59,26.71l.24.05-.09-.3-.15.26ZM173.76,122.38c-.05-.11-.08-.27-.16-.31-.09-.04-.23.04-.35.06.09.16.17.32.26.49.08-.08.17-.16.25-.24ZM176.5,112.17c-.13-.03-.47.91-.74,1.44.45.75-.14,1.82.93,2.26.16-.54.49-1.1.43-1.61-.08-.73.59-1.81-.62-2.1ZM180.29,143.99c-.25-.38-.48-.71-.7-1.03-.11.33-.35.68-.3.99.06.4.35.76.54,1.14.14-.34.29-.68.46-1.09ZM179.9,126.62c.15-.2.32-.39.44-.61.02-.04-.2-.31-.26-.29-.24.07-.45.22-.68.34.17.19.33.37.5.56ZM183.91,116.97c-1.33,1.93-2.32,3.91-.9,6.23.3-2.08.6-4.16.9-6.23ZM183.79,129.9c-.26-2.16-.53-4.31-.78-6.48-.4,2.15-.98,4.29-.2,6.46.04.12.64.02.98.02ZM183.54,147.97c-.24-.09-.45-.19-.67-.22-.07,0-.25.27-.22.33.11.2.29.37.44.55.15-.22.3-.43.45-.66ZM186.42,174.15c-.13-.24-.25-.46-.37-.68-.18.18-.48.33-.52.54-.03.18.22.42.34.63.18-.16.36-.32.55-.49ZM186.75,126.57c-.03-.16-.43-.25-.66-.37-.09.39-.25.79-.24,1.18,0,.13.41.25.78.45.06-.47.18-.88.12-1.26ZM186.38,122.77c.11-.39.3-.77.3-1.16,0-.35-.2-.69-.46-1.49-.16.88-.32,1.28-.28,1.65.03.35.28.66.44.99ZM186.97,108.78c-.18-.4-.33-.76-.49-1.11-.16.33-.43.65-.44.98-.01.38.21.76.33,1.15.19-.32.38-.65.59-1.02ZM186.28,149.54c.06-.25.13-.51.18-.77-.14-.07-.29-.13-.44-.2-.02.14-.1.29-.06.41.07.2.21.38.32.56ZM186.46,167.8l-.04-.33-.25.24.29.09ZM189.92,112.67c1.33-1.91.1-4.02.53-5.9-.19-1.95-.37-3.79-.56-5.63-.16,1.89-.48,3.78-.45,5.66.03,1.95-1.05,4.05.47,5.87ZM190.15,170.81c-.19-.74-.39-1.78-.46-1.77-1,.15-.65,1.07-.68,1.67-.02.49.34.99.52,1.49.22-.49.43-.99.61-1.39ZM190.35,116.3c-.02-.15-.58-.24-.89-.36-.05.39-.19.8-.12,1.16.06.32.36.6.81,1.3.12-1.02.26-1.57.21-2.1ZM192.58,112.82c-.03.2.21.46.34.69.21-.13.41-.26.63-.4-.13-.25-.25-.48-.37-.71-.21.14-.57.25-.6.42ZM192.84,86.69c.04.84.29,1.67.44,2.51.98-.49.45-1.5.84-2.43-.16-.49-.35-1.65-.57-1.65-1.04-.03-.74.96-.71,1.57ZM193.29,96.63c.19-.34.43-.56.4-.76-.05-.41-.23-.8-.35-1.2-.16.2-.46.42-.45.6.04.42.23.83.4,1.36ZM193,100.52c.09.23.18.46.28.71.19-.18.39-.33.52-.52.04-.05-.1-.35-.14-.34-.22.01-.44.09-.65.15ZM193.26,170.03c-.12-.22-.25-.44-.37-.66-.08.24-.24.48-.22.7.02.23.2.45.31.68.1-.23.19-.47.29-.71ZM195.77,107.19c-.03.84-.21,1.77.67,2.28.06.03.55-.75.68-.92.02-1.2.29-2.29-.73-2.56-.79-.21-.6.71-.62,1.2ZM195.85,98.13c.05.69.41,1.97.51,1.96,1.03-.15.11-1.09.51-1.54-.1-.69.29-1.51-.59-1.9-.16.49-.46,1-.43,1.48ZM196.18,46.12c.08.21.23.4.34.59.12-.22.23-.44.34-.67-.18-.09-.37-.19-.55-.29-.05.12-.16.27-.13.36ZM195.79,164.54c.19-.17.37-.34.56-.51-.18-.2-.32-.35-.45-.5-.09.1-.25.2-.25.3,0,.24.09.47.14.71ZM196.49,83.98c.07-.09.14-.18.22-.26-.05-.11-.07-.27-.16-.31-.07-.04-.21.05-.32.08.09.17.17.33.26.5ZM196.22,86.2c.02.29.22.57.34.86.2-.18.41-.36.6-.54-.09-.22-.18-.44-.28-.65-.24.12-.68.25-.67.34ZM196.93,78.93c-.16.13-.34.26-.48.41-.02.02.12.2.18.3.16-.13.34-.25.48-.4.02-.02-.11-.19-.19-.31ZM196.67,178.64c-.1-.08-.19-.15-.31-.24-.14.17-.27.35-.41.52.11.07.27.22.31.19.16-.13.28-.31.42-.47ZM196.23,174.23c.22.13.45.26.67.39-.11-.13-.21-.26-.33-.37-.07-.06-.23-.01-.34-.01ZM199.71,172.17c.07-.18-.17-.49-.27-.74-.44.86-.85,1.74-1.34,2.57-.19.32-.54.56-.84.82,2.51.82,1.98-1.43,2.45-2.64ZM199.67,110.25c1.57-2.49.17-5.23.77-8.31-1.47-2.07,1.1-5.03-.82-7.54-.25,2.65-.75,5.3-.67,7.94.07,2.63-.51,5.39.73,7.91ZM199.34,72.43c.05.36.28.69.44,1.03.16-.2.46-.4.46-.59,0-.35-.19-.71-.32-1.16-.28.33-.6.55-.58.72ZM199.82,84.91c-.33,1.41-.56,1.96-.56,2.5,0,.32.36.64.56.96.16-.54.38-1.08.46-1.64.04-.31-.15-.65-.47-1.83ZM199.73,183.19c-.05-.36-.35-.67-.84-1.53,0,1.16-.04,1.71,0,2.26.02.38.03,1.03.62.5.24-.22.28-.83.22-1.23ZM199.66,58.06c0,.12.04.25.07.37.14-.12.28-.24.42-.36-.13-.12-.26-.25-.39-.37-.04.12-.09.24-.1.37ZM199.56,177.67c-.19,0-.38.06-.58.1.07.22.14.45.21.7.19-.17.37-.31.51-.49.03-.04-.09-.31-.15-.31ZM202.35,91.32c.28.13.63.35,1.01.43.1.02.45-.48.39-.63-.12-.35-.42-.63-.64-.94-.15.23-.3.45-.76,1.14ZM202.79,85.59c.05.18.33.3.51.44.07-.25.14-.5.21-.75-.18-.13-.36-.25-.54-.37-.07.23-.23.49-.18.68ZM202.99,175.99c.06-.37-.04-.77-.08-1.33-.28.35-.56.53-.56.72-.01.42.11.84.17,1.26.16-.22.43-.42.47-.65ZM202.91,80.15c.06.35.11.96.69.49.14-.11.13-.56.05-.8-.06-.2-.33-.32-.54-.49-.08.29-.25.57-.21.8ZM202.84,94.9c.06.2.28.34.45.53.1-.29.33-.6.25-.78-.1-.24-.44-.36-.67-.53-.01.26-.09.55-.02.79ZM203.67,104.53c-.15-.29-.32-.62-.49-.95-.14.23-.41.47-.39.68.03.35.25.69.39,1.03.14-.22.29-.43.5-.76ZM203.23,53.34l.28.02-.12-.37-.16.35ZM203.18,71.9c-.05.11-.02.25-.02.38.11-.01.21-.02.31-.04v-.39c-.1.01-.27,0-.29.05ZM205.78,104.78c.32-.14.65-.28,1.13-.5-.3-.45-.5-.76-.7-1.07-.23.27-.54.51-.66.82-.07.19.15.49.23.74ZM205.98,96.41c.11.04.22.09.33.13,0-.19,0-.38,0-.57-.11.03-.26.02-.32.1-.06.07-.01.23,0,.34ZM206.54,56.51c.18-.05.35-.1.53-.16-.06-.11-.11-.23-.17-.34-.12.03-.28.03-.33.11-.06.09-.02.25-.02.39ZM209.34,79.33l.31.1-.09-.39-.22.29Z"/>
      <path class="st0" d="M308.96,117.95c-9.09,5.43-5.73,14.81-6.31,22.83-.53,7.36.36,14.75-.73,22.16-1.29,8.75-4.92,15.89-10.53,22.02,0,0,0,0,.01,0-5.97,8.39-24.36,13.4-33.68,10.02-8.86-3.22-15.86-7.66-21.1-15.79-4.74-7.36-6.56-15.75-5.66-24.63,1.05-10.34-.73-20.69.75-31.01.64-4.44-1.44-.32-2.18-.57-3.73-1.24-6.22-8.37-3.07-10.6,6.86-4.87,4.46-11.34,4.59-17.99.17-8.97.3-17.94.38-26.91.08-8.93.26-17.86.07-26.77-.23-10.74,2.91-19.89,9.99-27.32.71-.74,1.3-4.9,3.38-.91.4.77.43-.32.48-.56,2.05-8.67,9.55-8.16,15.07-10.17,4.93-1.79,10.71-1.58,15.63.46,8.96,3.72,16.45,8.76,21.87,18.95,7.84,14.74,4.28,29.96,5,44.99.62,13.01.05,26.1-.04,39.16-.03,4.24,3.49,5.64,5.33,8.39.93,1.4,2.92,2.97.75,4.26ZM231.62,114.06c-.17,0-.33,0-.49.01.02.14.05.27.08.4.11,0,.28.05.32-.01.07-.09.07-.26.09-.4ZM234.88,161.1c-.01-.35-.4-.69-.62-1.03-.23.29-.47.59-.75.94.35.5.6.86.84,1.21.19-.38.54-.76.53-1.13ZM234.13,70.23c.16.5.54.91.83,1.35.2-.33.4-.66.63-1.04-.26-.43-.47-.78-.67-1.13-.28.28-.84.67-.79.82ZM235.42,120.43c-.55-1.51.6-3.22-.85-4.35-.69,1.1-.8,2.25-.65,3.59.17,1.5-.25,3.11.97,4.31.18-1.23.37-2.45.53-3.55ZM234.25,109c.04.35.41.65.64.98.14-.26.29-.53.5-.91-.2-.32-.42-.68-.64-1.05-.18.33-.53.68-.5.99ZM235.45,95.71c-.2-.53-.35-.93-.5-1.34-.2.37-.53.73-.55,1.11-.02.39.27.8.43,1.2.21-.32.41-.64.63-.97ZM234.65,85.9c.03.79.17,1.57.26,2.35.13-.65.26-1.3.38-1.93-.07-.64-.14-1.22-.21-1.81-.97.15-.45.91-.43,1.39ZM234.74,58.54c-.04.41.17.85.27,1.28.23-.46.46-.93.59-1.21-.17-.76-.27-1.21-.37-1.66-.17.53-.43,1.05-.49,1.59ZM234.79,104.12c.17-.21.43-.39.44-.59.02-.22-.19-.46-.3-.68-.16.18-.43.35-.45.54-.02.22.19.46.31.73ZM235.08,131.58c-.08-.27-.16-.55-.24-.82-.13.19-.36.37-.38.57-.02.26.12.54.19.81.14-.19.28-.37.43-.57ZM234.91,64.51c-.02.11.07.25.13.45.06-.26.1-.45.14-.64-.1.06-.26.11-.27.19ZM238.8,126.63c-.15-.96-.48-1.62-1.14-1.22-.37.22-.55,1.03-.6,1.6-.05.53-.07,1.55.67,1.28.52-.19.79-1.19,1.08-1.67ZM238.92,113.9c-.47-.42-.76-.67-1.04-.92-.26.44-.64.85-.73,1.33-.05.22.44.58.69.87.33-.39.66-.77,1.09-1.28ZM237.09,142.53c-.05.08.24.45.46.85.3-.36.6-.63.77-.98.06-.12-.24-.45-.38-.68-.29.26-.62.49-.85.81ZM238.46,45c.27-.19.34-.83.38-1.28.01-.17-.32-.37-.57-.64-.17.43-.42.83-.5,1.26-.1.55.17,1.03.69.65ZM237.87,137.42c.2-.44.43-.81.51-1.21.03-.17-.26-.42-.41-.63-.23.38-.5.73-.66,1.14-.04.1.29.37.56.7ZM238.32,168.07c-.12-.24-.37-.73-.62-1.21-.2.19-.56.39-.55.57.02.45.11.97.35,1.31.37.52.67.26.82-.67ZM238.87,48.61c-.11-.26-.17-.62-.34-.7-.16-.08-.45.12-.68.2.15.32.3.64.45.97.19-.15.37-.3.57-.46ZM238.35,74.29c-.18.31-.59.7-.53.95.18.81.53,1.57.82,2.34.17-.41.42-.8.48-1.23.1-.74.18-1.54-.76-2.06ZM238.67,88.11c-.23-.05-.45-.13-.66-.12-.07,0-.22.31-.2.34.15.19.34.33.52.49.11-.23.22-.47.34-.71ZM238.41,68.06c-.12.27-.33.54-.33.81s.2.56.31.84c.19-.16.38-.32.65-.56-.21-.36-.42-.72-.63-1.08ZM238.3,93.87c-.11.24-.22.47-.3.71,0,.02.21.13.33.19.1-.23.21-.46.29-.71,0-.02-.2-.12-.32-.2ZM240.64,77.59c-.03.72-.17,1.58.71,1.94.89-.38.74-1.24.69-1.97-.05-.72.17-1.92-.74-1.89-.87.03-.63,1.21-.66,1.92ZM240.68,113.22c.04.96-.89,2.22.48,2.91.29-1.02.57-2.04.63-2.22.1-1.8.54-3.38-.36-3.36-1.37.03-.79,1.73-.75,2.67ZM240.83,64.11c.25.24.51.49.78.74.13-.25.43-.57.37-.73-.14-.36-.45-.65-.7-.96-.12.26-.25.52-.45.94ZM240.5,122.72c.08.4.32.76.49,1.14.18-.21.5-.42.51-.63,0-.36-.18-.73-.32-1.2-.34.33-.7.56-.68.69ZM240.52,129.09c.19.34.37.68.56,1.02.18-.21.36-.42.55-.64-.14-.27-.23-.65-.43-.74-.15-.07-.44.23-.67.36ZM241.47,104.06c-.55-.4-.7.1-.71.56-.01.28.15.57.23.85.2-.18.39-.37.59-.56-.03-.29.03-.74-.11-.84ZM241.35,164.49c-.08-.23-.22-.44-.34-.66-.16.17-.33.33-.5.52.2.15.39.31.6.42.04.02.26-.23.25-.28ZM241.9,84.29c-.2-.19-.4-.38-.6-.57-.12.22-.35.49-.31.67.06.22.35.36.54.54.12-.21.25-.42.38-.63ZM240.99,135.97c-.1.07-.3.18-.29.21.08.23.19.44.3.66.1-.08.2-.16.3-.24-.1-.21-.2-.42-.31-.63ZM241.55,69.9c-.15.18-.31.35-.42.56-.03.05.15.34.21.33.22-.04.42-.15.65-.24-.15-.22-.3-.43-.44-.64ZM241.38,38.91c.07.22.2.42.31.63.17-.15.33-.3.51-.46-.21-.16-.39-.32-.59-.44-.03-.02-.25.21-.23.27ZM241.9,141.53c-.12-.25-.23-.51-.36-.78-.24.14-.57.21-.65.4-.09.21.06.54.1.82.3-.15.61-.3.91-.45ZM243.71,105.33c.24.51.59.96.89,1.44.23-.89.53-1.76.66-2.67.09-.61-.09-1.25-.88-1.21-.77.63-1.14,1.42-.67,2.44ZM243.79,115.34c.32,1.03-.42,2.3.95,2.42.12.01.51-1.11.46-1.67-.09-.87-.45-1.71-.7-2.56-.26.66-.52,1.32-.71,1.81ZM244.48,122.25c-.67-.21-.86,1.15-.63,1.87.41,1.32-.76,3.26.63,3.85.56.24.17-1.86.37-2.88-.22-.97,1.1-2.38-.38-2.84ZM244.2,89.53c.53-1.09.79-1.41.84-1.76.05-.42-.08-.86-.13-1.29-.29.18-.78.31-.82.54-.1.53.03,1.11.11,2.52ZM244.49,134.74c-.19-.04-.75.62-.71.83.16.68.52,1.3.81,1.95.16-.41.31-.82.36-.93.05-.93.34-1.67-.46-1.84ZM244.17,80.05c-.02.53.37,1.07.57,1.6.22-.55.62-1.1.63-1.66.09-3.59.23-7.19-.73-10.71-.17,3.59-.36,7.17-.47,10.76ZM244.16,94.34c.15.64.31,1.35.47,2.05.23-.87.56-1.73.65-2.62.06-.58-.25-1.21-.39-1.81-1.21.42-.2,1.61-.72,2.38ZM244.41,171.26l-.25-.36c-.1.1-.2.2-.29.31.15.17.3.34.45.51.03-.15.06-.3.09-.45ZM244.77,18.59c.01.23.26.44.4.65.11-.28.21-.56.31-.85-.15-.21-.3-.42-.44-.63-.1.28-.29.56-.27.82ZM245.32,50.52c-.15-.18-.37-.29-.57-.45-.06.28-.11.56-.16.83.21.01.43.05.64.02.05,0,.13-.34.08-.4ZM244.74,42.99c.14-.03.36-.05.36-.07,0-.29-.04-.59-.07-.88-.12.02-.34.05-.34.07,0,.3.03.59.05.88ZM244.45,145.57c.03-.26.07-.52.08-.79,0-.02-.21-.04-.34-.07-.03.26-.06.52-.06.78,0,.02.22.05.33.07ZM244.94,66.98c-.11.02-.32.04-.32.06,0,.65,0,1.29.02,1.94.1-.67.2-1.33.3-2ZM248.56,103.15c-.29-.49.39-1.59-.68-1.69-.15-.01-.48,1.02-.55,1.59-.09.71-.24,1.75.78,1.69.7-.04.62-.88.44-1.6ZM247.89,24.38c.27.92-.65,2.15.63,2.81.17-1.19.43-2.38.49-3.57.03-.7-.27-1.42-.41-2.13-1.26.68-.54,1.9-.7,2.9ZM248.73,96.04c-.19-.43-.47-1.07-.75-1.71-.18.38-.52.77-.5,1.14.03.73.09,1.92.45,2.08.69.3.68-.64.8-1.5ZM248.46,112.57c-.12-.54-.31-1.39-.5-2.23-.16,1.04-.38,2.08-.47,3.14-.05.56.11,1.15.18,1.72,1.3-.37.53-1.5.78-2.63ZM247.76,85.44c.04.46.26.89.74.43.14-.14.17-.56.1-.79-.05-.17-.34-.26-.54-.4-.12.27-.33.53-.31.76ZM248.04,78c.09-.08.24-.15.26-.25.02-.1-.09-.24-.13-.36-.09.09-.23.17-.26.27-.02.09.09.22.14.33ZM247.91,182.12c-.08-.11-.17-.22-.25-.34-.12.21-.27.4-.35.62-.02.07.15.22.23.34.12-.21.24-.41.37-.62ZM248.33,16.24c-.02.07.15.19.23.29.1-.21.2-.42.3-.63-.09-.11-.17-.21-.25-.31-.1.22-.22.43-.28.65ZM251.08,13.22c.14,2.33.33,4.66.5,6.98,1.78-1.03.54-2.81.99-4.22-.51-1.57.79-3.77-1.08-4.72-.61-.31-.45,1.23-.41,1.96ZM251.38,105.98c-.32.01-.75.82-.88,1.33-.08.32.25.99.55,1.12.9.41.74-.55.94-1.04-.02-.58.21-1.44-.6-1.41ZM251.9,28.38c-.33.07-.86.24-.9.47-.06.34.22.76.46,1.44.38-.56.67-.84.77-1.19.06-.19-.26-.73-.34-.72ZM281.52,85.02c.09-14.98,0-29.97.19-44.95.06-4.87-3.89-8.33-3.26-13.26-3.34,1.54-3.13-.82-3.03-3.25.04-.92-.3-1.86-.46-2.79-1.3.64-.23,1.98-.72,2.88-.42.77.22,2.33-.95,2.4-1.38.07-1.36-1.37-1.35-2.51.03-3.06.13-6.12.11-9.18,0-.68-.41-1.35-.63-2.02-.17.75-.46,1.49-.5,2.24-.12,2.73-.12,5.46-.25,8.19-.03.58-.42,1.14-.65,1.71-.3-.24-.8-.42-.88-.72-.69-2.8-3.86,2.11-4.19-1.63-1.75,3.28-5.25,4.11-7.55,6.83-7.15,8.45-4.71,18.94-4.9,28.43-.16,7.92-.15,15.92-.35,23.89l.09-.02c-1.36,1.25-1.43,2.82-.94,4.52.18.09.35.18.53.27.29.88.79,1.76.83,2.66.43,11.25-.62,22.49-.12,33.77.51,11.56-.04,23.19-.14,34.79-.08,8.82,5.79,15.31,14.08,15.54,6.99.19,14.1-7.03,14.34-14.8.23-7.56.25-15.13.31-22.7.15-16.76.31-33.52.4-50.28ZM252.4,23.12c-.02-.18-.35-.31-.54-.47-.12.27-.23.55-.36.84.22.17.42.32.63.48.1-.29.29-.58.27-.86ZM255.05,10.37c.22-.04.34-.76.53-1.25-.24-.37-.46-.7-.68-1.04-.21.36-.57.71-.59,1.07-.03.52-.09,1.37.74,1.22ZM254.95,28.9s.35-1.08.57-1.79c-.24-.63-.48-1.3-.73-1.97-.2.51-.64,1.09-.54,1.52.18.77-.45,1.91.7,2.24ZM254.93,15.32c-1.07-.09-.42,1.55-.43,2.4-.01.88.25,2.53.35,2.52,1.57-.08.47-1.36.72-2.1-.43-.93.73-2.7-.63-2.82ZM254.3,181.85c-.03-.23-.06-.48-.1-.73-.18.11-.38.18-.53.33-.06.05,0,.37.03.38.19.04.39.02.6.02ZM257.61,16.01c.13,2.44.27,5.12.41,7.8,1.67-2.53.77-5.39.82-8.1.06-2.7-.21-5.4-.33-8.1-1.97,2.54-.03,5.47-.9,8.4ZM257.56,187.49c-.03-.27-.12-.54-.2-.82-.11.11-.3.22-.29.3.03.27.13.53.2.8.1-.09.29-.2.28-.28ZM261.79,17.13c1.07-1.77.43-3.75.43-5.59,0-1.92.93-4.05-.54-5.81-1.09,1.81.06,3.81-.51,5.84,1.04,1.65-1.37,3.87.63,5.56ZM264.23,15.41c-.06.92-.12,2.04,1.08,2.12.12,0,.33-1.38.49-2.09-.2-.78.21-1.97-.81-1.98-1.05,0-.71,1.23-.75,1.94ZM264.95,9.52c.17.05.42-.18.66-.3-.11-.26-.21-.5-.31-.74-.22.13-.53.2-.62.4-.06.14.13.6.27.64ZM265.07,4.62c.05.23.16.45.24.68.08-.08.25-.19.23-.25-.04-.24-.14-.47-.23-.74-.1.12-.26.23-.25.31ZM267.58,11.59c.1,2.15.37,4.3.57,6.45,1.51-.79-.1-2.31.67-3.28.27-1.74.55-3.67-.67-4.9-.46-.47-.61,1.14-.58,1.73ZM267.62,5.87c.09.26.13.62.29.72.13.08.43-.16.65-.25-.14-.33-.27-.66-.41-.99-.17.17-.35.34-.53.52ZM271.15,7.05c0,.19.29.37.45.56.11-.39.29-.77.31-1.16.01-.19-.26-.39-.49-.7-.12.51-.27.91-.27,1.31ZM270.62,186.83l-.24.12.18.25.06-.37ZM274.87,16.44c.92.17.75-1.84.62-2.83-.17-1.29.84-3.61-.63-3.68-1.61-.08-.2,2.01-.56,3.08.33,1.17-1.35,3.06.56,3.43ZM274.6,175.12c-.2-.23-.43-.5-.65-.76-.11.26-.35.56-.3.78.08.32.36.59.55.87.11-.25.23-.5.4-.89ZM274.37,181.38c-.08-.26-.15-.53-.23-.81-.16.2-.34.37-.45.58-.05.1.05.28.09.42.2-.06.39-.13.59-.19ZM274.12,192.06c-.08-.12-.17-.24-.25-.37-.02.14-.06.28-.04.41.03.24.09.47.14.71.05-.25.1-.5.15-.76ZM277.34,21.41c-.02.5.41,1.45.63,1.45,1.14-.03.66-1.09.84-2.11-.12-.28-.41-1.25-.58-1.22-.93.15-.86,1.17-.89,1.88ZM277.68,186.04c-.12-.39-.49-.69-.79-1.08-.17.36-.44.67-.38.84.14.41.44.75.67,1.12.18-.3.57-.67.5-.88ZM277.74,12.55c.06.37.42.68.8,1.25.16-.65.39-1.08.31-1.42-.08-.34-.46-.6-.72-.89-.14.36-.44.74-.39,1.06ZM282.37,16.36c-.27-1.66.73-4.17-.97-4.74-1.06-.36-.44,2-.77,3.4.65,1.57-.33,3.73.98,5.45.84-1.24.99-2.69.76-4.11ZM283.84,25.05c.12.6.21,1.51.57,1.69.86.42.78-.57.84-1.09.08-.74.18-1.57-.63-1.98-.69.18-.9.71-.77,1.38ZM285.08,69.07c-.2-.31-.49-.75-.78-1.19-.2.37-.58.76-.57,1.12.02.56.24,1.51.51,1.57.78.18.63-.71.83-1.51ZM284.46,122.01c-.08-.61.67-1.59-.52-1.82-.09.6-.17,1.19-.25,1.76.27.63-.56,1.58.55,1.88.09-.61.29-1.23.22-1.82ZM283.78,98.89c.02.4.15.78.24,1.17.2-.11.39-.21.7-.38-.12-.38-.24-.75-.37-1.12-.2.11-.57.23-.57.33ZM283.89,83.5c.05.59.22,1.17.34,1.75.21-.3.41-.6.71-1.04-.25-.53-.49-1.03-.72-1.52-.12.27-.36.56-.33.81ZM284.3,14.16c.02.89.22,1.78.34,2.67.16-.7.33-1.4.53-2.25-.13-.61-.29-1.31-.44-2-.15.53-.44,1.06-.43,1.59ZM284.39,130.11c-.21-.11-.4-.21-.59-.3-.05.14-.17.32-.13.41.1.23.27.43.41.64.1-.25.21-.5.31-.75ZM284.01,78.36c.3-.26.61-.41.62-.57.03-.59-.05-1.18-.08-1.76-.18.14-.49.26-.5.41-.06.59-.03,1.19-.03,1.92ZM284.2,114.46c.14-.54.27-.98.33-1.43,0-.06-.38-.18-.58-.28-.05.3-.16.61-.13.9.03.25.21.47.38.81ZM284.31,135.66c-.17-.09-.35-.19-.52-.28-.03.14-.13.31-.09.42.08.23.23.43.36.65.09-.26.18-.52.25-.79ZM284.43,58c-.11.3-.28.56-.27.81,0,.21.21.42.33.63.1-.25.28-.51.28-.77,0-.21-.21-.43-.34-.68ZM284.85,104.35c-.15-.23-.28-.45-.41-.66-.16.21-.34.4-.45.63-.04.07.15.38.17.37.24-.09.46-.22.69-.33ZM284.73,40.64c.05-.29.11-.58.18-.98-.12-.24-.27-.56-.43-.87-.04.3-.16.61-.11.89.05.33.23.64.36.96ZM284.94,48.48c.07-.27.25-.57.18-.79-.06-.22-.35-.35-.54-.52-.06.27-.21.57-.16.81.04.19.32.33.52.5ZM287.84,73.47c.59.25.48-1.5.63-2.98-.11-.64-.33-1.85-.55-3.06-1.2.36-.91,1.51-.76,2.26.25,1.3-.77,3.15.68,3.77ZM287.74,87.56c.97.12.24-1.85.55-2.83-.28-1.12.72-2.96-.55-3.21-.8-.16-.62,1.89-.5,2.88.13,1.11-.84,3.01.5,3.17ZM288.05,58.62c.7.38-.06-2.44.54-3.88-.44-1.11.6-2.63-.68-3.74-.17.71-.64,1.55-.45,2.11.65,1.89-1.27,4.48.59,5.5ZM287.51,23.32c.08.35.39.63.59.93.2-.33.4-.66.63-1.04-.42-.22-.12-1.18-.84-.68-.21.15-.44.56-.39.78ZM288.37,95.14c-.14-.6-.38-1.62-.62-2.64-.19.86-.5,1.71-.52,2.57-.02.85-.46,2.29.58,2.41.93.11.42-1.19.56-2.35ZM287.94,28.96c-.44-.23-.44,1.35-.3,2.08.41,2.27-.64,4.69.55,6.87.13-1.42.25-2.84.41-4.55-1.17-1.22,1.44-3.29-.66-4.4ZM288.15,62.37c-.25.19-.57.33-.73.59-.07.11.19.46.3.7.19-.15.38-.3.57-.45-.05-.29-.1-.57-.14-.84ZM288.05,104.38c-.03-.41-.24-.81-.38-1.21-.18.56-.44,1.1-.5,1.67-.04.36.22.76.67,2.17.14-1.58.25-2.11.21-2.64ZM287.46,114.9c.09-.03.15-.19.22-.3-.07-.11-.14-.21-.22-.32-.11.17-.23.34-.35.51.12.04.25.14.34.11ZM287.69,43.26c.13.18.32.3.5.46.06-.26.13-.52.19-.77-.2-.03-.41-.08-.61-.07-.03,0-.13.31-.08.38ZM287.61,142.39c-.16-.08-.32-.16-.48-.24,0,.13-.05.28,0,.38.05.1.19.13.29.19.06-.11.13-.22.19-.33ZM291.07,76.64c1.25.15.7-1.37.8-2.56-1.1-.78.83-2.97-1.22-3.72-.26,1.04-.72,2.07-.72,3.11,0,1.16-.33,2.99,1.14,3.17ZM290.5,19.05c0,.1.4.24.73.42.09-.48.22-.91.22-1.33,0-.11-.41-.22-.63-.32-.12.41-.28.81-.32,1.23ZM290.86,103.16c.26.02.6-.85.82-1.19-.25-.95.22-2.06-.9-2.05-.25,0-.7.9-.71,1.39-.02.69-.17,1.75.8,1.84ZM291.94,86.36c-.85-1.41.17-3.45-1.4-4.69-.11.59-.4,1.21-.31,1.75.29,1.76.71,3.49,1.08,5.23.2-.71.39-1.43.63-2.29ZM292.06,51.36c-.23-.47-.41-.84-.59-1.22-.31.26-.76.46-.92.81-.28.6-.17,1.26.59,1.24.29,0,.57-.5.91-.83ZM291.31,60.26c.26-1,.46-1.4.44-1.8-.02-.76-.05-1.62-.93-1.81-.09-.02-.49.7-.43,1,.14.71.46,1.38.91,2.61ZM291.78,24.55c-.19-.17-.39-.35-.67-.59-.15.21-.3.42-.46.63.2.17.39.46.59.46.18,0,.36-.32.54-.49ZM291.03,134.98c-.13-.18-.32-.54-.39-.51-.23.08-.42.31-.63.48.14.18.32.54.42.52.22-.05.41-.3.6-.49ZM290.46,64.67c.07.32.57.52.88.77.21-.36.41-.72.71-1.25-.45-.26-.88-.67-1.08-.57-.28.15-.58.75-.51,1.05ZM291.33,28.22c-.2.87-.62,1.75-.56,2.6.09,1.28.52,2.54.8,3.8.2-1.05.4-2.1.58-3.08-.57-1.1.45-2.54-.83-3.32ZM290.97,108.94c-.24.14-.68.32-.67.42.04.36.25.69.39,1.04.18-.21.36-.42.55-.64-.09-.28-.18-.55-.27-.82ZM291.12,92.3c-.37.65-.68.96-.69,1.29-.01.41.22.84.35,1.25.22-.28.58-.54.63-.85.06-.4-.13-.84-.29-1.69ZM291.76,42.88c0-.22-.2-.45-.32-.7-.2.16-.51.28-.53.46-.03.18.18.51.35.59.11.05.5-.22.5-.35ZM290.52,181.61c.06-.13.12-.26.18-.4-.12-.06-.27-.19-.35-.16-.09.04-.12.24-.18.37.12.06.24.12.35.18ZM291.35,45.61c-.02.12-.08.26-.05.36.02.06.17.08.27.12.02-.12.08-.26.05-.36-.02-.07-.17-.08-.27-.12ZM295.43,71.35c-1.22-1.27.34-3.33-1.4-4.22-.21.88-.57,1.75-.58,2.63,0,1.14-.41,2.67,1.21,2.97.17.03.5-.89.77-1.38ZM294.2,60.5c1.66.2,0-2.41.98-3.41.11-1.11.39-2.7-.59-2.94-1.06-.26-.98,1.35-.87,2.15.2,1.48-.82,4.05.48,4.2ZM293.67,83.27c-.02.79-.55,2.31.67,2.26,1.25-.06.34-1.57.75-2.67-.19-.64-.46-1.51-.73-2.37-1.33.59-.67,1.85-.69,2.79ZM293.82,41.1c.02.31.4.59.62.88.12-.27.35-.56.34-.82-.03-.43-.22-.85-.45-1.66-.27.78-.53,1.2-.5,1.6ZM293.65,92.44c-.04.18.25.44.39.66.23-.3.46-.61.68-.9-.25-.33-.41-.54-.57-.76-.18.33-.43.64-.5,1ZM293.54,112.72c0,.42.13.84.21,1.26.17-.16.35-.32.59-.55-.1-.37-.21-.78-.31-1.2-.17.16-.49.33-.49.49ZM294.54,46.03c-.2.25-.5.46-.57.75-.04.16.28.44.44.66.14-.19.27-.38.41-.57-.1-.28-.19-.57-.28-.85ZM294.13,20.13c-.04.12.07.29.12.44.2-.13.57-.26.58-.39,0-.26-.19-.53-.32-.84-.14.28-.3.52-.38.79ZM294.54,103.21c-.32.07-.82.24-.87.46-.07.32.21.72.44,1.39.37-.54.65-.82.75-1.16.05-.19-.25-.71-.32-.69ZM294.13,27.59c.02.15,0,.32.07.44.03.05.21,0,.32,0,.04-.14.07-.29.1-.43-.16,0-.33,0-.49,0ZM293.78,123.87c.2.13.52.03.79.03-.03-.26.02-.67-.11-.76-.19-.13-.51-.03-.78-.03.02.27-.03.69.09.77ZM293.77,131.73s.26.21.31.17c.19-.12.35-.32.54-.51-.24-.13-.45-.24-.66-.35-.07.23-.16.45-.19.68ZM294.8,148.7c-.17-.27-.28-.6-.5-.73-.1-.06-.57.28-.56.42,0,.25.21.61.41.7.14.06.42-.25.65-.4ZM298.7,60.37c-.98-1.72.39-3.87-1.18-5.32-.95,1.8-.53,3.73-.35,5.59.19,2.01-.46,4.13.55,6.04.33-2.12.66-4.23.98-6.3ZM297.92,77.17c-.09-1.92.99-4.03-.53-5.78-.95,1.84-.04,3.78-.36,5.79.49,1.91-1.25,4.29.82,6.07,1.15-2.01.16-4.08.06-6.08ZM297.34,88.47c-.19,2.19-.51,4.37-.52,6.55,0,1.82.37,3.64.58,5.47,1.05-1.66.31-3.54.64-5.21-.08-2.35.5-4.69-.7-6.81ZM297.57,133.28c-.01-.21-.31-.41-.48-.61-.13.42-.32.83-.35,1.26-.01.19.32.41.62.76.09-.57.23-.99.21-1.41ZM297.26,49.53c.15.29.39.53.61.78.12-.23.23-.45.36-.69-.17-.22-.33-.42-.49-.63-.17.18-.51.47-.48.54ZM297.86,109.72c-.15-.39-.3-.78-.45-1.16-.15.22-.39.42-.43.66-.04.26.1.56.16.84.2-.1.41-.19.72-.34ZM297.59,114.89c-.02-.26-.16-.52-.26-.82-.12.3-.34.57-.31.8.05.32.28.6.44.89.05-.29.14-.59.12-.88ZM297.57,29.2c.05.35.23.67.35,1.01.07-.28.13-.56.23-.98-.11-.22-.26-.54-.42-.85-.06.28-.2.57-.17.83ZM297.28,121.89c-.01.24-.03.48-.05.72.08-.11.22-.22.23-.33,0-.13-.11-.26-.18-.39ZM301.59,89.4c-.37-.25-.64-.44-.92-.62-.1.25-.34.55-.28.75.1.37.37.69.57,1.03.18-.34.37-.67.64-1.16ZM300.66,120.78s.21-.14.32-.22c-.13-.21-.26-.42-.41-.61-.01-.02-.21.15-.32.23.14.21.26.42.42.61ZM300.57,68.44c.11.32.4.55.61.82.06-.27.12-.55.18-.84-.13-.22-.27-.43-.4-.65-.14.22-.44.52-.38.66ZM300.27,125.82c.15.08.31.17.46.25.02-.12.08-.26.03-.34-.04-.09-.18-.11-.28-.16-.07.08-.14.17-.21.26ZM301.07,111.23c.14-.87-.07-1.8-.13-2.71-1,.67-.17,1.68-.48,2.74.08.81.19,1.87.29,2.92,1.04-.85.15-1.97.32-2.95ZM301.03,129.01c-.05-.18-.32-.28-.61-.53,0,.52-.02.92.02,1.31,0,.04.49.09.5.04.08-.26.16-.58.09-.83ZM300.75,97.74c.13-.08.37-.15.37-.23,0-.26-.08-.53-.14-.86-.11.26-.22.46-.27.67-.03.13.03.28.04.42Z"/>
      <path class="st0" d="M400.54,118.76c-9.09,5.43-5.73,14.81-6.31,22.83-.53,7.36.36,14.75-.73,22.16-1.29,8.75-4.92,15.89-10.53,22.02,0,0,0,0,.01,0-5.97,8.39-24.36,13.4-33.68,10.02-8.86-3.22-15.86-7.66-21.1-15.79-4.74-7.36-6.56-15.75-5.66-24.63,1.05-10.34-.73-20.69.75-31.01.64-4.44-1.44-.32-2.18-.57-3.73-1.24-6.22-8.37-3.07-10.6,6.86-4.87,4.46-11.34,4.59-17.99.17-8.97.3-17.94.38-26.91.08-8.93.26-17.86.07-26.77-.23-10.74,2.91-19.89,9.99-27.32.71-.74,1.3-4.9,3.38-.91.4.77.43-.32.48-.56,2.05-8.67,9.55-8.16,15.07-10.17,4.93-1.79,10.71-1.58,15.63.46,8.96,3.72,16.45,8.76,21.87,18.95,7.84,14.74,4.28,29.96,5,44.99.62,13.01.05,26.1-.04,39.16-.03,4.24,3.49,5.64,5.33,8.39.93,1.4,2.92,2.97.75,4.26ZM323.2,114.88c-.16,0-.33,0-.49.01.02.14.05.27.08.4.11,0,.28.05.32-.01.07-.09.07-.26.09-.4ZM326.46,161.91c-.01-.35-.4-.69-.62-1.03-.23.29-.47.59-.75.94.35.5.6.86.84,1.21.19-.38.54-.76.53-1.13ZM325.71,71.04c.16.5.54.91.83,1.35.2-.33.4-.66.63-1.04-.26-.43-.47-.78-.67-1.13-.28.28-.84.67-.79.82ZM327.01,121.24c-.55-1.51.6-3.22-.85-4.35-.69,1.1-.8,2.25-.65,3.59.17,1.5-.25,3.11.97,4.31.18-1.23.37-2.45.53-3.55ZM325.83,109.81c.04.35.41.65.64.98.14-.26.29-.53.5-.91-.2-.32-.42-.68-.64-1.05-.18.33-.53.68-.5.99ZM327.03,96.52c-.2-.53-.35-.93-.5-1.34-.2.37-.53.73-.55,1.11-.02.39.27.8.43,1.2.21-.32.41-.64.63-.97ZM326.23,86.71c.03.79.17,1.57.26,2.35.13-.65.26-1.3.38-1.93-.07-.64-.14-1.22-.21-1.81-.97.15-.45.91-.43,1.39ZM326.32,59.35c-.04.41.17.85.27,1.28.23-.46.46-.93.59-1.21-.17-.76-.27-1.21-.37-1.66-.17.53-.43,1.05-.49,1.59ZM326.37,104.93c.17-.21.43-.39.44-.59.02-.22-.19-.46-.3-.68-.16.18-.43.35-.45.54-.02.22.19.46.31.73ZM326.66,132.39c-.08-.27-.16-.55-.24-.82-.13.19-.36.37-.38.57-.02.26.12.54.19.81.14-.19.28-.37.43-.57ZM326.49,65.32c-.02.11.07.25.13.45.06-.26.1-.45.14-.64-.1.06-.26.11-.27.19ZM330.38,127.44c-.15-.96-.48-1.62-1.14-1.22-.37.22-.55,1.03-.6,1.6-.05.53-.07,1.55.67,1.28.52-.19.79-1.19,1.08-1.67ZM330.5,114.71c-.47-.42-.76-.67-1.04-.92-.26.44-.64.85-.73,1.33-.05.22.44.58.69.87.33-.39.66-.77,1.09-1.28ZM328.67,143.34c-.05.08.24.45.46.85.3-.36.6-.63.77-.98.06-.12-.24-.45-.38-.68-.29.26-.62.49-.85.81ZM330.04,45.81c.27-.19.34-.83.38-1.28.01-.17-.32-.37-.57-.64-.17.43-.42.83-.5,1.26-.1.55.17,1.03.69.65ZM329.45,138.23c.2-.44.43-.81.51-1.21.03-.17-.26-.42-.41-.63-.23.38-.5.73-.66,1.14-.04.1.29.37.56.7ZM329.9,168.89c-.12-.24-.37-.73-.62-1.21-.2.19-.56.39-.55.57.02.45.11.97.35,1.31.37.52.67.26.82-.67ZM330.46,49.42c-.11-.26-.17-.62-.34-.7-.16-.08-.45.12-.68.2.15.32.3.64.45.97.19-.15.37-.3.57-.46ZM329.93,75.11c-.18.31-.59.7-.53.95.18.81.53,1.57.82,2.34.17-.41.42-.8.48-1.23.1-.74.18-1.54-.76-2.06ZM330.25,88.93c-.23-.05-.45-.13-.66-.12-.07,0-.22.31-.2.34.15.19.34.33.52.49.11-.23.22-.47.34-.71ZM329.99,68.87c-.12.27-.33.54-.33.81s.2.56.31.84c.19-.16.38-.32.65-.56-.21-.36-.42-.72-.63-1.08ZM329.88,94.68c-.11.24-.22.47-.3.71,0,.02.21.13.33.19.1-.23.21-.46.29-.71,0-.02-.2-.12-.32-.2ZM332.22,78.41c-.03.72-.17,1.58.71,1.94.89-.38.74-1.24.69-1.97-.05-.72.17-1.92-.74-1.89-.87.03-.63,1.21-.66,1.92ZM332.26,114.04c.04.96-.89,2.22.48,2.91.29-1.02.57-2.04.63-2.22.1-1.8.54-3.38-.36-3.36-1.37.03-.79,1.73-.75,2.67ZM332.42,64.93c.25.24.51.49.78.74.13-.25.43-.57.37-.73-.14-.36-.45-.65-.7-.96-.12.26-.25.52-.45.94ZM332.08,123.53c.08.4.32.76.49,1.14.18-.21.5-.42.51-.63,0-.36-.18-.73-.32-1.2-.34.33-.7.56-.68.69ZM332.1,129.9c.19.34.37.68.56,1.02.18-.21.36-.42.55-.64-.14-.27-.23-.65-.43-.74-.15-.07-.44.23-.67.36ZM333.05,104.88c-.55-.4-.7.1-.71.56-.01.28.15.57.23.85.2-.18.39-.37.59-.56-.03-.29.03-.74-.11-.84ZM332.93,165.3c-.08-.23-.22-.44-.34-.66-.16.17-.33.33-.5.52.2.15.39.31.6.42.04.02.26-.23.25-.28ZM333.48,85.11c-.2-.19-.4-.38-.6-.57-.12.22-.35.49-.31.67.06.22.35.36.54.54.12-.21.25-.42.38-.63ZM332.57,136.78c-.1.07-.3.18-.29.21.08.23.19.44.3.66.1-.08.2-.16.3-.24-.1-.21-.2-.42-.31-.63ZM333.13,70.71c-.15.18-.31.35-.42.56-.03.05.15.34.21.33.22-.04.42-.15.65-.24-.15-.22-.3-.43-.44-.64ZM332.96,39.72c.07.22.2.42.31.63.17-.15.33-.3.51-.46-.21-.16-.39-.32-.59-.44-.03-.02-.25.21-.23.27ZM333.48,142.34c-.12-.25-.23-.51-.36-.78-.24.14-.57.21-.65.4-.09.21.06.54.1.82.3-.15.61-.3.91-.45ZM335.29,106.14c.24.51.59.96.89,1.44.23-.89.53-1.76.66-2.67.09-.61-.09-1.25-.88-1.21-.77.63-1.14,1.42-.67,2.44ZM335.37,116.15c.32,1.03-.42,2.3.95,2.42.12.01.51-1.11.46-1.67-.09-.87-.45-1.71-.7-2.56-.26.66-.52,1.32-.71,1.81ZM336.06,123.06c-.67-.21-.86,1.15-.63,1.87.41,1.32-.76,3.26.63,3.85.56.24.17-1.86.37-2.88-.22-.97,1.1-2.38-.38-2.84ZM335.78,90.34c.53-1.09.79-1.41.84-1.76.05-.42-.08-.86-.13-1.29-.29.18-.78.31-.82.54-.1.53.03,1.11.11,2.52ZM336.07,135.55c-.19-.04-.75.62-.71.83.16.68.52,1.3.81,1.95.16-.41.31-.82.36-.93.05-.93.34-1.67-.46-1.84ZM335.75,80.86c-.02.53.37,1.07.57,1.6.22-.55.62-1.1.63-1.66.09-3.59.23-7.19-.73-10.71-.17,3.59-.36,7.17-.47,10.76ZM335.74,95.15c.15.64.31,1.35.47,2.05.23-.87.56-1.73.65-2.62.06-.58-.25-1.21-.39-1.81-1.21.42-.2,1.61-.72,2.38ZM336,172.08l-.25-.36c-.1.1-.2.2-.29.31.15.17.3.34.45.51.03-.15.06-.3.09-.45ZM336.35,19.4c.01.23.26.44.4.65.11-.28.21-.56.31-.85-.15-.21-.3-.42-.44-.63-.1.28-.29.56-.27.82ZM336.9,51.33c-.15-.18-.36-.29-.57-.45-.06.28-.11.56-.16.83.21.01.43.05.64.02.05,0,.13-.34.08-.4ZM336.32,43.8c.14-.03.36-.05.36-.07,0-.29-.04-.59-.07-.88-.12.02-.34.05-.34.07,0,.3.03.59.05.88ZM336.03,146.38c.03-.26.07-.52.08-.79,0-.02-.21-.04-.34-.07-.03.26-.06.52-.06.78,0,.02.22.05.33.07ZM336.52,67.8c-.11.02-.32.04-.32.06,0,.65,0,1.29.02,1.94.1-.67.2-1.33.3-2ZM340.14,103.97c-.29-.49.39-1.59-.68-1.69-.15-.01-.48,1.02-.55,1.59-.09.71-.24,1.75.78,1.69.7-.04.62-.88.44-1.6ZM339.47,25.19c.27.92-.65,2.15.63,2.81.17-1.19.43-2.38.49-3.57.03-.7-.27-1.42-.41-2.13-1.26.68-.54,1.9-.7,2.9ZM340.31,96.85c-.19-.43-.47-1.07-.75-1.71-.18.38-.52.77-.5,1.14.03.73.09,1.92.45,2.08.69.3.68-.64.8-1.5ZM340.04,113.38c-.12-.54-.31-1.39-.5-2.23-.16,1.04-.38,2.08-.47,3.14-.05.56.11,1.15.18,1.72,1.3-.37.53-1.5.78-2.63ZM339.34,86.25c.04.46.26.89.74.43.14-.14.17-.56.1-.79-.05-.17-.34-.26-.54-.4-.12.27-.33.53-.31.76ZM339.63,78.81c.09-.08.24-.15.26-.25.02-.1-.09-.24-.13-.36-.09.09-.23.17-.26.27-.02.09.09.22.14.33ZM339.49,182.93c-.08-.11-.17-.22-.25-.34-.12.21-.27.4-.35.62-.02.07.15.22.23.34.12-.21.24-.41.37-.62ZM339.91,17.05c-.02.07.15.19.23.29.1-.21.2-.42.3-.63-.09-.11-.17-.21-.25-.31-.1.22-.22.43-.28.65ZM342.66,14.04c.14,2.33.33,4.66.5,6.98,1.78-1.03.54-2.81.99-4.22-.51-1.57.79-3.77-1.08-4.72-.61-.31-.45,1.23-.41,1.96ZM342.96,106.79c-.32.01-.75.82-.88,1.33-.08.32.25.99.55,1.12.9.41.74-.55.94-1.04-.02-.58.21-1.44-.6-1.41ZM343.48,29.19c-.33.07-.86.24-.9.47-.06.34.22.76.46,1.44.38-.56.67-.84.77-1.19.06-.19-.26-.73-.34-.72ZM373.1,85.84c.09-14.98,0-29.97.19-44.95.06-4.87-3.89-8.33-3.26-13.26-3.34,1.54-3.13-.82-3.03-3.25.04-.92-.3-1.86-.46-2.79-1.3.64-.23,1.98-.72,2.88-.42.77.22,2.33-.95,2.4-1.38.07-1.36-1.37-1.35-2.51.03-3.06.13-6.12.11-9.18,0-.68-.41-1.35-.63-2.02-.17.75-.46,1.49-.5,2.24-.12,2.73-.12,5.46-.25,8.19-.03.58-.42,1.14-.65,1.71-.3-.24-.8-.42-.88-.72-.69-2.8-3.86,2.11-4.19-1.63-1.75,3.28-5.25,4.11-7.55,6.83-7.15,8.45-4.71,18.94-4.9,28.43-.16,7.92-.15,15.92-.35,23.89l.09-.02c-1.36,1.25-1.43,2.82-.94,4.52.18.09.35.18.53.27.29.88.79,1.76.83,2.66.43,11.25-.62,22.49-.12,33.77.51,11.56-.04,23.19-.14,34.79-.08,8.82,5.79,15.31,14.08,15.54,6.99.19,14.1-7.03,14.34-14.8.23-7.56.25-15.13.31-22.7.15-16.76.31-33.52.4-50.28ZM343.99,23.93c-.02-.18-.35-.31-.54-.47-.12.27-.23.55-.36.84.22.17.42.32.63.48.1-.29.29-.58.27-.86ZM346.63,11.18c.22-.04.34-.76.53-1.25-.24-.37-.46-.7-.68-1.04-.21.36-.57.71-.59,1.07-.03.52-.09,1.37.74,1.22ZM346.54,29.71s.35-1.08.57-1.79c-.24-.63-.48-1.3-.73-1.97-.2.51-.64,1.09-.54,1.52.18.77-.45,1.91.7,2.24ZM346.51,16.13c-1.07-.09-.42,1.55-.43,2.4-.01.88.25,2.53.35,2.52,1.57-.08.47-1.36.72-2.1-.43-.93.73-2.7-.63-2.82ZM345.88,182.66c-.03-.23-.06-.48-.1-.73-.18.11-.38.18-.53.33-.06.05,0,.37.03.38.19.04.39.02.6.02ZM349.2,16.82c.13,2.44.27,5.12.41,7.8,1.67-2.53.77-5.39.82-8.1.06-2.7-.21-5.4-.33-8.1-1.97,2.54-.03,5.47-.9,8.4ZM349.14,188.3c-.03-.27-.12-.54-.2-.82-.11.11-.3.22-.29.3.03.27.13.53.2.8.1-.09.29-.2.28-.28ZM353.37,17.94c1.07-1.77.43-3.75.43-5.59,0-1.92.93-4.05-.54-5.81-1.09,1.81.06,3.81-.51,5.84,1.04,1.65-1.37,3.87.63,5.56ZM355.81,16.22c-.06.92-.12,2.04,1.08,2.12.12,0,.33-1.38.49-2.09-.2-.78.21-1.97-.81-1.98-1.05,0-.71,1.23-.75,1.94ZM356.53,10.33c.17.05.42-.18.66-.3-.11-.26-.21-.5-.31-.74-.22.13-.53.2-.62.4-.06.14.13.6.27.64ZM356.65,5.43c.05.23.16.45.24.68.08-.08.25-.19.23-.25-.04-.24-.14-.47-.23-.74-.1.12-.26.23-.25.31ZM359.16,12.4c.1,2.15.37,4.3.57,6.45,1.51-.79-.1-2.31.67-3.28.27-1.74.55-3.67-.67-4.9-.46-.47-.61,1.14-.58,1.73ZM359.2,6.68c.09.26.13.62.29.72.13.08.43-.16.65-.25-.14-.33-.27-.66-.41-.99-.17.17-.35.34-.53.52ZM362.73,7.86c0,.19.29.37.45.56.11-.39.29-.77.31-1.16.01-.19-.26-.39-.49-.7-.12.51-.27.91-.27,1.31ZM362.2,187.64l-.24.12.18.25.06-.37ZM366.45,17.25c.92.17.75-1.84.62-2.83-.17-1.29.84-3.61-.63-3.68-1.61-.08-.2,2.01-.56,3.08.33,1.17-1.35,3.06.56,3.43ZM366.18,175.93c-.2-.23-.43-.5-.65-.76-.11.26-.35.56-.3.78.08.32.36.59.55.87.11-.25.23-.5.4-.89ZM365.95,182.19c-.08-.26-.15-.53-.23-.81-.16.2-.34.37-.45.58-.05.1.05.28.09.42.2-.06.39-.13.59-.19ZM365.7,192.88c-.08-.12-.17-.24-.25-.37-.02.14-.06.28-.04.41.03.24.09.47.14.71.05-.25.1-.5.15-.76ZM368.92,22.22c-.02.5.41,1.45.63,1.45,1.14-.03.66-1.09.84-2.11-.12-.28-.41-1.25-.58-1.22-.93.15-.86,1.17-.89,1.88ZM369.26,186.86c-.12-.39-.49-.69-.79-1.08-.17.36-.44.67-.38.84.14.41.44.75.67,1.12.18-.3.57-.67.5-.88ZM369.32,13.37c.06.37.42.68.8,1.25.16-.65.39-1.08.31-1.42-.08-.34-.46-.6-.72-.89-.14.36-.44.74-.39,1.06ZM373.95,17.17c-.27-1.66.73-4.17-.97-4.74-1.06-.36-.44,2-.78,3.4.65,1.57-.33,3.73.98,5.45.84-1.24.99-2.69.76-4.11ZM375.43,25.86c.12.6.21,1.51.57,1.69.86.42.78-.57.84-1.09.08-.74.18-1.57-.63-1.98-.69.18-.9.71-.77,1.38ZM376.66,69.88c-.2-.31-.49-.75-.78-1.19-.2.37-.58.76-.57,1.12.02.56.24,1.51.51,1.57.78.18.63-.71.83-1.51ZM376.04,122.83c-.08-.61.67-1.59-.52-1.82-.09.6-.17,1.19-.25,1.76.27.63-.56,1.58.55,1.88.09-.61.29-1.23.22-1.82ZM375.37,99.7c.02.4.15.78.24,1.17.2-.11.39-.21.7-.38-.12-.38-.24-.75-.37-1.12-.2.11-.57.23-.57.33ZM375.47,84.31c.05.59.22,1.17.34,1.75.21-.3.41-.6.71-1.04-.25-.53-.49-1.03-.72-1.52-.12.27-.36.56-.34.81ZM375.88,14.97c.02.89.22,1.78.34,2.67.16-.7.33-1.4.53-2.25-.13-.61-.29-1.31-.44-2-.15.53-.44,1.06-.43,1.59ZM375.97,130.92c-.21-.11-.4-.21-.59-.3-.05.14-.17.32-.13.41.1.23.27.43.41.64.1-.25.21-.5.31-.75ZM375.6,79.18c.3-.26.61-.41.62-.57.03-.59-.05-1.18-.08-1.76-.18.14-.49.26-.5.41-.06.59-.03,1.19-.03,1.92ZM375.78,115.27c.14-.54.27-.98.33-1.43,0-.06-.38-.18-.58-.28-.05.3-.16.61-.13.9.03.25.21.47.38.81ZM375.89,136.47c-.17-.09-.35-.19-.52-.28-.03.14-.13.31-.09.42.08.23.23.43.36.65.09-.26.18-.52.25-.79ZM376.01,58.81c-.11.3-.28.56-.27.81,0,.21.21.42.33.63.1-.25.28-.51.28-.77,0-.21-.21-.43-.34-.68ZM376.43,105.16c-.15-.23-.28-.45-.41-.66-.16.21-.34.4-.45.63-.04.07.15.38.17.37.24-.09.46-.22.69-.33ZM376.31,41.45c.05-.29.11-.58.18-.98-.12-.24-.27-.56-.43-.87-.04.3-.16.61-.11.89.05.33.23.64.36.96ZM376.53,49.29c.07-.27.25-.57.18-.79-.06-.22-.35-.35-.54-.52-.06.27-.21.57-.16.81.04.19.32.33.52.5ZM379.42,74.29c.59.25.48-1.5.63-2.98-.11-.64-.33-1.85-.55-3.06-1.2.36-.91,1.51-.76,2.26.25,1.3-.77,3.15.68,3.77ZM379.32,88.37c.97.12.24-1.85.55-2.83-.28-1.12.72-2.96-.55-3.21-.8-.16-.62,1.89-.5,2.88.13,1.11-.84,3.01.5,3.17ZM379.63,59.43c.7.38-.06-2.44.54-3.88-.44-1.11.6-2.63-.68-3.74-.17.71-.64,1.55-.45,2.11.65,1.89-1.27,4.48.59,5.5ZM379.09,24.13c.08.35.39.63.59.93.2-.33.4-.66.63-1.04-.42-.22-.12-1.18-.84-.68-.21.15-.44.56-.39.78ZM379.95,95.95c-.14-.6-.38-1.62-.62-2.64-.19.86-.5,1.71-.52,2.57-.02.85-.46,2.29.58,2.41.93.11.42-1.19.56-2.35ZM379.53,29.78c-.44-.23-.44,1.35-.3,2.08.41,2.27-.64,4.69.55,6.87.13-1.42.25-2.84.41-4.55-1.17-1.22,1.44-3.29-.66-4.4ZM379.73,63.19c-.25.19-.57.33-.73.59-.07.11.19.46.3.7.19-.15.38-.3.57-.45-.05-.29-.1-.57-.14-.84ZM379.63,105.2c-.03-.41-.24-.81-.38-1.21-.18.56-.44,1.1-.5,1.67-.04.36.22.76.67,2.17.14-1.58.25-2.11.21-2.64ZM379.04,115.71c.09-.03.15-.19.22-.3-.07-.11-.14-.21-.22-.32-.11.17-.23.34-.35.51.12.04.25.14.34.11ZM379.28,44.07c.13.18.32.3.5.46.06-.26.13-.52.19-.77-.2-.03-.41-.08-.61-.07-.03,0-.13.31-.08.38ZM379.19,143.2c-.16-.08-.32-.16-.48-.24,0,.13-.05.28,0,.38.05.1.19.13.29.19.06-.11.13-.22.19-.33ZM382.66,77.45c1.25.15.7-1.37.8-2.56-1.1-.78.83-2.97-1.22-3.72-.26,1.04-.72,2.07-.72,3.11,0,1.16-.33,2.99,1.14,3.17ZM382.08,19.87c0,.1.4.24.73.42.09-.48.22-.91.22-1.33,0-.11-.41-.22-.63-.32-.12.41-.28.81-.32,1.23ZM382.44,103.97c.26.02.6-.85.82-1.19-.25-.95.22-2.06-.9-2.05-.25,0-.7.9-.71,1.39-.02.69-.17,1.75.8,1.84ZM383.52,87.17c-.85-1.41.17-3.45-1.4-4.69-.11.59-.4,1.21-.31,1.75.29,1.76.71,3.49,1.08,5.23.2-.71.39-1.43.63-2.29ZM383.64,52.17c-.23-.47-.41-.84-.59-1.22-.31.26-.76.46-.92.81-.28.6-.17,1.26.59,1.24.29,0,.57-.5.91-.83ZM382.89,61.08c.26-1,.46-1.4.44-1.8-.02-.76-.05-1.62-.93-1.81-.09-.02-.49.7-.43,1,.14.71.46,1.38.91,2.61ZM383.36,25.37c-.19-.17-.39-.35-.67-.59-.15.21-.3.42-.46.63.2.17.39.46.59.46.18,0,.36-.32.54-.49ZM382.61,135.79c-.13-.18-.32-.54-.39-.51-.23.08-.42.31-.63.48.14.18.32.54.42.52.22-.05.41-.3.6-.49ZM382.04,65.48c.07.32.57.52.88.77.21-.36.41-.72.71-1.25-.45-.26-.88-.67-1.08-.57-.28.15-.58.75-.51,1.05ZM382.91,29.03c-.2.87-.62,1.75-.56,2.6.09,1.28.52,2.54.8,3.8.2-1.05.4-2.1.58-3.08-.57-1.1.45-2.54-.83-3.32ZM382.55,109.76c-.24.14-.68.32-.67.42.04.36.25.69.39,1.04.18-.21.36-.42.55-.64-.09-.28-.18-.55-.27-.82ZM382.7,93.12c-.37.65-.68.96-.69,1.29-.01.41.22.84.35,1.25.22-.28.58-.54.63-.85.06-.4-.13-.84-.29-1.69ZM383.34,43.69c0-.22-.2-.45-.32-.7-.2.16-.51.28-.53.46-.03.18.18.51.35.59.11.05.5-.22.5-.35ZM382.11,182.42c.06-.13.12-.26.18-.4-.12-.06-.27-.19-.35-.16-.09.04-.12.24-.18.37.12.06.24.12.35.18ZM382.93,46.42c-.02.12-.08.26-.05.36.02.06.17.08.27.12.02-.12.08-.26.05-.36-.02-.07-.17-.08-.27-.12ZM387.01,72.16c-1.22-1.27.34-3.33-1.4-4.22-.21.88-.57,1.75-.58,2.63,0,1.14-.41,2.67,1.21,2.97.17.03.5-.89.77-1.38ZM385.78,61.31c1.66.2,0-2.41.98-3.41.11-1.11.39-2.7-.59-2.94-1.06-.26-.98,1.35-.87,2.15.2,1.48-.82,4.05.48,4.2ZM385.25,84.08c-.02.79-.55,2.31.67,2.26,1.25-.06.34-1.57.75-2.67-.19-.64-.46-1.51-.73-2.37-1.33.59-.67,1.85-.69,2.79ZM385.41,41.91c.02.31.4.59.62.88.12-.27.35-.56.34-.82-.03-.43-.22-.85-.45-1.66-.27.78-.53,1.2-.5,1.6ZM385.23,93.25c-.04.18.25.44.39.66.23-.3.46-.61.68-.9-.25-.33-.41-.54-.57-.76-.18.33-.43.64-.5,1ZM385.12,113.53c0,.42.13.84.21,1.26.17-.16.35-.32.59-.55-.1-.37-.21-.78-.31-1.2-.17.16-.49.33-.49.49ZM386.12,46.84c-.2.25-.5.46-.57.75-.04.16.28.44.44.66.14-.19.27-.38.41-.57-.1-.28-.19-.57-.28-.85ZM385.71,20.94c-.04.12.07.29.12.44.2-.13.57-.26.58-.39,0-.26-.19-.53-.32-.84-.14.28-.3.52-.38.79ZM386.12,104.02c-.32.07-.82.24-.87.46-.07.32.21.72.44,1.39.37-.54.65-.82.75-1.16.05-.19-.25-.71-.32-.69ZM385.71,28.4c.02.15,0,.32.07.44.03.05.21,0,.32,0,.04-.14.07-.29.1-.43-.16,0-.33,0-.49,0ZM385.36,124.68c.2.13.52.03.79.03-.03-.26.02-.67-.11-.76-.19-.13-.51-.03-.78-.03.02.27-.03.69.09.77ZM385.35,132.54s.26.21.31.17c.19-.12.35-.32.54-.51-.24-.13-.45-.24-.66-.35-.07.23-.16.45-.19.68ZM386.38,149.51c-.17-.27-.28-.6-.5-.73-.1-.06-.57.28-.56.42,0,.25.21.61.41.7.14.06.42-.25.65-.4ZM390.28,61.18c-.98-1.72.39-3.87-1.18-5.32-.95,1.8-.53,3.73-.35,5.59.19,2.01-.46,4.13.55,6.04.33-2.12.66-4.23.98-6.3ZM389.5,77.98c-.09-1.92.99-4.03-.53-5.78-.95,1.84-.04,3.78-.36,5.79.49,1.91-1.25,4.29.82,6.07,1.15-2.01.16-4.08.06-6.08ZM388.92,89.29c-.19,2.19-.51,4.37-.52,6.55,0,1.82.37,3.64.58,5.47,1.05-1.66.31-3.54.64-5.21-.08-2.35.5-4.69-.7-6.81ZM389.15,134.09c-.01-.21-.31-.41-.48-.61-.13.42-.32.83-.35,1.26-.01.19.32.41.62.76.09-.57.23-.99.21-1.41ZM388.85,50.34c.15.29.39.53.61.78.12-.23.23-.45.36-.69-.17-.22-.33-.42-.49-.63-.17.18-.51.47-.48.54ZM389.44,110.54c-.15-.39-.3-.78-.45-1.16-.15.22-.39.42-.43.66-.04.26.1.56.16.84.2-.1.41-.19.72-.34ZM389.17,115.7c-.02-.26-.16-.52-.26-.82-.12.3-.34.57-.31.8.05.32.28.6.44.89.05-.29.14-.59.12-.88ZM389.15,30.02c.05.35.23.67.35,1.01.07-.28.13-.56.23-.98-.11-.22-.26-.54-.42-.85-.06.28-.2.57-.17.83ZM388.86,122.7c-.01.24-.03.48-.05.72.08-.11.22-.22.23-.33,0-.13-.11-.26-.18-.39ZM393.17,90.21c-.37-.25-.64-.44-.92-.62-.1.25-.34.55-.28.75.1.37.37.69.57,1.03.18-.34.37-.67.64-1.16ZM392.24,121.59s.21-.14.32-.22c-.13-.21-.26-.42-.41-.61-.01-.02-.21.15-.32.23.14.21.26.42.42.61ZM392.15,69.25c.11.32.4.55.61.82.06-.27.12-.55.18-.84-.13-.22-.27-.43-.4-.65-.14.22-.44.52-.38.66ZM391.85,126.63c.15.08.31.17.46.25.02-.12.08-.26.03-.34-.04-.09-.18-.11-.28-.16-.07.08-.14.17-.21.26ZM392.66,112.04c.14-.87-.07-1.8-.13-2.71-1,.67-.17,1.68-.48,2.74.08.81.19,1.87.29,2.92,1.04-.85.15-1.97.32-2.95ZM392.61,129.82c-.05-.18-.32-.28-.61-.53,0,.52-.02.92.02,1.31,0,.04.49.09.5.04.08-.26.16-.58.09-.83ZM392.33,98.55c.13-.08.37-.15.37-.23,0-.26-.08-.53-.14-.86-.11.26-.22.46-.27.67-.03.13.03.28.04.42Z"/>
      <path class="st1" d="M487.02,172.12c-2.84,7.95-5.57,15.96-8.8,23.74-1.03,2.48-4.15,1.9-6.34,1.66-11.3-1.27-22.63-.22-33.94-.37-1.7-.02-4.03,1.15-4.39-2.09-.09-.83-.46-1.08-.83,0-1.52,4.39-5.02,2.07-7.34,1.77-2.77-.35-1.16-3.45-1.51-5.34-.15-.82.42-2.31-.56-2.3-1.2.01-.61,1.44-.46,2.18,1.04,4.98-.98,6.39-5.59,5.85-3.71-.43-7.5-.14-11.25-.17-.73,0-1.62.07-1.69-.91-.03-.4.56-1.04,1.01-1.25,9.43-4.44,8.72-14.46,11.32-22.46,2.5-7.7,4.02-15.72,6.43-23.51,1.8-5.82,2.85-11.99,4.5-17.94.59-2.15-1.17-3.6-2.28-5.16-1.8-2.51-2.5-4.63.91-6.63,7.88-4.62,8.74-13.33,10.95-21.11,3.2-11.29,5.88-22.72,9.53-33.89,2.83-8.66,4.38-17.75,7.46-26.37.48-1.35.11-2.65-.72-3.8-.3,2.38-2.09,1.32-3.31,1.4-6.67.47-13.35.85-20.02,0v.09c-1.36.44-3-3.2-4.29.39-.15.41-2.25.31-3.37.07-6.07-1.27-11.68-1.09-16.02,4.5-.57.73-2.3,1.54-2.61,1.26-.97-.87.27-1.81.58-2.73,1.44-4.29,2.86-8.59,4.45-12.82.14-.38-.26-4.44,2.17-1.06.39.55.37-.6.4-.88.19-1.65.25-3.32.42-4.98.47-4.7,2.97-6.38,7.47-5.88,3.62.4,7.3.11,10.95.27,13.66.6,27.32-.34,40.98-.22,5.11.04,10.22.18,15.33.29.43,0,.86.1,1.29.15-.29.42-.48,1.03-.87,1.22-8.32,4.09-9,12.34-10.95,20.22-2.59,10.47-6.4,20.62-8.99,31.09-1.26,5.12-2.63,10.17-4.13,15.22-2.6,8.74-4.57,17.69-7.36,26.36-1.44,4.48-.83,8.07,2.19,11.09,2.23,2.23,1.61,3.01-.66,4.61-5.03,3.57-8.4,8.07-9.87,14.77-2.42,11.04-6.18,21.77-8.88,32.79-.85,3.49-.1,3.69,2.91,3.76,2.77.06,6.06-1.55,8.35,1.54,1.43-1.35,3.14-1.75,5.03-1.73,6.14.07,12.32-.34,18.4.24,4.66.44,8.07-1.24,11.26-4.26.74-.7,1.44-1.93,2.52-1.2.43.29.46,1.77.19,2.52ZM417.72,33.5c-.27-.1-.54-.29-.8-.27-.11,0-.19.45-.28.69.22.08.45.17.69.26.14-.23.27-.46.39-.68ZM417.83,28.44c-.19-.19-.38-.53-.56-.52-.2,0-.4.32-.6.49.25.26.49.51.74.76.14-.24.28-.48.43-.73ZM418.96,181.22c.09.37.28.71.61,1.51.2-1.19.39-1.9.39-2.6,0-.29-.56-.85-.59-.83-.75.48-.59,1.22-.41,1.92ZM420.58,31.4c-.14-.21-.32-.49-.5-.76-.07.28-.23.58-.19.84.05.3.28.57.43.85.07-.27.15-.53.25-.92ZM420.82,23.24c0-.37-.3-.73-.46-1.1-.14.36-.35.71-.4,1.08-.05.34.08.71.21,1.6.38-.87.66-1.23.65-1.58ZM420.41,187.43c.03-.42-.02-.98-.66-.7-.18.08-.33.52-.31.76.02.22.32.4.51.62.17-.24.44-.45.46-.68ZM423.62,186.96c.06-.79-.28-1.61-.43-2.42-1.46,1.24-.84,3-1.1,4.59.38,1.11-.62,2.57.78,3.49.26-1.89.6-3.77.76-5.66ZM422.51,180.5c.84.63.81-.46.83-.89.03-.81.6-1.74-.28-2.44-.82.04-.83.68-.81,1.23.02.72-.12,1.81.27,2.1ZM422.46,170.35c-.03.56.2,1.13.32,1.7.21-.5.42-1,.67-1.6-.16-.51-.33-1.04-.49-1.57-.18.49-.48.97-.5,1.47ZM424.23,22.21c-.08-.28-.17-.55-.26-.83-.19.3-.47.58-.55.91-.05.18.24.44.38.67.14-.24.29-.49.43-.75ZM424.09,29.99c-.08-.64-.17-1.49-.27-2.33-.15.78-.37,1.56-.41,2.34-.04.84.09,1.69.15,2.53.94-.62.18-1.57.54-2.54ZM426.75,177.52c-.05-1.74.94-3.57-.35-5.21-1.81,2.06-.32,4.56-.83,6.81-.24,1.05.46,3.18.66,3.02,1.5-1.22.49-3.03.52-4.62ZM427.62,23.69c.02-1.44-.26-2.89-.42-4.33-1,1.03-.15,2.29-.51,3.63.04.94.09,2.09.15,3.24,1.42-.46.77-1.7.78-2.55ZM425.98,156.12c.02.29.37.55.57.83.12-.38.24-.76.54-1.69-.13-.05-.47-.17-.8-.29-.12.39-.34.78-.31,1.15ZM429.19,182.07c-.19.33-.58.68-.54.99.2,1.93.49,3.85.76,5.77,1.16-.66.56-1.82.77-2.77.04-1.43.44-2.95-.98-4ZM428.75,177.62c.17.15.33.32.52.45.02.02.27-.24.25-.26-.14-.19-.3-.36-.46-.54-.09.1-.18.2-.32.35ZM429.27,174.26c.55-1.63.77-2.03.8-2.45.02-.38-.19-.77-.29-1.16-.29.25-.71.44-.83.76-.12.32.06.76.33,2.85ZM428.95,165.72c.08.23.22.44.34.65.19-.15.38-.31.59-.47-.24-.17-.44-.33-.67-.45-.04-.02-.28.21-.26.27ZM430.93,27.58c-.07-.44-.14-.88-.22-1.32-.23.51-.56,1-.64,1.53-.05.35.26,1.08.38,1.08.94-.07.51-.77.48-1.29ZM429.32,158.73c.02.23.3.44.46.65.17-.17.35-.33.52-.5-.09-.28-.11-.69-.29-.78-.58-.29-.72.19-.69.63ZM432.09,170.29c0,.25.22.49.34.74.21-.26.59-.52.6-.79,0-.35-.28-.7-.62-1.46-.18.79-.32,1.15-.31,1.51ZM434.12,27.97c0-.17-.6-.32-.92-.48-.1,2.07-.2,4.15-.29,6.22-.02.53,0,1.06,0,1.59,2.2-2.11,1.26-4.81,1.22-7.33ZM432.21,155.67c-.02.11.36.28.67.51.13-.44.31-.82.32-1.2,0-.13-.39-.27-.61-.41-.14.36-.33.72-.38,1.1ZM432.37,138.37c.18.16.33.32.5.45.01,0,.24-.19.23-.26-.04-.22-.15-.43-.24-.65-.16.15-.32.3-.49.46ZM432.89,184.2c-.07-.26-.14-.52-.21-.77-.19.14-.4.26-.55.44-.06.07.03.39.07.4.22.01.45-.03.69-.06ZM433.79,160.35c-.24-.4-.44-.72-.64-1.05-.29.21-.85.48-.82.62.1.49.41.92.63,1.38.25-.29.5-.57.82-.95ZM432.9,190.61c-.17-.15-.33-.29-.5-.44-.05.13-.18.31-.15.37.12.17.31.3.47.44.06-.12.11-.24.17-.37ZM432.99,178.31c-.24.11-.56.15-.65.32-.07.13.14.43.23.65.23-.1.52-.14.66-.32.07-.09-.14-.42-.23-.65ZM433.26,22.78c.13.19.26.37.39.55.12-.07.24-.14.36-.2-.14-.19-.27-.39-.42-.56-.02-.02-.21.13-.32.21ZM435.91,175.6c-.2,1.88-.41,3.76-.59,5.64-.06.68-.24,2.09.44,1.78,1.66-.77.25-2.62.78-3.92-.7-1.09,1.08-2.61-.63-3.5ZM437.36,26.84c0-.34-.26-.68-.68-1.67-.18,1.6-.32,2.48-.35,3.36-.02.49.44.99.75.47.33-.58.28-1.43.29-2.16ZM435.99,147.69c.27-.21.54-.43.77-.61-.15-.44-.24-.7-.33-.97-.24.26-.57.49-.69.8-.08.2.16.52.25.78ZM435.81,134.74c-.03.38.21.79.44,1.5.33-.63.66-.98.65-1.32,0-.38-.33-.75-.51-1.12-.21.31-.56.61-.58.94ZM436.72,158.88c0-.19-.32-.4-.5-.6-.18.19-.49.38-.5.58,0,.2.28.41.46.64.2-.22.53-.41.54-.62ZM436.51,189.15c-.21-.35-.35-.57-.48-.79-.16.31-.4.6-.46.93-.03.18.23.42.36.64.2-.27.4-.54.58-.78ZM436.11,121.27c.47.58.63-.15.63-.48,0-.57-.15-1.15-.25-1.83-.17.28-.36.45-.38.64-.05.57-.27,1.34,0,1.67ZM436.16,169.35c-.12.08-.32.16-.31.2.04.22.13.43.2.65.1-.07.3-.15.29-.2-.02-.22-.11-.43-.18-.65ZM439.31,139.33c.19,0,.37-.02.56-.03.08-.71.21-1.42.23-2.14.01-.53.3-1.51-.6-1.29-.86.21-.72,1.13-.44,1.91.17.49.18,1.03.26,1.55ZM440.57,32.93c.2.03.53-.83.78-1.27-.37-.95-.57-2.3-1.01-2.38-.84-.16-.93.91-.78,1.62.16.76-.1,1.87,1,2.03h0ZM439.01,127.36c.11.18.29.32.44.48.14-.21.29-.42.44-.65-.23-.06-.44-.15-.65-.15-.08,0-.25.27-.23.31ZM439.77,20.99c-.08.15.2.49.32.75.29-.19.59-.38.86-.56-.18-.45-.28-.71-.39-.97-.27.26-.62.47-.79.79ZM439.45,132.38c-.1.24-.31.51-.26.71.04.17.4.24.61.36.09-.24.18-.49.26-.74-.2-.11-.41-.22-.61-.33ZM439.1,154.44c0,.52.25,1.03.39,1.55.23-.47.46-.93.64-1.32-.4-.73.3-1.61-.67-1.93-.13.57-.36,1.14-.36,1.7ZM440.01,188.34c-.19-.47-.35-.87-.51-1.26-.2.49-.52.97-.57,1.48-.03.3.38.63.59.95.16-.39.33-.78.49-1.16ZM439.72,147.29c-.19.18-.46.33-.49.52-.03.18.2.4.31.6.17-.16.45-.3.48-.48.03-.18-.18-.41-.3-.64ZM442.1,178.33c-.01.68-.02,1.37-.02,2.07.54-.43,1.25-.79.98-1.66-.07-.22-.63-.28-.97-.41ZM442.08,182.95c.12-.03.36-.07.36-.08-.11-.72-.23-1.43-.36-2.14,0,.74,0,1.48,0,2.22ZM443.09,187.01c.05-.41-.03-.83-.06-1.25-.34.13-.94.22-.96.39-.05.38.19.8.32,1.22.31-.15.68-.23.7-.37ZM444.03,31.94c-.06-.13-.11-.26-.17-.38-.13.18-.26.36-.39.54.12.06.25.2.34.17.1-.03.15-.21.22-.33ZM447.26,23.1c-.22-.17-.42-.32-.62-.48-.14.21-.41.44-.38.62.03.19.35.32.54.48.15-.2.29-.41.45-.62ZM446.17,192.5c.07-.38-.06-.8-.1-1.21-.26.14-.71.25-.74.42-.07.53.01,1.07.06,2.13.44-.74.72-1.02.78-1.34ZM445.79,115.16c-.02.21.25.51.46.63.14.08.41-.09.64-.16-.09-.26-.12-.6-.29-.77-.38-.36-.76-.29-.81.3ZM445.42,177.68c.21.04.42.1.64.1.03,0,.13-.28.09-.37-.11-.22-.28-.4-.48-.68-.11.43-.17.69-.24.95ZM446.3,187.18c-.2-.63-.37-1.15-.53-1.67-.13.35-.38.71-.37,1.06.02.51.22,1.01.35,1.52.18-.31.37-.61.55-.91ZM446.11,140.26c-.06-.11-.11-.22-.17-.33-.08.09-.24.22-.22.27.06.16.19.3.29.44.03-.13.06-.26.09-.38ZM446.03,91.51c-.03.07.15.35.18.34.24-.07.46-.19.7-.29-.15-.23-.29-.44-.43-.65-.15.2-.33.38-.45.6ZM443.29,85.37c-.03.1.08.23.13.35.09-.19.19-.38.27-.56-.05-.14-.09-.27-.13-.39-.09.2-.22.39-.27.6ZM449.15,183.95c-.24,1.4-.61,2.8-.66,4.2-.03.92-.27,2.89.57,2.61,1.19-.41.61-2.33.68-3.84-.47-.8.89-2.16-.58-2.97ZM449.2,98.62c0,.26.25.51.38.77.19-.32.51-.64.53-.98.02-.34-.26-.7-.61-1.52-.18.93-.32,1.33-.3,1.73ZM446.5,80.73c0,.26.22.51.39.86.19-.23.43-.41.47-.62.05-.27.02-.73-.14-.82-.58-.36-.73.14-.73.58ZM449.68,18.92c0,.25.17.5.27.75.16-.13.44-.26.45-.4,0-.25-.15-.5-.25-.76-.17.13-.47.27-.47.4ZM450.54,30.93c-.14-.26-.32-.6-.49-.93-.15.22-.44.46-.41.65.05.4.27.77.42,1.15.13-.24.27-.48.49-.87ZM448.78,179.03c.08.31.36.56.55.84.1-.25.21-.51.53-1.3-.13-.05-.47-.22-.82-.27-.06,0-.31.52-.26.73ZM449.65,88.3c-.1.7-.28,1.4-.28,2.1,0,.69.16,1.38.25,2.07,1.22-.48.29-1.57.63-2.31.02-.69.42-1.51-.59-1.86ZM446.88,74.59l.17.26.08-.33-.25.07ZM450.03,124c-.12-.04-.23-.08-.35-.12-.01.19-.03.39-.04.58.12-.03.27-.03.35-.11.06-.07.03-.23.04-.35ZM453.99,22.88c-.04-.34-.28-.66-.43-.99-.26.21-.52.42-1.15.92.52.32.83.55,1.19.68.06.02.42-.42.39-.61ZM449.86,83.19c.04.97.43,1.92.67,2.88.15-.88.31-1.76.51-2.92-.11-.46-.29-1.16-.46-1.85-.26.63-.74,1.27-.72,1.89ZM453.63,182.49c-.27-.52-.47-.9-.67-1.29-.27.24-.73.45-.75.72-.04.38.23.79.38,1.2.33-.2.66-.39,1.05-.62ZM453.61,92.67c-.12-.24-.23-.48-.35-.72-.16.3-.41.59-.46.91-.02.16.31.37.48.56.11-.24.22-.49.33-.75ZM450.21,67.7c0,.55.17,1.1.26,1.65.88-.75.13-1.68.27-2.51-.44-.68.79-1.68-.39-2.22-.05,1.03-.14,2.05-.14,3.08ZM452.9,192.48c-.12-.17-.24-.34-.36-.52-.08.09-.25.23-.23.28.08.2.22.36.34.54.08-.1.15-.19.24-.3ZM453.5,100.56c-.11-.2-.28-.49-.44-.78-.06.27-.2.54-.16.8.05.32.24.61.37.92.07-.27.13-.53.24-.94ZM453.22,113.4c-.04-.11-.08-.22-.12-.33-.03.18-.07.35-.1.53.07-.07.14-.14.22-.21ZM456.25,22c.19-.18.37-.32.5-.5.04-.06-.08-.34-.14-.34-.2-.01-.4.05-.6.09.08.24.16.48.24.75ZM453.08,75.86c.12.66.54,1.26.84,1.88.25-.5.5-1,.8-1.6-.34-.55-.56-1.34-.96-1.45-.94-.26-.76.76-.68,1.17ZM453.19,62.36c-.09.16.1.48.2.84.21-.26.45-.43.53-.67.08-.24,0-.54-.02-.81-.25.21-.57.37-.71.64ZM455.99,90.12c.07.04.24-.07.36-.11-.05-.13-.06-.32-.15-.38-.07-.04-.24.07-.36.12.05.13.06.32.15.37ZM457.31,94.3c-.31-.39-.62-.78-.92-1.17-.2.31-.6.67-.56.93.09.52.43.98.67,1.47.22-.33.45-.67.82-1.23ZM457.08,30.73c-.04-.13-.44-.13-.68-.2-.05,1.11-.1,2.21-.15,3.32.5-.99,1.18-1.92.83-3.12ZM456.32,182.4c-.14-.21-.25-.42-.4-.57-.04-.04-.33.07-.33.12-.01.22.04.45.07.67.22-.07.44-.15.67-.22ZM456.72,103.22c-.09-.1-.17-.2-.26-.3-.11.16-.23.32-.34.49.12.04.27.13.37.1.1-.03.16-.19.23-.29ZM456.28,55.22c.09.39.36.74.56,1.1.18-.22.37-.44.65-.77-.23-.31-.46-.64-.69-.97-.18.22-.55.48-.51.64ZM460.38,185.61c-.63-.31-1.13-.55-1.63-.79-.12.4-.39.82-.34,1.2.06.51.37.98.56,1.47.31-.41.61-.82,1.4-1.88ZM456.65,38.91c-.06.26.19.61.52,1.5.31-1.15.56-1.68.57-2.21,0-.35-.39-1.03-.52-1.01-1.08.19-.43,1.12-.57,1.72ZM456.96,47.2c-.14.19-.31.36-.41.57-.03.07.14.34.16.34.21-.08.41-.19.61-.3-.12-.2-.25-.41-.37-.61ZM456.99,69.85c.07-.24.15-.49.21-.73-.18-.12-.36-.23-.54-.35-.07.25-.22.51-.18.74.02.14.33.23.51.34ZM457.3,81.9c.05-.15-.19-.39-.3-.61-.18.16-.46.3-.51.49-.04.17.18.41.28.62.19-.16.47-.29.54-.5ZM458.74,181.25c0,.1.09.21.15.31l.23-.26c-.06-.1-.11-.21-.17-.31-.08.09-.21.17-.21.25ZM459.76,45.97c.33.77-.24,1.66.75,1.92.12-.55.34-1.1.32-1.65-.01-.54-.26-1.08-.4-1.62-.24.48-.48.97-.67,1.35ZM460.12,33.54c-.1,1.31.08,2.63.15,3.95,1-.88.39-2.09.73-3.52-.08-.62-.2-1.61-.33-2.6-1.29.41-.49,1.47-.54,2.18ZM459.96,60.15c.35-.46.59-.64.59-.8-.02-.7-.11-1.39-.17-2.09-.13.32-.34.62-.38.95-.07.54-.02,1.09-.03,1.95ZM462.96,193.31c-.22-.86-.37-1.41-.51-1.97-.16.49-.43.97-.46,1.47-.03.54.16,1.1.26,1.65.27-.44.55-.88.72-1.15ZM460.62,71.18c-.13-1.14-.27-2.3-.4-3.46-.11.57-.34,1.15-.32,1.71.06,1.46.22,2.91.34,4.37.12-.86.25-1.72.38-2.63ZM462.9,60.21c-.09.44.35.99.54,1.49.23-.5.66-.99.67-1.5.08-2.57.06-5.14.09-7.71.01-2.57.05-5.14.03-7.7,0-.52-.24-1.03-.37-1.55-.16.54-.41,1.07-.48,1.62-.62,5.1.61,10.25-.48,15.34ZM466.27,18.1c0,.15.35.31.66.56.08-.49.23-.89.18-1.27-.02-.15.19-1.15-.54-.49-.26.23-.29.79-.3,1.21ZM466.14,191.44c-.12-.23-.23-.46-.35-.69-.16.2-.34.4-.46.63-.04.07.15.36.18.35.22-.07.42-.18.63-.29ZM464.09,67.16c-.01-.13-.36-.23-.55-.34-.1.38-.25.76-.26,1.14,0,.11.36.24.68.43.06-.46.16-.85.13-1.23ZM467.27,29.96c-.17-.59-.29-1.01-.42-1.44-.16.36-.42.71-.45,1.09-.03.39.16.79.25,1.19.22-.3.44-.59.62-.83ZM463.96,34.52c-.19.8-.37,1.21-.34,1.6.02.3.29.58.46.87.07-.26.2-.53.19-.79-.02-.43-.15-.84-.3-1.68ZM465.57,184.61c.02.19.24.35.4.57.06-.35.18-.64.15-.91-.02-.18-.25-.34-.39-.5-.06.28-.18.57-.16.84ZM465.64,178.62c.04.23.15.45.23.67.09-.08.27-.18.26-.25-.03-.23-.14-.45-.21-.68-.11.1-.29.2-.28.26ZM469.19,27.55c.1.84.58,1.62.89,2.43,1.01-.61.43-1.63.64-2.53-.36-.7.07-2.22-.95-2.17-1.06.06-.67,1.48-.58,2.27ZM467.06,34.39c-.82-.24-.88,1.44-.72,2.22.36,1.67-.69,3.91.82,4.83.53.32.41-2.3.66-3.57-.25-1.2.87-2.99-.77-3.48ZM470.45,188.06c-1.02-.55-1.33-.79-1.67-.85-.13-.02-.51.48-.46.61.13.35.4.82.68.88.31.06.7-.28,1.45-.63ZM466.47,48.17c.17-.13.34-.27.52-.42-.09-.24-.18-.49-.27-.74-.1.24-.23.48-.3.73-.03.13.03.28.05.42ZM467.31,55.03c-.23.02-.4.03-.57.04.08.09.16.24.24.24.09,0,.18-.14.33-.28ZM469.36,192.58c-.2-.02-.41.04-.61.06.08.25.15.51.23.77.19-.16.38-.28.51-.46.05-.07-.06-.37-.12-.38ZM468.87,182.73c.03.2.33.35.53.54.12-.26.33-.5.3-.71-.02-.18-.32-.33-.49-.49-.12.22-.36.46-.33.65ZM472.43,25.12c.14.57.35,1.38.56,2.19.2-.65.6-1.33.54-1.96-.08-.91.42-2.03-.63-2.71-.14.72-.28,1.45-.47,2.47ZM473.03,35.89c.16-.38.33-.76.49-1.14-.16-.47-.29-.87-.42-1.28-.19.48-.48.95-.53,1.45-.03.31.3.65.46.97ZM470.24,39.59c-.16,1.75-.37,3.5-.45,5.25-.03.72.2,1.44.32,2.16,1.09-1.1.85-2.41.54-3.87-.71-1,.8-2.46-.4-3.55ZM472.53,192.13c-.17-.16-.33-.31-.49-.46-.11.23-.31.46-.3.67.01.17.3.31.46.47.12-.23.23-.45.33-.68ZM471.93,183.46c0,.22.21.44.47.94,0-.86.05-1.42,0-1.98-.02-.25.33-1.03-.36-.63-.26.14-.12,1.09-.1,1.66ZM472.97,18.03c.02.06.18.06.28.09.02-.11.08-.24.05-.32-.02-.06-.18-.06-.28-.09-.02.11-.08.24-.05.32ZM476.89,182.74c-.26-.52-.46-1.53-.89-1.65-1.07-.3-1,.8-.96,1.44.06.85.36,2.42.54,2.41,1.17-.03.64-1.35,1.3-2.2ZM476.6,17.5c.13.04.28.14.38.1.12-.04.19-.21.28-.32-.2-.07-.4-.13-.6-.2-.02.14-.04.28-.06.43ZM479.53,181.76c.02-.55-.22-1.11-.35-1.66-1.06.85-.3,1.92-.39,3.38.08.6.23,1.67.37,2.74.13-1.48.31-2.96.37-4.45ZM482.85,187.41c-.09-.12-.16-.22-.23-.33-.11.22-.24.43-.31.65-.02.07.14.2.21.3.11-.21.22-.43.33-.63ZM482.44,179.09s.23.05.35.07c.04-.25.08-.5.09-.74,0-.03-.23-.06-.37-.09-.03.26-.07.51-.07.77Z"/>
      <path class="st1" d="M579.35,14.17c.06.31-.69.86-1.15,1.17-1.33.89-2.63,1.87-4.07,2.54-4.19,1.94-3.82,6.2-4.86,9.75-.63-.22-1.25-.43-1.87-.65-.04.24-.08.49-.11.73.67-.02,1.34-.04,2-.06-3.55,15.74-7.1,31.48-10.64,47.23-2.82,12.54-5.51,25.12-8.5,37.62-.57,2.39-.26,4.02,1.32,5.56,4.02,2.52,3.87,4.96-.04,7.59-1.32.89-2.33,2.27-3.48,3.42-.14-.71-.27-1.41-.41-2.12-.17.11-.51.27-.49.31.21.67.46,1.32.7,1.97-.16,8.97-.35,17.95-.47,26.92-.11,8.15.11,16.3-.28,24.43-.24,4.99-.58,9.65,3.87,13.03.83.63,2.16,1.57,1.26,2.95-.36.55-1.54.74-2.34.73-9.65-.03-19.29-.12-28.94-.24-.62,0-1.56.58-1.8-.44-.07-.3.68-.89,1.14-1.24,4.68-3.6,5.72-8.32,5.58-14.26-.34-14.36-.14-28.76.4-43.12.23-6.14-1.08-11.01-5.98-14.48-1.99-1.42-1.8-2.66-.05-3.8,4.4-2.86,3.92-6.23,2.77-11.05-4.56-19.14-8.39-38.46-12.44-57.73-1.56-7.44-3.1-14.89-4.44-22.37-.98-5.46-3.1-9.97-8.07-12.64-.59-.32-1.45-.98-1.44-1.46.02-1.04,1.07-.72,1.73-.73,9.73-.13,19.46-.27,29.19-.27.77,0,3.44.2,1.95,1.63-5.66,5.4-2.52,11.32-1.48,16.95,2.61,14.19,5.6,28.31,8.43,42.45.17.82-.1,2.19.93,2.18.97-.01.9-1.37,1.06-2.24,2.63-13.58,5.24-27.16,7.9-40.74.52-2.64,1.09-5.29,1.9-7.84,1.11-3.5.92-6.52-1.92-9.08-.76-.69-1.44-1.84-.8-2.81.28-.43,1.56-.2,2.38-.2,9.93,0,19.86-.02,29.79.02.6,0,1.53-.79,1.74.4ZM514.98,40.57c-.12-.06-.24-.13-.36-.19-.05.13-.16.28-.12.38.03.09.22.13.34.19.05-.13.1-.25.15-.38ZM515.41,52.02c-.01-.13-.02-.27-.03-.4-.11.01-.31,0-.33.05-.04.12-.02.28.04.39.02.04.21-.02.32-.03ZM518.21,51.17c-.03-.27-.1-.52-.17-.85-.11.31-.27.55-.27.8,0,.16.22.31.34.47.04-.14.11-.29.1-.42ZM521.42,73.55c.04-.16-.27-.41-.44-.65-.15.24-.39.46-.4.68,0,.27.19.54.29.81.19-.28.47-.53.55-.84ZM524.65,85.32c-1.36.04-.67,1.34-.81,2.14.3.9-.39,2.12.84,2.71.22-1.01.51-2.01.64-3.04.09-.7.24-1.84-.68-1.81ZM527.79,96.56c-.12-.35-.24-.75-.37-1.14-.17.18-.5.37-.48.53.05.42.24.82.38,1.22.14-.18.28-.35.48-.61ZM527.76,101.47c-.07-.13-.13-.25-.2-.38-.14.19-.27.37-.41.56.12.06.27.19.37.16.1-.03.16-.22.25-.34ZM531.04,107.49c-.04-.35-.38-.93-.61-.94-.88-.05-.63.68-.53,1.16.07.33.33.61.66,1.18.25-.68.52-1.06.48-1.39ZM530.2,97.54c-.06,0-.39.77-.32,1.11.17.78.51,1.52.79,2.27.07-.56.14-1.12.21-1.7-.14-.61.39-1.52-.68-1.68ZM528.41,87.13c.02-.67-.45-.61-.81-.36-.18.12-.28.48-.29.74,0,.09.39.19.61.28.17-.22.49-.43.49-.66ZM527.41,84.61c.17-.06.35-.13.52-.2-.07-.1-.12-.26-.21-.29-.09-.03-.22.07-.31.11,0,.13,0,.25,0,.38ZM527.66,80c-.02.11.06.24.09.37.21-.07.41-.15.62-.23-.16-.15-.32-.3-.48-.45-.08.1-.21.2-.23.31ZM534.31,103.76c.01-.15.02-.3.06-.83-.89-2.3.84-5.18-.6-7.81-.29,2.76-.83,5.53-.79,8.28.04,2.66-.42,5.42.63,8.01,1.76-2.41.48-5.1.7-7.65ZM533.43,172.17c-.09-.04-.54.8-.83,1.25.08.68.13,1.75.2,1.75,1.12,0,.44-1.03.74-1.56.25-.43.67-1.11-.11-1.43ZM530.58,73.17c.05.36.28.69.44,1.03.16-.2.46-.39.46-.59,0-.35-.18-.7-.32-1.15-.28.33-.6.55-.58.72ZM533.57,118.14c-.46-.22-.48,1.18-.44,1.91.09,1.46.18,2.92.28,4.38,1.33-.79.28-2.06.62-3.06-.24-1.1.93-2.57-.46-3.22ZM531.18,86.55c-.24.49-.57.96-.67,1.47-.07.34.19.76.61,2.22.24-1.59.38-2.11.38-2.62,0-.36-.2-.71-.32-1.07ZM533.5,143.57c.24-.71.48-1.08.45-1.43-.03-.37-.31-.72-.49-1.08-.17.34-.47.68-.48,1.02-.01.37.24.75.51,1.49h0ZM533.79,184.56c-.16-.29-.34-.63-.52-.97-.09.24-.27.48-.25.7.03.36.18.71.29,1.07.14-.23.28-.46.48-.8ZM533.63,166.95c-.17.15-.45.27-.49.45-.05.25.07.55.11.82.19-.14.39-.28.59-.43-.07-.28-.14-.56-.22-.84ZM533.55,179.08c0-.23.01-.46-.01-.69,0-.03-.22-.02-.34-.04,0,.24-.01.48-.02.72.12,0,.24,0,.37,0ZM536.13,120.25c.22.26.53.42.81.62.12-.22.23-.44.43-.81-.31-.16-.6-.35-.91-.42-.07-.02-.38.54-.33.61ZM536.38,92.05c.29.13.64.36,1.02.44.1.02.45-.48.4-.64-.12-.35-.43-.64-.66-.95-.15.23-.31.46-.77,1.14ZM536.21,127.95c-.07.37.41,1.19.7,1.22.76.07.66-.68.69-1.46-.1-.33-.27-.87-.44-1.4-.34.54-.84,1.05-.95,1.64ZM537.94,148.09c-.9-.57.37-2.4-1.23-2.3-1,.06-.31,1.5-.35,2.28-.04.88-.91,2.15.63,2.52.11.03.57-1.48.94-2.49ZM537.32,135.24c.06-.1-.22-.42-.44-.79-.28.36-.58.63-.69.96-.06.17.21.46.33.69.28-.28.6-.53.8-.86ZM537.12,109.95c-1.22,0-.65,1.73-.61,2.64.06,1.07-.59,3,.58,3.03.98.02.5-1.99.63-3.12-.28-.88.8-2.55-.6-2.55ZM537.5,156.3c-.36-.75.2-1.82-.94-1.79-.14,0-.39,1.05-.36,1.59.04.64-.18,1.6.83,1.64.15,0,.34-1.01.47-1.44ZM537.38,176.72c-.19-.59.11-1.4-.75-1.33-.17.02-.42,1-.37,1.51.04.46.44.89.68,1.33.15-.52.3-1.04.44-1.51ZM533.97,85.83c.05.26.07.53.17.76.02.05.35-.06.56-.1-.03-.26-.06-.52-.09-.78-.21.04-.43.08-.64.12ZM537.35,166.15c-.23-.37-.39-.61-.54-.85-.17.37-.42.72-.47,1.11-.03.21.27.46.42.7.2-.34.41-.67.58-.96ZM536.73,107.13c.63-.86.97-1.13,1.02-1.45.07-.41-.07-.86-.12-1.3-.3.15-.8.24-.85.45-.13.5-.05,1.06-.05,2.29ZM536.63,170.17c-.1.37-.26.75-.26,1.13,0,.15.36.29.71.55.05-.5.16-.89.11-1.27-.02-.16-.36-.27-.55-.41ZM537.34,96.25c.09-.27.18-.55.28-.83-.12-.23-.25-.47-.37-.7-.15.2-.46.44-.43.59.09.34.34.63.52.94ZM534.14,81.11c0,.24.23.47.35.7.21-.29.42-.58.95-1.32-.4-.19-.74-.34-1.07-.5-.09.37-.24.74-.23,1.12ZM536.6,141.68c-.02.25.16.52.26.78.16-.17.32-.35.49-.53-.1-.26-.2-.53-.29-.79-.16.18-.44.35-.46.54ZM539.33,104.25c.04.68.23,1.89.49,1.92,1.21.18,1.28-.89,1.27-1.78-.01-.79-.19-1.58-.31-2.44-1.35.5-1.51,1.39-1.45,2.3ZM541.2,122.97c-.36-.64-.55-.96-.73-1.29-.31.22-.79.37-.9.67-.2.54-.1,1.2.62,1.23.32.01.65-.38,1.02-.61ZM540.63,175.77c-.01-.54-.12-1.35-.47-1.55-.77-.46-.88.3-.92.89-.05.71-.29,1.5.58,1.92.86,0,.82-.74.81-1.27ZM539.44,153.57c-.09.21.04.52.08.82.25-.15.58-.24.66-.43.09-.21-.06-.52-.11-.79-.22.13-.54.21-.63.4ZM540.96,137.41c.01-.48-.25-.96-.64-2.28-.45,1.34-.78,1.85-.75,2.33.03.53.34,1.45.61,1.48,1.19.14.76-.92.78-1.53ZM539.81,96.84c.18.17.36.34.53.5.09-.11.26-.29.25-.31-.16-.19-.34-.35-.52-.51-.09.1-.17.21-.27.32ZM539.98,146.28c.54.3.78-.05.68-.56-.04-.22-.33-.46-.55-.54-.12-.04-.35.25-.53.4.13.24.21.59.4.7ZM540.53,132.57c.24-.82.45-1.22.45-1.62,0-.45-.2-.93-.77-.59-.19.11-.32.54-.28.8.05.36.28.69.6,1.41ZM537.58,84.62c.1.2.23.38.36.57.12-.09.31-.22.3-.23-.11-.2-.25-.37-.38-.56-.1.08-.29.2-.28.22ZM540.65,112.25c-.09.05-.26.1-.26.16-.02.24.01.49.04.73.09-.05.27-.1.27-.15.01-.24-.02-.49-.04-.74ZM542.59,106.73c.71.87-.42,2.25.88,3.03.28-1.6.6-3.2.81-4.81.11-.86.2-1.81-.85-2.23-.27,1.3-.54,2.59-.84,4.01ZM542.7,139.09c.25.89-.59,2.51.77,2.56,1.03.04.59-1.41.61-2.64-.03-.46.32-1.82-.61-1.92-1.19-.13-.97,1.28-.77,2.01ZM543.8,147.07c-1.73-.32-1.1,1.98-1.18,3.07-.12,1.57.28,3.17.46,4.76,1.64-1.12.57-2.89,1.13-4.44-.74-1.06,1.33-3.07-.4-3.4ZM543.14,132.9c-.15.22-.47.58-.43.62.21.26.51.44.78.65.08-.26.17-.52.26-.8-.21-.16-.41-.32-.61-.48ZM543.05,96.7c.11.47-.16,1.4.81,1.11.24-.07.45-.77.41-1.15-.05-.53-.34-1.02-.53-1.54-1.01.39-.82,1.04-.69,1.58ZM540.32,88.63c.02.2.31.37.49.55.13-.24.38-.49.35-.71-.02-.22-.32-.4-.51-.62-.13.28-.35.54-.33.78ZM544.03,127.33c-.13-.35-.38-.66-.59-.98-.19.17-.55.37-.52.5.06.36.28.7.47,1.11.31-.29.68-.54.64-.63ZM543,115.35c.08.35.26.67.41,1,.17-.19.35-.38.52-.58-.12-.27-.24-.52-.35-.78-.2.12-.6.29-.58.35h0ZM540.41,80.06c.11.25.44.39.68.58.05-.26.19-.53.13-.76-.05-.23-.29-.42-.49-.69-.16.39-.4.71-.33.87ZM543.15,162.09c.07-.1.14-.21.21-.32-.13-.16-.27-.32-.4-.49-.07.1-.23.25-.21.3.1.19.26.34.39.51ZM543.91,173.21c-.17-.11-.34-.24-.52-.31-.04-.01-.15.18-.23.28.17.11.35.22.52.33.08-.1.15-.19.23-.29ZM546.89,115.09c.25-1.56.5-3.12.66-4.15-.22-2.04-.38-3.5-.54-4.96-1.31,1.35-.8,3.06-.66,4.56.14,1.51-.6,3.18.54,4.56ZM546.28,91.55c.29.83.54,1.56.79,2.28.11-.87.22-1.74.32-2.61.06-.57.25-1.34-.65-1.14-.24.05-.31.96-.46,1.47ZM546.19,128.9c-.03.46.37.95.58,1.42.24-.64.48-1.27.69-1.83-.28-.97-.51-1.75-.74-2.53-.19.98-.47,1.95-.52,2.94ZM547.11,149.4c.04-.54-.11-1.1-.24-2.16-.45.73-.74,1.01-.78,1.32-.04.41-.02.97.22,1.23.43.49.77.03.8-.4ZM547.22,167.13c-.21-.39-.35-.64-.48-.88-.25.26-.59.48-.73.79-.07.16.2.49.32.74.3-.22.59-.43.88-.65ZM547.13,139.66c-.11-.77-.26-1.92-.42-3.06-.18,1.75-.42,3.5-.52,5.25-.03.46.37.94.58,1.42,1.38-.94.34-2.13.36-3.6ZM543.85,74.57c.05.56.2,1.1.36,1.83.25-.37.5-.58.48-.74-.07-.54-.24-1.07-.37-1.6-.16.17-.48.35-.47.5ZM546.93,172.48c-.18-.15-.36-.3-.54-.45-.09.25-.28.52-.24.75.02.18.32.31.5.46.1-.25.2-.5.28-.76ZM546.7,157.42c-.08-.03-.23.09-.35.15.12.18.23.37.35.55.07-.12.14-.24.2-.36-.07-.12-.11-.3-.21-.34ZM544.12,84.3c-.04.12-.16.28-.12.37.08.19.24.34.37.5.05-.13.1-.26.15-.39-.13-.16-.27-.32-.4-.48ZM546.93,119.56c-.11.04-.33.09-.33.13.02.26.08.52.12.78.11-.05.22-.1.36-.15-.05-.25-.1-.5-.15-.76ZM544.2,53.4c.07.07.14.13.21.2.04-.1.09-.2.13-.31-.11.03-.22.07-.34.1ZM548.36,79.12c-.28-.53-.54-1.01-.8-1.49-.31.42-.88.84-.87,1.25.01.43.57.84.89,1.27.23-.3.46-.61.78-1.03ZM547,69.31c.22,1.71.36,2.85.5,4,1.2-1.27.72-2.91.79-4.38.05-1.1-.37-2.23-.58-3.34-.27,1.41-.54,2.82-.72,3.72ZM550.88,102.22c-.14-.31-.35-.77-.56-1.23-.23.48-.57.94-.65,1.44-.05.35.2,1.03.43,1.09.95.24.6-.61.78-1.3ZM549.64,114.59c.02.27.17.7.36.76.6.2.71-.25.56-.72-.08-.24-.35-.42-.55-.62-.14.19-.39.4-.38.58ZM550.6,122.72c-.08-.48-.13-.76-.18-1.04-.22.26-.52.48-.64.78-.09.21.06.53.11.8.26-.2.52-.39.71-.54ZM550.28,91.86c-.12.52-.34,1.04-.32,1.55.05,1.14.21,2.28.33,3.42,1-.58.14-1.54.57-2.51-1-.52.96-1.81-.58-2.46ZM550,110.17c.2.03.41-.01.63-.03-.05-.26-.1-.51-.16-.76-.18.13-.39.24-.54.41-.05.06.02.37.07.38ZM552.8,119.81c.01.17.41.47.54.42.94-.35.7-1.28.9-2.01-.69.32-1.51.52-1.43,1.58ZM550.4,54.27c-.02.26.34.55.53.82.22-.32.43-.65.73-1.09-.28-.31-.51-.57-.74-.82-.19.36-.5.71-.53,1.08ZM550.77,58.78c.23-.24.47-.48.7-.71-.18-.16-.37-.33-.58-.51-.18.2-.46.37-.47.57-.01.21.23.44.36.66ZM551.85,84.08c-.16-.42-.25-1.24-.59-1.38-.79-.31-.88.41-.78,1.02.1.58.18,1.52.48,1.63.85.29.53-.69.89-1.27ZM550.9,76.27c-.09.67-.21,1.05-.16,1.42.02.18.35.32.53.48.07-.37.2-.74.19-1.1,0-.2-.26-.38-.56-.79ZM558.03,24.15c-.31-.49-.59-.93-.87-1.37-.15.37-.37.72-.42,1.1-.06.5-.32,1.23.51,1.29.21.01.46-.58.78-1.02ZM554.35,85.45c-.12-.24-.24-.48-.37-.72-.16.18-.48.39-.46.52.08.33.31.62.47.92.12-.24.23-.47.35-.72ZM554.57,73.01c.03-.24-.1-.64-.29-.76-.64-.38-.67.22-.67.6,0,.22.25.45.4.69.21-.19.53-.34.55-.54ZM556.89,17.83s.22.08.33.12c.05-.24.12-.49.14-.73,0-.04-.21-.09-.33-.13-.05.25-.12.5-.14.75ZM554.46,78.69c-.19-.07-.38-.14-.57-.22-.03.11-.12.31-.1.32.17.1.36.17.55.25.04-.11.07-.22.11-.35ZM554.76,49.25c-.21-.08-.41-.16-.62-.23-.02.22-.07.45-.05.67,0,.05.28.15.31.12.14-.16.23-.35.35-.56ZM560.36,16.99c-.16,1.29-.32,2.59-.46,3.65.36,1.59-.85,3.17.73,4.29.17-1,.66-2.09.45-2.99-.38-1.64.81-3.52-.72-4.94ZM561.04,29.99c-.17-.26-.35-.55-.54-.85-.13.22-.38.47-.35.66.05.34.28.66.43.98.13-.23.26-.45.46-.8ZM557.47,52.98c.09-.08.27-.17.26-.23-.02-.24-.11-.47-.18-.7-.09.08-.26.18-.26.25.02.24.12.46.18.69ZM557.83,60.43c-.04-.24-.15-.48-.23-.72-.13.1-.33.2-.32.26.05.24.16.47.25.71.11-.08.31-.18.31-.25ZM561.79,35.07c-.49-.65.54-1.78-.82-2-.08-.01-.46.99-.43,1.5.06.98.31,1.94.48,2.91.25-.78.51-1.57.78-2.41ZM563.7,27.64c.1.18.26.33.4.49.06-.11.13-.22.19-.33-.13-.16-.26-.31-.4-.47-.07.11-.22.26-.2.31ZM563.84,19c.08.08.17.16.25.23.05-.12.1-.24.15-.35-.13.04-.27.08-.41.12ZM567.96,24.07c-.46-.54-.8-.93-1.13-1.32-.14.38-.42.78-.37,1.13.05.36.42.66.65.99.24-.23.49-.45.86-.8ZM564.77,40.11c-.12-.26-.19-.62-.38-.71-.17-.08-.48.13-.72.21.17.33.34.67.51,1,.19-.17.39-.33.59-.5ZM567.42,31.85c-.08-.24-.13-.47-.23-.68-.01-.03-.33.02-.35.09-.08.23-.08.48-.11.72.23-.04.46-.09.7-.13ZM566.91,15.73c.08.09.16.17.24.25.09-.08.18-.16.27-.24-.08-.08-.16-.23-.24-.23-.09,0-.18.14-.26.22ZM567.21,34.28c-.02.25.02.51.04.77.13-.04.35-.07.36-.13.03-.27,0-.54-.02-.81-.15.06-.37.1-.38.17ZM570.7,21.12c.05-.13-.25-.42-.4-.65-.17.22-.42.4-.45.62-.03.23.14.49.23.74.22-.23.52-.43.63-.71Z"/>
    </g>
    <polygon class="st2" points="28.33 118.22 14.43 132.52 .7 118.22 14.59 103.92 28.33 118.22"/>
    <polygon class="st2" points="606.35 123.6 592.45 137.9 578.72 123.6 592.62 109.31 606.35 123.6"/>
  </g>
  <g>
    <text class="st4" transform="translate(594.66 36.08) scale(.97 1) skewX(-.35)"><tspan x="0" y="0">R</tspan></text>
    <ellipse class="st3" cx="598.05" cy="28.83" rx="10.36" ry="8.56" transform="translate(558.07 626.24) rotate(-88.93)"/>
  </g>
</svg>